<?xml version="1.0" standalone="no"?>
<!DOCTYPE svg PUBLIC "-//W3C//DTD SVG 1.1//EN" "http://www.w3.org/Graphics/SVG/1.1/DTD/svg11.dtd" >
<svg xmlns="http://www.w3.org/2000/svg">
<metadata>
This is a custom SVG webfont generated by Font Squirrel.
Copyright   :  2009 2010 2011 Nippon Central FontMasters Inc All Rights Reserved
</metadata>
<defs>
<font id="AlgreSansNCRegular" horiz-adv-x="700" >
<font-face units-per-em="2048" ascent="1638" descent="-410" />
<missing-glyph horiz-adv-x="300" />
<glyph unicode=" "  horiz-adv-x="300" />
<glyph unicode="&#x09;" horiz-adv-x="300" />
<glyph unicode="&#xa0;" horiz-adv-x="300" />
<glyph unicode="!" horiz-adv-x="300" d="M50 0v200h200v-200h-200zM50 400v1000h200v-1000h-200z" />
<glyph unicode="&#x22;" horiz-adv-x="600" d="M50 1400v200h200v-200q0 -130 -130 -230l-60 80q80 50 80 150h-90zM350 1400v200h200v-200q0 -130 -130 -230l-60 80q80 50 80 150h-90z" />
<glyph unicode="#" horiz-adv-x="810" d="M50 350v200h100v300h-100v200h100v250h200v-250h100v250h200v-250h110v-200h-110v-300h110v-200h-110v-250h-200v250h-100v-250h-200v250h-100zM350 550h100v300h-100v-300z" />
<glyph unicode="$" d="M50 300v150h200v-150q0 -100 100 -100t100 100v100q0 100 -200 250t-200 350v100q0 300 300 300t300 -300v-150h-200v150q0 100 -100 100t-100 -100v-100q0 -100 200 -250t200 -350v-100q0 -300 -300 -300t-300 300zM280 -230l10 250h120l20 -250h-150zM280 1620h150 l-20 -250h-120z" />
<glyph unicode="%" horiz-adv-x="1700" d="M50 800v300q0 300 300 300t300 -300v-300q0 -300 -300 -300t-300 300zM250 800q0 -100 100 -100t100 100v300q0 100 -100 100t-100 -100v-300zM500 0l500 1400h200l-500 -1400h-200zM1050 300v300q0 300 300 300t300 -300v-300q0 -300 -300 -300t-300 300zM1250 300 q0 -100 100 -100t100 100v300q0 100 -100 100t-100 -100v-300z" />
<glyph unicode="&#x26;" horiz-adv-x="780" d="M50 300v250q0 100 100 150q-80 50 -80 150v250q0 300 280 300q300 0 300 -300v-50h-200v50q0 100 -100 100q-80 0 -80 -100v-200q0 -100 110 -100v-200q-130 0 -130 -100v-200q0 -100 100 -100t100 100v500h280v-200h-80v-300q0 -300 -300 -300t-300 300z" />
<glyph unicode="'" horiz-adv-x="300" d="M50 1400v200h200v-200q0 -130 -130 -230l-60 80q80 50 80 150h-90z" />
<glyph unicode="(" horiz-adv-x="500" d="M50 700q0 550 250 950l150 -50q-200 -400 -200 -900t200 -900l-150 -50q-250 400 -250 950z" />
<glyph unicode=")" horiz-adv-x="500" d="M50 -200q200 400 200 900t-200 900l150 50q250 -400 250 -950t-250 -950z" />
<glyph unicode="+" horiz-adv-x="900" d="M50 600v200h300v300h200v-300h300v-200h-300v-300h-200v300h-300z" />
<glyph unicode="," horiz-adv-x="300" d="M50 0v200h200v-200q0 -130 -130 -230l-60 80q80 50 80 150h-90z" />
<glyph unicode="-" d="M50 600v200h600v-200h-600z" />
<glyph unicode="." horiz-adv-x="300" d="M50 0v200h200v-200h-200z" />
<glyph unicode="/" horiz-adv-x="800" d="M50 -200l500 1800h200l-500 -1800h-200z" />
<glyph unicode="0" d="M50 300v800q0 300 300 300t300 -300v-800q0 -300 -300 -300t-300 300zM250 300q0 -100 100 -100t100 100v800q0 100 -100 100t-100 -100v-800z" />
<glyph unicode="1" horiz-adv-x="530" d="M50 1140l230 260h200v-1400h-200v1100l-100 -100z" />
<glyph unicode="2" d="M50 0v300q0 200 200 350t200 250v200q0 100 -100 100t-100 -100v-150h-200v150q0 300 300 300t300 -300v-200q0 -200 -200 -350t-200 -250v-100h400v-200h-600z" />
<glyph unicode="3" d="M50 300v150h200v-150q0 -100 100 -100t100 100v200q0 100 -100 100h-100v200h100q100 0 100 100v200q0 100 -100 100t-100 -100v-140h-200v140q0 300 300 300t300 -300v-200q0 -100 -100 -200q100 -100 100 -200v-200q0 -300 -300 -300t-300 300z" />
<glyph unicode="4" d="M50 400v200l246 800h297l5 -800h52v-200h-48v-400h-203l1 400h-350zM250 600h149v530z" />
<glyph unicode="5" d="M50 300v50h200v-50q0 -100 100 -100t100 100v300q0 100 -100 100t-100 -100h-200v800h600v-200h-400v-400q50 100 150 100q250 0 250 -250v-350q0 -300 -300 -300t-300 300z" />
<glyph unicode="6" d="M50 300v800q0 300 300 300t300 -300v-50h-200v50q0 100 -100 100t-100 -100v-300q50 100 150 100q250 0 250 -250v-350q0 -300 -300 -300t-300 300zM250 300q0 -100 100 -100t100 100v300q0 100 -100 100t-100 -100v-300z" />
<glyph unicode="7" d="M50 1200v200h600v-200l-300 -1200h-220l300 1200h-380z" />
<glyph unicode="8" d="M50 300v250q0 100 100 150q-100 50 -100 150v250q0 300 300 300t300 -300v-250q0 -100 -100 -150q100 -50 100 -150v-250q0 -300 -300 -300t-300 300zM250 300q0 -100 100 -100t100 100v200q0 100 -100 100t-100 -100v-200zM250 900q0 -100 100 -100t100 100v200 q0 100 -100 100t-100 -100v-200z" />
<glyph unicode="9" d="M50 300v50h200v-50q0 -100 100 -100t100 100v300q-50 -100 -150 -100q-250 0 -250 250v350q0 300 300 300t300 -300v-800q0 -300 -300 -300t-300 300zM250 800q0 -100 100 -100t100 100v300q0 100 -100 100t-100 -100v-300z" />
<glyph unicode=":" horiz-adv-x="300" d="M50 200v200h200v-200h-200zM50 1000v200h200v-200h-200z" />
<glyph unicode=";" horiz-adv-x="300" d="M50 200v200h200v-200q0 -130 -130 -230l-60 80q80 50 80 150h-90zM50 1000v200h200v-200h-200z" />
<glyph unicode="&#x3c;" d="M50 600v200l600 330v-230l-370 -200l370 -200v-230z" />
<glyph unicode="=" d="M50 400v200h600v-200h-600zM50 800v200h600v-200h-600z" />
<glyph unicode="&#x3e;" d="M50 270v230l370 200l-370 200v230l600 -330v-200z" />
<glyph unicode="?" d="M50 950v150q0 300 300 300t300 -300v-100q0 -200 -100 -300t-100 -300h-200q0 250 100 350t100 200v150q0 100 -100 100t-100 -100v-150h-200zM250 0v200h200v-200h-200z" />
<glyph unicode="@" horiz-adv-x="1021" d="M50 489v420q0 478 460 478q461 0 461 -478v-420q0 -478 -461 -478q-460 0 -460 478zM163 504q0 -368 350 -368q351 0 351 368v389q0 368 -351 368q-350 0 -350 -368v-389zM318 270l97 853h208l97 -853h-132l-14 163h-110l-14 -163h-132zM476 575h86l-43 380z" />
<glyph unicode="A" horiz-adv-x="760" d="M50 0l160 1400h340l160 -1400h-200l-40 300h-180l-40 -300h-200zM310 500h140l-70 690z" />
<glyph unicode="B" d="M50 0v1400h300q300 0 300 -300v-200q0 -150 -100 -200q100 -60 100 -200v-200q0 -300 -300 -300h-300zM250 200h100q100 0 100 100v200q0 100 -100 100h-100v-400zM250 800h100q100 0 100 100v200q0 100 -100 100h-100v-400z" />
<glyph unicode="C" d="M50 300v800q0 300 300 300t300 -300v-200h-200v200q0 100 -100 100t-100 -100v-800q0 -100 100 -100t100 100v200h200v-200q0 -300 -300 -300t-300 300z" />
<glyph unicode="D" d="M50 0v1400h300q300 0 300 -300v-800q0 -300 -300 -300h-300zM250 200h100q100 0 100 100v800q0 100 -100 100h-100v-1000z" />
<glyph unicode="E" horiz-adv-x="600" d="M50 0v1400h500v-200h-300v-400h250v-200h-250v-400h300v-200h-500z" />
<glyph unicode="F" horiz-adv-x="600" d="M50 0v1400h500v-200h-300v-400h250v-200h-250v-600h-200z" />
<glyph unicode="G" d="M50 300v800q0 300 300 300t300 -300v-200h-200v200q0 100 -100 100t-100 -100v-800q0 -100 100 -100t100 100v200h-100v200h300v-400q0 -300 -300 -300t-300 300z" />
<glyph unicode="H" d="M50 0v1400h200v-600h200v600h200v-1400h-200v600h-200v-600h-200z" />
<glyph unicode="I" horiz-adv-x="300" d="M50 0v1400h200v-1400h-200z" />
<glyph unicode="J" d="M50 300v200h200v-200q0 -100 100 -100t100 100v1100h200v-1100q0 -300 -300 -300t-300 300z" />
<glyph unicode="K" d="M50 0v1400h200v-600h50l150 600h200l-166 -700l166 -700h-200l-150 600h-50v-600h-200z" />
<glyph unicode="L" horiz-adv-x="600" d="M50 0v1400h200v-1200h300v-200h-500z" />
<glyph unicode="M" horiz-adv-x="1050" d="M50 0v1400h300l170 -960l180 960h300v-1400h-200v950l-180 -950h-200l-170 950v-950h-200z" />
<glyph unicode="N" d="M50 0v1400h200l200 -750v750h200v-1400h-200l-200 750v-750h-200z" />
<glyph unicode="O" d="M50 300v800q0 300 300 300t300 -300v-800q0 -300 -300 -300t-300 300zM250 300q0 -100 100 -100t100 100v800q0 100 -100 100t-100 -100v-800z" />
<glyph unicode="P" d="M50 0v1400h300q300 0 300 -300v-300q0 -300 -300 -300h-100v-500h-200zM250 700h100q100 0 100 100v300q0 100 -100 100h-100v-500z" />
<glyph unicode="Q" d="M50 300v800q0 300 300 300t300 -300v-800q0 -300 -300 -300t-300 300zM206 -180l44 100l260 -70l-60 -150zM250 300q0 -100 100 -100t100 100v800q0 100 -100 100t-100 -100v-800z" />
<glyph unicode="R" d="M50 0v1400h300q300 0 300 -300v-300q0 -170 -110 -240l110 -560h-200l-100 500h-100v-500h-200zM250 700h100q100 0 100 100v300q0 100 -100 100h-100v-500z" />
<glyph unicode="S" d="M50 300v150h200v-150q0 -100 100 -100t100 100v100q0 100 -200 250t-200 350v100q0 300 300 300t300 -300v-150h-200v150q0 100 -100 100t-100 -100v-100q0 -100 200 -250t200 -350v-100q0 -300 -300 -300t-300 300z" />
<glyph unicode="T" d="M50 1200v200h600v-200h-200v-1200h-200v1200h-200z" />
<glyph unicode="U" d="M50 300v1100h200v-1100q0 -100 100 -100t100 100v1100h200v-1100q0 -300 -300 -300t-300 300z" />
<glyph unicode="V" horiz-adv-x="760" d="M50 1400h200l130 -1190l130 1190h200l-160 -1400h-340z" />
<glyph unicode="W" horiz-adv-x="1100" d="M50 1400h200l70 -850l130 850h200l120 -850l80 850h200l-150 -1400h-220l-130 900l-130 -900h-220z" />
<glyph unicode="X" horiz-adv-x="750" d="M50 0l200 700l-200 700h200l130 -500l120 500h200l-200 -700l200 -700h-200l-120 500l-130 -500h-200z" />
<glyph unicode="Y" horiz-adv-x="750" d="M50 1400h200l120 -650l130 650h200l-230 -900v-500h-200v500z" />
<glyph unicode="Z" horiz-adv-x="650" d="M50 0v200l350 1000h-350v200h550v-200l-350 -1000h350v-200h-550z" />
<glyph unicode="[" horiz-adv-x="500" d="M50 -200v1800h400v-200h-200v-1400h200v-200h-400z" />
<glyph unicode="\" horiz-adv-x="800" d="M50 1600h200l500 -1800h-200z" />
<glyph unicode="]" horiz-adv-x="500" d="M50 0h200v1400h-200v200h400v-1800h-400v200z" />
<glyph unicode="^" horiz-adv-x="760" d="M50 800l190 800h290l180 -800h-170l-160 590l-150 -590h-180z" />
<glyph unicode="_" d="M50 -200h600v-200h-600v200z" />
<glyph unicode="`" horiz-adv-x="404" d="M50 1550l60 150l244 -120l-44 -100z" />
<glyph unicode="a" horiz-adv-x="760" d="M50 0l160 1400h340l160 -1400h-200l-40 300h-180l-40 -300h-200zM310 500h140l-70 690z" />
<glyph unicode="b" d="M50 0v1400h300q300 0 300 -300v-200q0 -150 -100 -200q100 -60 100 -200v-200q0 -300 -300 -300h-300zM250 200h100q100 0 100 100v200q0 100 -100 100h-100v-400zM250 800h100q100 0 100 100v200q0 100 -100 100h-100v-400z" />
<glyph unicode="c" d="M50 300v800q0 300 300 300t300 -300v-200h-200v200q0 100 -100 100t-100 -100v-800q0 -100 100 -100t100 100v200h200v-200q0 -300 -300 -300t-300 300z" />
<glyph unicode="d" d="M50 0v1400h300q300 0 300 -300v-800q0 -300 -300 -300h-300zM250 200h100q100 0 100 100v800q0 100 -100 100h-100v-1000z" />
<glyph unicode="e" horiz-adv-x="600" d="M50 0v1400h500v-200h-300v-400h250v-200h-250v-400h300v-200h-500z" />
<glyph unicode="f" horiz-adv-x="600" d="M50 0v1400h500v-200h-300v-400h250v-200h-250v-600h-200z" />
<glyph unicode="g" d="M50 300v800q0 300 300 300t300 -300v-200h-200v200q0 100 -100 100t-100 -100v-800q0 -100 100 -100t100 100v200h-100v200h300v-400q0 -300 -300 -300t-300 300z" />
<glyph unicode="h" d="M50 0v1400h200v-600h200v600h200v-1400h-200v600h-200v-600h-200z" />
<glyph unicode="i" horiz-adv-x="300" d="M50 0v1400h200v-1400h-200z" />
<glyph unicode="j" d="M50 300v200h200v-200q0 -100 100 -100t100 100v1100h200v-1100q0 -300 -300 -300t-300 300z" />
<glyph unicode="k" d="M50 0v1400h200v-600h50l150 600h200l-166 -700l166 -700h-200l-150 600h-50v-600h-200z" />
<glyph unicode="l" horiz-adv-x="600" d="M50 0v1400h200v-1200h300v-200h-500z" />
<glyph unicode="m" horiz-adv-x="1050" d="M50 0v1400h300l170 -960l180 960h300v-1400h-200v950l-180 -950h-200l-170 950v-950h-200z" />
<glyph unicode="n" d="M50 0v1400h200l200 -750v750h200v-1400h-200l-200 750v-750h-200z" />
<glyph unicode="o" d="M50 300v800q0 300 300 300t300 -300v-800q0 -300 -300 -300t-300 300zM250 300q0 -100 100 -100t100 100v800q0 100 -100 100t-100 -100v-800z" />
<glyph unicode="p" d="M50 0v1400h300q300 0 300 -300v-300q0 -300 -300 -300h-100v-500h-200zM250 700h100q100 0 100 100v300q0 100 -100 100h-100v-500z" />
<glyph unicode="q" d="M50 300v800q0 300 300 300t300 -300v-800q0 -300 -300 -300t-300 300zM206 -180l44 100l260 -70l-60 -150zM250 300q0 -100 100 -100t100 100v800q0 100 -100 100t-100 -100v-800z" />
<glyph unicode="r" d="M50 0v1400h300q300 0 300 -300v-300q0 -170 -110 -240l110 -560h-200l-100 500h-100v-500h-200zM250 700h100q100 0 100 100v300q0 100 -100 100h-100v-500z" />
<glyph unicode="s" d="M50 300v150h200v-150q0 -100 100 -100t100 100v100q0 100 -200 250t-200 350v100q0 300 300 300t300 -300v-150h-200v150q0 100 -100 100t-100 -100v-100q0 -100 200 -250t200 -350v-100q0 -300 -300 -300t-300 300z" />
<glyph unicode="t" d="M50 1200v200h600v-200h-200v-1200h-200v1200h-200z" />
<glyph unicode="u" d="M50 300v1100h200v-1100q0 -100 100 -100t100 100v1100h200v-1100q0 -300 -300 -300t-300 300z" />
<glyph unicode="v" horiz-adv-x="760" d="M50 1400h200l130 -1190l130 1190h200l-160 -1400h-340z" />
<glyph unicode="w" horiz-adv-x="1100" d="M50 1400h200l70 -850l130 850h200l120 -850l80 850h200l-150 -1400h-220l-130 900l-130 -900h-220z" />
<glyph unicode="x" horiz-adv-x="750" d="M50 0l200 700l-200 700h200l130 -500l120 500h200l-200 -700l200 -700h-200l-120 500l-130 -500h-200z" />
<glyph unicode="y" horiz-adv-x="750" d="M50 1400h200l120 -650l130 650h200l-230 -900v-500h-200v500z" />
<glyph unicode="z" horiz-adv-x="650" d="M50 0v200l350 1000h-350v200h550v-200l-350 -1000h350v-200h-550z" />
<glyph unicode="{" horiz-adv-x="650" d="M50 600v200q150 0 150 100v300q0 400 400 400v-200q-200 0 -200 -200v-350q0 -100 -100 -150q100 -50 100 -150v-350q0 -200 200 -200v-200q-400 0 -400 400v300q0 100 -150 100z" />
<glyph unicode="|" horiz-adv-x="300" d="M50 -200v1800h200v-1800h-200z" />
<glyph unicode="}" horiz-adv-x="650" d="M50 0q200 0 200 200v350q0 100 100 150q-100 50 -100 150v350q0 200 -200 200v200q400 0 400 -400v-300q0 -100 150 -100v-200q-150 0 -150 -100v-300q0 -400 -400 -400v200z" />
<glyph unicode="&#xa1;" horiz-adv-x="300" d="M50 0v1000h200v-1000h-200zM50 1200v200h200v-200h-200z" />
<glyph unicode="&#xa2;" d="M50 300q0 -300 300 -300t300 300v200h-200v-200q0 -100 -100 -100t-100 100v800q0 100 100 100t100 -100v-200h200v200q0 300 -300 300t-300 -300v-800zM280 -230h150l-10 250h-120zM280 1620l10 -250h120l20 250h-150z" />
<glyph unicode="&#xa3;" horiz-adv-x="800" d="M50 500v200h100l10 400q0 300 290 300q300 0 300 -300v-100h-200v100q0 100 -100 100q-90 0 -90 -100l-10 -400h210v-200h-230l-30 -300h410v-200h-610v200l30 300h-80z" />
<glyph unicode="&#xa5;" horiz-adv-x="750" d="M50 1400l220 -900v-500h200v500l230 900h-200l-130 -650l-120 650h-200zM70 200h600v100h-600v-100zM70 400h600v100h-600v-100z" />
<glyph unicode="&#xa6;" horiz-adv-x="300" d="M50 -200v800h200v-800h-200zM50 800v800h200v-800h-200z" />
<glyph unicode="&#xa8;" d="M50 1500v200h200v-200h-200zM450 1500v200h200v-200h-200z" />
<glyph unicode="&#xa9;" horiz-adv-x="1021" d="M50 629v420q0 478 460 478q461 0 461 -478v-420q0 -478 -461 -478q-460 0 -460 478zM163 644q0 -368 350 -368q351 0 351 368v389q0 368 -351 368q-350 0 -350 -368v-389zM303 617v417q0 208 205 208q204 0 204 -208v-89h-136v89q0 69 -68 69q-69 0 -69 -69v-417 q0 -70 69 -70q68 0 68 70v89h136v-89q0 -209 -204 -209q-205 0 -205 209z" />
<glyph unicode="&#xaa;" horiz-adv-x="760" d="M50 0l160 1400h340l160 -1400h-200l-40 300h-180l-40 -300h-200zM310 500h140l-70 690z" />
<glyph unicode="&#xab;" horiz-adv-x="946" d="M50 700l250 500h200l-250 -500l250 -500h-200zM446 700l250 500h200l-250 -500l250 -500h-200z" />
<glyph unicode="&#xac;" horiz-adv-x="900" d="M50 700v200h800v-500h-200v300h-600z" />
<glyph unicode="&#xad;" d="M50 600v200h600v-200h-600z" />
<glyph unicode="&#xae;" horiz-adv-x="1021" d="M50 629v420q0 478 460 478q461 0 461 -478v-420q0 -478 -461 -478q-460 0 -460 478zM163 644q0 -368 350 -368q351 0 351 368v389q0 368 -351 368q-350 0 -350 -368v-389zM303 423v831h210q211 0 211 -221v-121q0 -125 -77 -177l77 -312h-141l-70 268h-70v-268h-140z M443 839h70q70 0 70 73v121q0 74 -70 74h-70v-268z" />
<glyph unicode="&#xb0;" horiz-adv-x="600" d="M50 1350q0 104 73 177t177 73t177 -73t73 -177t-73 -177t-177 -73t-177 73t-73 177zM179 1354q0 -52 36 -88t88 -36q51 0 87 36t36 88q0 51 -36 87t-87 36q-52 0 -88 -36t-36 -87z" />
<glyph unicode="&#xb1;" horiz-adv-x="900" d="M50 0v200h800v-200h-800zM50 700v200h300v300h200v-300h300v-200h-300v-300h-200v300h-300z" />
<glyph unicode="&#xb2;" d="M50 0v300q0 200 200 350t200 250v200q0 100 -100 100t-100 -100v-150h-200v150q0 300 300 300t300 -300v-200q0 -200 -200 -350t-200 -250v-100h400v-200h-600z" />
<glyph unicode="&#xb3;" d="M50 300v150h200v-150q0 -100 100 -100t100 100v200q0 100 -100 100h-100v200h100q100 0 100 100v200q0 100 -100 100t-100 -100v-140h-200v140q0 300 300 300t300 -300v-200q0 -100 -100 -200q100 -100 100 -200v-200q0 -300 -300 -300t-300 300z" />
<glyph unicode="&#xb4;" horiz-adv-x="404" d="M50 1580l244 120l60 -150l-260 -70z" />
<glyph unicode="&#xb5;" horiz-adv-x="1050" d="M50 0v1400h300l170 -960l180 960h300v-1400h-200v950l-180 -950h-200l-170 950v-950h-200z" />
<glyph unicode="&#xb6;" horiz-adv-x="900" d="M50 1100q0 300 300 300h500v-1400h-200v1200h-100v-1200h-200v800q-300 0 -300 300z" />
<glyph unicode="&#xb7;" horiz-adv-x="270" d="M50 615v170h170v-170h-170z" />
<glyph unicode="&#xb8;" horiz-adv-x="404" d="M50 -150l260 70l44 -100l-244 -120z" />
<glyph unicode="&#xb9;" horiz-adv-x="530" d="M50 1140l230 260h200v-1400h-200v1100l-100 -100z" />
<glyph unicode="&#xba;" d="M50 300v800q0 300 300 300t300 -300v-800q0 -300 -300 -300t-300 300zM250 300q0 -100 100 -100t100 100v800q0 100 -100 100t-100 -100v-800z" />
<glyph unicode="&#xbb;" horiz-adv-x="946" d="M50 200l250 500l-250 500h200l250 -500l-250 -500h-200zM446 200l250 500l-250 500h200l250 -500l-250 -500h-200z" />
<glyph unicode="&#xbf;" d="M50 300v100q0 200 100 300t100 300h200q0 -250 -100 -350t-100 -200v-150q0 -100 100 -100t100 100v150h200v-150q0 -300 -300 -300t-300 300zM250 1200v200h200v-200h-200z" />
<glyph unicode="&#xc0;" horiz-adv-x="760" d="M50 0l160 1400h340l160 -1400h-200l-40 300h-180l-40 -300h-200zM177 1550l60 150l244 -120l-44 -100zM310 500h140l-70 690z" />
<glyph unicode="&#xc1;" horiz-adv-x="760" d="M50 0l160 1400h340l160 -1400h-200l-40 300h-180l-40 -300h-200zM279 1580l244 120l60 -150l-260 -70zM310 500h140l-70 690z" />
<glyph unicode="&#xc2;" horiz-adv-x="760" d="M50 0l160 1400h340l160 -1400h-200l-40 300h-180l-40 -300h-200zM180 1600l200 100l200 -100l-60 -100l-140 50l-150 -50zM310 500h140l-70 690z" />
<glyph unicode="&#xc3;" horiz-adv-x="760" d="M50 0l160 1400h340l160 -1400h-200l-40 300h-180l-40 -300h-200zM118 1532q0 80 38.5 122.5t99.5 42.5q26 0 49 -5.5t83 -32.5t94 -27q24 0 40.5 15t20.5 51h99q-1 -102 -38.5 -146t-96.5 -44q-26 0 -51 5q-17 5 -86.5 31.5t-101.5 26.5q-24 0 -38 -15t-14 -51h-97 q-1 17 -1 27zM310 500h140l-70 690z" />
<glyph unicode="&#xc4;" horiz-adv-x="760" d="M50 0l160 1400h340l160 -1400h-200l-40 300h-180l-40 -300h-200zM80 1500v200h200v-200h-200zM310 500h140l-70 690zM480 1500v200h200v-200h-200z" />
<glyph unicode="&#xc5;" horiz-adv-x="760" d="M50 0l160 1400h340l160 -1400h-200l-40 300h-180l-40 -300h-200zM230 1650q0 62 44 106t106 44t106 -44t44 -106t-44 -106t-106 -44t-106 44t-44 106zM310 500h140l-70 690zM330 1650q0 -21 14.5 -35.5t35.5 -14.5t35.5 14.5t14.5 35.5t-14.5 35.5t-35.5 14.5 t-35.5 -14.5t-14.5 -35.5z" />
<glyph unicode="&#xc6;" horiz-adv-x="1013" d="M50 0l171 1399l736 3v-201l-307 -1v-400h250v-200h-250v-400h313v-200h-513v300h-151l-33 -300h-216zM310 500h140v700h-60z" />
<glyph unicode="&#xc7;" d="M50 300v800q0 300 300 300t300 -300v-200h-200v200q0 100 -100 100t-100 -100v-800q0 -100 100 -100t100 100v200h200v-200q0 -300 -300 -300t-300 300zM198 -150l260 70l44 -100l-244 -120z" />
<glyph unicode="&#xc8;" horiz-adv-x="600" d="M50 0v1400h500v-200h-300v-400h250v-200h-250v-400h300v-200h-500zM97 1550l60 150l244 -120l-44 -100z" />
<glyph unicode="&#xc9;" horiz-adv-x="600" d="M50 0v1400h500v-200h-300v-400h250v-200h-250v-400h300v-200h-500zM199 1580l244 120l60 -150l-260 -70z" />
<glyph unicode="&#xca;" horiz-adv-x="600" d="M50 0v1400h500v-200h-300v-400h250v-200h-250v-400h300v-200h-500zM100 1600l200 100l200 -100l-60 -100l-140 50l-150 -50z" />
<glyph unicode="&#xcb;" d="M50 1500v200h200v-200h-200zM100 0v1400h500v-200h-300v-400h250v-200h-250v-400h300v-200h-500zM450 1500v200h200v-200h-200z" />
<glyph unicode="&#xcc;" horiz-adv-x="304" d="M-50 1550l60 150l244 -120l-44 -100zM53 0v1400h200v-1400h-200z" />
<glyph unicode="&#xcd;" horiz-adv-x="300" d="M50 1580l244 120l60 -150l-260 -70zM51 0v1400h200v-1400h-200z" />
<glyph unicode="&#xce;" horiz-adv-x="300" d="M-50 1600l200 100l200 -100l-60 -100l-140 50l-150 -50zM50 0v1400h200v-1400h-200z" />
<glyph unicode="&#xcf;" horiz-adv-x="300" d="M-150 1500v200h200v-200h-200zM50 0v1400h200v-1400h-200zM250 1500v200h200v-200h-200z" />
<glyph unicode="&#xd0;" horiz-adv-x="800" d="M50 600v200h100v600h300q300 0 300 -300v-800q0 -300 -300 -300h-300v600h-100zM350 200h100q100 0 100 100v800q0 100 -100 100h-100v-400h100v-200h-100v-400z" />
<glyph unicode="&#xd1;" d="M50 0v1400h200l200 -750v750h200v-1400h-200l-200 750v-750h-200zM88 1532q0 80 38.5 122.5t99.5 42.5q26 0 49 -5.5t83 -32.5t94 -27q24 0 40.5 15t20.5 51h99q-1 -102 -38.5 -146t-96.5 -44q-26 0 -51 5q-17 5 -86.5 31.5t-101.5 26.5q-24 0 -38 -15t-14 -51h-97 q-1 17 -1 27z" />
<glyph unicode="&#xd2;" d="M50 300v800q0 300 300 300t300 -300v-800q0 -300 -300 -300t-300 300zM147 1550l60 150l244 -120l-44 -100zM250 300q0 -100 100 -100t100 100v800q0 100 -100 100t-100 -100v-800z" />
<glyph unicode="&#xd3;" d="M50 300v800q0 300 300 300t300 -300v-800q0 -300 -300 -300t-300 300zM249 1580l244 120l60 -150l-260 -70zM250 300q0 -100 100 -100t100 100v800q0 100 -100 100t-100 -100v-800z" />
<glyph unicode="&#xd4;" d="M50 300v800q0 300 300 300t300 -300v-800q0 -300 -300 -300t-300 300zM150 1600l200 100l200 -100l-60 -100l-140 50l-150 -50zM250 300q0 -100 100 -100t100 100v800q0 100 -100 100t-100 -100v-800z" />
<glyph unicode="&#xd5;" d="M50 300v800q0 300 300 300t300 -300v-800q0 -300 -300 -300t-300 300zM88 1532q0 80 38.5 122.5t99.5 42.5q26 0 49 -5.5t83 -32.5t94 -27q24 0 40.5 15t20.5 51h99q-1 -102 -38.5 -146t-96.5 -44q-26 0 -51 5q-17 5 -86.5 31.5t-101.5 26.5q-24 0 -38 -15t-14 -51h-97 q-1 17 -1 27zM250 300q0 -100 100 -100t100 100v800q0 100 -100 100t-100 -100v-800z" />
<glyph unicode="&#xd6;" d="M50 300v800q0 300 300 300t300 -300v-800q0 -300 -300 -300t-300 300zM50 1500v200h200v-200h-200zM250 300q0 -100 100 -100t100 100v800q0 100 -100 100t-100 -100v-800zM450 1500v200h200v-200h-200z" />
<glyph unicode="&#xd7;" horiz-adv-x="650" d="M50 200l150 500l-150 500h200l80 -300l70 300h200l-150 -500l150 -500h-200l-70 300l-80 -300h-200z" />
<glyph unicode="&#xd8;" d="M50 300v800q0 300 300 300t300 -300v-800q0 -300 -300 -300t-300 300zM250 300q0 -100 100 -100t100 100v369l-200 -170v-199zM250 729l200 170v201q0 100 -100 100t-100 -100v-371z" />
<glyph unicode="&#xd9;" d="M50 300v1100h200v-1100q0 -100 100 -100t100 100v1100h200v-1100q0 -300 -300 -300t-300 300zM147 1550l60 150l244 -120l-44 -100z" />
<glyph unicode="&#xda;" d="M50 300v1100h200v-1100q0 -100 100 -100t100 100v1100h200v-1100q0 -300 -300 -300t-300 300zM249 1580l244 120l60 -150l-260 -70z" />
<glyph unicode="&#xdb;" d="M50 300v1100h200v-1100q0 -100 100 -100t100 100v1100h200v-1100q0 -300 -300 -300t-300 300zM150 1600l200 100l200 -100l-60 -100l-140 50l-150 -50z" />
<glyph unicode="&#xdc;" d="M50 300v1100h200v-1100q0 -100 100 -100t100 100v1100h200v-1100q0 -300 -300 -300t-300 300zM50 1500v200h200v-200h-200zM450 1500v200h200v-200h-200z" />
<glyph unicode="&#xdd;" horiz-adv-x="750" d="M50 1400h200l120 -650l130 650h200l-230 -900v-500h-200v500zM274 1580l244 120l60 -150l-260 -70z" />
<glyph unicode="&#xde;" d="M50 0v1400h200v-250h100q300 0 300 -300v-300q0 -300 -300 -300h-100v-250h-200zM250 450h100q100 0 100 100v300q0 100 -100 100h-100v-500z" />
<glyph unicode="&#xdf;" horiz-adv-x="1400" d="M50 300v150h200v-150q0 -100 100 -100t100 100v100q0 100 -200 250t-200 350v100q0 300 300 300t300 -300v-150h-200v150q0 100 -100 100t-100 -100v-100q0 -100 200 -250t200 -350v-100q0 -300 -300 -300t-300 300zM750 300v150h200v-150q0 -100 100 -100t100 100v100 q0 100 -200 250t-200 350v100q0 300 300 300t300 -300v-150h-200v150q0 100 -100 100t-100 -100v-100q0 -100 200 -250t200 -350v-100q0 -300 -300 -300t-300 300z" />
<glyph unicode="&#xe0;" horiz-adv-x="760" d="M50 0l160 1400h340l160 -1400h-200l-40 300h-180l-40 -300h-200zM177 1550l60 150l244 -120l-44 -100zM310 500h140l-70 690z" />
<glyph unicode="&#xe1;" horiz-adv-x="760" d="M50 0l160 1400h340l160 -1400h-200l-40 300h-180l-40 -300h-200zM279 1580l244 120l60 -150l-260 -70zM310 500h140l-70 690z" />
<glyph unicode="&#xe2;" horiz-adv-x="760" d="M50 0l160 1400h340l160 -1400h-200l-40 300h-180l-40 -300h-200zM180 1600l200 100l200 -100l-60 -100l-140 50l-150 -50zM310 500h140l-70 690z" />
<glyph unicode="&#xe3;" horiz-adv-x="760" d="M50 0l160 1400h340l160 -1400h-200l-40 300h-180l-40 -300h-200zM118 1532q0 80 38.5 122.5t99.5 42.5q26 0 49 -5.5t83 -32.5t94 -27q24 0 40.5 15t20.5 51h99q-1 -102 -38.5 -146t-96.5 -44q-26 0 -51 5q-17 5 -86.5 31.5t-101.5 26.5q-24 0 -38 -15t-14 -51h-97 q-1 17 -1 27zM310 500h140l-70 690z" />
<glyph unicode="&#xe4;" horiz-adv-x="760" d="M50 0l160 1400h340l160 -1400h-200l-40 300h-180l-40 -300h-200zM80 1500v200h200v-200h-200zM310 500h140l-70 690zM480 1500v200h200v-200h-200z" />
<glyph unicode="&#xe5;" horiz-adv-x="760" d="M50 0l160 1400h340l160 -1400h-200l-40 300h-180l-40 -300h-200zM230 1650q0 62 44 106t106 44t106 -44t44 -106t-44 -106t-106 -44t-106 44t-44 106zM310 500h140l-70 690zM330 1650q0 -21 14.5 -35.5t35.5 -14.5t35.5 14.5t14.5 35.5t-14.5 35.5t-35.5 14.5 t-35.5 -14.5t-14.5 -35.5z" />
<glyph unicode="&#xe6;" horiz-adv-x="1013" d="M50 0l171 1399l736 3v-201l-307 -1v-400h250v-200h-250v-400h313v-200h-513v300h-151l-33 -300h-216zM310 500h140v700h-60z" />
<glyph unicode="&#xe7;" d="M50 300v800q0 300 300 300t300 -300v-200h-200v200q0 100 -100 100t-100 -100v-800q0 -100 100 -100t100 100v200h200v-200q0 -300 -300 -300t-300 300zM198 -150l260 70l44 -100l-244 -120z" />
<glyph unicode="&#xe8;" horiz-adv-x="600" d="M50 0v1400h500v-200h-300v-400h250v-200h-250v-400h300v-200h-500zM97 1550l60 150l244 -120l-44 -100z" />
<glyph unicode="&#xe9;" horiz-adv-x="600" d="M50 0v1400h500v-200h-300v-400h250v-200h-250v-400h300v-200h-500zM199 1580l244 120l60 -150l-260 -70z" />
<glyph unicode="&#xea;" horiz-adv-x="600" d="M50 0v1400h500v-200h-300v-400h250v-200h-250v-400h300v-200h-500zM100 1600l200 100l200 -100l-60 -100l-140 50l-150 -50z" />
<glyph unicode="&#xeb;" d="M50 1500v200h200v-200h-200zM100 0v1400h500v-200h-300v-400h250v-200h-250v-400h300v-200h-500zM450 1500v200h200v-200h-200z" />
<glyph unicode="&#xec;" horiz-adv-x="304" d="M-50 1550l60 150l244 -120l-44 -100zM53 0v1400h200v-1400h-200z" />
<glyph unicode="&#xed;" horiz-adv-x="300" d="M50 1580l244 120l60 -150l-260 -70zM51 0v1400h200v-1400h-200z" />
<glyph unicode="&#xee;" horiz-adv-x="300" d="M-50 1600l200 100l200 -100l-60 -100l-140 50l-150 -50zM50 0v1400h200v-1400h-200z" />
<glyph unicode="&#xef;" horiz-adv-x="300" d="M-150 1500v200h200v-200h-200zM50 0v1400h200v-1400h-200zM250 1500v200h200v-200h-200z" />
<glyph unicode="&#xf0;" horiz-adv-x="800" d="M50 600v200h100v600h300q300 0 300 -300v-800q0 -300 -300 -300h-300v600h-100zM350 200h100q100 0 100 100v800q0 100 -100 100h-100v-400h100v-200h-100v-400z" />
<glyph unicode="&#xf1;" d="M50 0v1400h200l200 -750v750h200v-1400h-200l-200 750v-750h-200zM88 1532q0 80 38.5 122.5t99.5 42.5q26 0 49 -5.5t83 -32.5t94 -27q24 0 40.5 15t20.5 51h99q-1 -102 -38.5 -146t-96.5 -44q-26 0 -51 5q-17 5 -86.5 31.5t-101.5 26.5q-24 0 -38 -15t-14 -51h-97 q-1 17 -1 27z" />
<glyph unicode="&#xf2;" d="M50 300v800q0 300 300 300t300 -300v-800q0 -300 -300 -300t-300 300zM147 1550l60 150l244 -120l-44 -100zM250 300q0 -100 100 -100t100 100v800q0 100 -100 100t-100 -100v-800z" />
<glyph unicode="&#xf3;" d="M50 300v800q0 300 300 300t300 -300v-800q0 -300 -300 -300t-300 300zM249 1580l244 120l60 -150l-260 -70zM250 300q0 -100 100 -100t100 100v800q0 100 -100 100t-100 -100v-800z" />
<glyph unicode="&#xf4;" d="M50 300v800q0 300 300 300t300 -300v-800q0 -300 -300 -300t-300 300zM150 1600l200 100l200 -100l-60 -100l-140 50l-150 -50zM250 300q0 -100 100 -100t100 100v800q0 100 -100 100t-100 -100v-800z" />
<glyph unicode="&#xf5;" d="M50 300v800q0 300 300 300t300 -300v-800q0 -300 -300 -300t-300 300zM88 1532q0 80 38.5 122.5t99.5 42.5q26 0 49 -5.5t83 -32.5t94 -27q24 0 40.5 15t20.5 51h99q-1 -102 -38.5 -146t-96.5 -44q-26 0 -51 5q-17 5 -86.5 31.5t-101.5 26.5q-24 0 -38 -15t-14 -51h-97 q-1 17 -1 27zM250 300q0 -100 100 -100t100 100v800q0 100 -100 100t-100 -100v-800z" />
<glyph unicode="&#xf6;" d="M50 300v800q0 300 300 300t300 -300v-800q0 -300 -300 -300t-300 300zM50 1500v200h200v-200h-200zM250 300q0 -100 100 -100t100 100v800q0 100 -100 100t-100 -100v-800zM450 1500v200h200v-200h-200z" />
<glyph unicode="&#xf7;" d="M50 600v200h600v-200h-600zM250 200v200h200v-200h-200zM250 1000v200h200v-200h-200z" />
<glyph unicode="&#xf8;" d="M50 300v800q0 300 300 300t300 -300v-800q0 -300 -300 -300t-300 300zM250 300q0 -100 100 -100t100 100v369l-200 -170v-199zM250 729l200 170v201q0 100 -100 100t-100 -100v-371z" />
<glyph unicode="&#xf9;" d="M50 300v1100h200v-1100q0 -100 100 -100t100 100v1100h200v-1100q0 -300 -300 -300t-300 300zM147 1550l60 150l244 -120l-44 -100z" />
<glyph unicode="&#xfa;" d="M50 300v1100h200v-1100q0 -100 100 -100t100 100v1100h200v-1100q0 -300 -300 -300t-300 300zM249 1580l244 120l60 -150l-260 -70z" />
<glyph unicode="&#xfb;" d="M50 300v1100h200v-1100q0 -100 100 -100t100 100v1100h200v-1100q0 -300 -300 -300t-300 300zM150 1600l200 100l200 -100l-60 -100l-140 50l-150 -50z" />
<glyph unicode="&#xfc;" d="M50 300v1100h200v-1100q0 -100 100 -100t100 100v1100h200v-1100q0 -300 -300 -300t-300 300zM50 1500v200h200v-200h-200zM450 1500v200h200v-200h-200z" />
<glyph unicode="&#xfd;" horiz-adv-x="750" d="M50 1400h200l120 -650l130 650h200l-230 -900v-500h-200v500zM274 1580l244 120l60 -150l-260 -70z" />
<glyph unicode="&#xfe;" d="M50 0v1400h200v-250h100q300 0 300 -300v-300q0 -300 -300 -300h-100v-250h-200zM250 450h100q100 0 100 100v300q0 100 -100 100h-100v-500z" />
<glyph unicode="&#xff;" horiz-adv-x="750" d="M50 1400h200l120 -650l130 650h200l-230 -900v-500h-200v500zM75 1500v200h200v-200h-200zM475 1500v200h200v-200h-200z" />
<glyph unicode="&#x152;" horiz-adv-x="1000" d="M50 300v800q0 300 300 300h600v-200h-300v-400h250v-200h-250v-400h300v-200h-600q-300 0 -300 300zM250 300q0 -100 100 -100h100v1000h-100q-100 0 -100 -100v-800z" />
<glyph unicode="&#x153;" horiz-adv-x="1000" d="M50 300v800q0 300 300 300h600v-200h-300v-400h250v-200h-250v-400h300v-200h-600q-300 0 -300 300zM250 300q0 -100 100 -100h100v1000h-100q-100 0 -100 -100v-800z" />
<glyph unicode="&#x178;" horiz-adv-x="750" d="M50 1400h200l120 -650l130 650h200l-230 -900v-500h-200v500zM75 1500v200h200v-200h-200zM475 1500v200h200v-200h-200z" />
<glyph unicode="&#x2c6;" horiz-adv-x="500" d="M50 1600l200 100l200 -100l-60 -100l-140 50l-150 -50z" />
<glyph unicode="&#x2dc;" horiz-adv-x="624" d="M50 1532q0 80 38.5 122.5t99.5 42.5q26 0 49 -5.5t83 -32.5t94 -27q24 0 40.5 15t20.5 51h99q-1 -102 -38.5 -146t-96.5 -44q-26 0 -51 5q-17 5 -86.5 31.5t-101.5 26.5q-24 0 -38 -15t-14 -51h-97q-1 17 -1 27z" />
<glyph unicode="&#x2013;" d="M50 600v200h600v-200h-600z" />
<glyph unicode="&#x2014;" horiz-adv-x="800" d="M50 600v200h700v-200h-700z" />
<glyph unicode="&#x2018;" horiz-adv-x="300" d="M50 1170v200q0 130 130 230l60 -80q-80 -50 -80 -150h90v-200h-200z" />
<glyph unicode="&#x2019;" horiz-adv-x="300" d="M50 1400v200h200v-200q0 -130 -130 -230l-60 80q80 50 80 150h-90z" />
<glyph unicode="&#x201a;" horiz-adv-x="300" d="M50 0v200h200v-200q0 -130 -130 -230l-60 80q80 50 80 150h-90z" />
<glyph unicode="&#x201c;" horiz-adv-x="600" d="M50 1170v200q0 130 130 230l60 -80q-80 -50 -80 -150h90v-200h-200zM350 1170v200q0 130 130 230l60 -80q-80 -50 -80 -150h90v-200h-200z" />
<glyph unicode="&#x201d;" horiz-adv-x="600" d="M50 1400v200h200v-200q0 -130 -130 -230l-60 80q80 50 80 150h-90zM350 1400v200h200v-200q0 -130 -130 -230l-60 80q80 50 80 150h-90z" />
<glyph unicode="&#x201e;" horiz-adv-x="600" d="M50 0v200h200v-200q0 -130 -130 -230l-60 80q80 50 80 150h-90zM350 0v200h200v-200q0 -130 -130 -230l-60 80q80 50 80 150h-90z" />
<glyph unicode="&#x2022;" horiz-adv-x="500" d="M50 700q0 83 58.5 141.5t141.5 58.5t141.5 -58.5t58.5 -141.5t-58.5 -141.5t-141.5 -58.5t-141.5 58.5t-58.5 141.5z" />
<glyph unicode="&#x2026;" horiz-adv-x="1100" d="M50 0v200h200v-200h-200zM450 0v200h200v-200h-200zM850 0v200h200v-200h-200z" />
<glyph unicode="&#x2039;" horiz-adv-x="550" d="M50 700l250 500h200l-250 -500l250 -500h-200z" />
<glyph unicode="&#x203a;" horiz-adv-x="550" d="M50 200l250 500l-250 500h200l250 -500l-250 -500h-200z" />
<glyph unicode="&#x20ac;" horiz-adv-x="800" d="M50 510v140h100v100h-100v150h100v200q0 300 300 300t300 -300v-50h-200v50q0 100 -100 100t-100 -100v-200h300l-38 -150h-262v-100h236l-35 -140h-201v-210q0 -100 100 -100t100 100v50h200v-50q0 -300 -300 -300t-300 300v210h-100z" />
<glyph unicode="&#x2122;" horiz-adv-x="868" d="M50 1320v80h270v-80h-90v-480h-90v480h-90zM390 840v560h135l77 -384l81 384h135v-560h-90v380l-81 -380h-90l-77 380v-380h-90z" />
<glyph unicode="&#xe000;" horiz-adv-x="1400" d="M0 1400h1400v-1400h-1400v1400z" />
<glyph unicode="&#xfb01;" horiz-adv-x="900" d="M50 0v1400h500v-200h-300v-400h250v-200h-250v-600h-200zM650 0v1400h200v-1400h-200z" />
<glyph unicode="&#xfb02;" horiz-adv-x="1200" d="M50 0v1400h500v-200h-300v-400h250v-200h-250v-600h-200zM650 0v1400h200v-1200h300v-200h-500z" />
<glyph unicode="&#xfb03;" horiz-adv-x="1500" d="M50 0v1400h500v-200h-300v-400h250v-200h-250v-600h-200zM650 0v1400h500v-200h-300v-400h250v-200h-250v-600h-200zM1250 0v1400h200v-1400h-200z" />
<glyph unicode="&#xfb04;" horiz-adv-x="1800" d="M50 0v1400h500v-200h-300v-400h250v-200h-250v-600h-200zM650 0v1400h500v-200h-300v-400h250v-200h-250v-600h-200zM1250 0v1400h200v-1200h300v-200h-500z" />
</font>
</defs>
</svg>
