<?xml version="1.0" standalone="no"?>
<!DOCTYPE svg PUBLIC "-//W3C//DTD SVG 1.1//EN" "http://www.w3.org/Graphics/SVG/1.1/DTD/svg11.dtd" >
<svg xmlns="http://www.w3.org/2000/svg">
<metadata>
This is a custom SVG webfont generated by Font Squirrel.
Copyright   :  2002 by Andrew H Leman Revived from the Linotype Catalog exclusively for the HPLHS
</metadata>
<defs>
<font id="OldStyle1HPLHS" horiz-adv-x="494" >
<font-face units-per-em="1000" ascent="800" descent="-200" />
<missing-glyph horiz-adv-x="277" />
<glyph unicode=" "  horiz-adv-x="277" />
<glyph unicode="&#x09;" horiz-adv-x="277" />
<glyph unicode="&#xa0;" horiz-adv-x="277" />
<glyph unicode="!" horiz-adv-x="290" d="M179 696q20 -44 20 -100q0 -42 -16 -130q-16 -84 -14 -125l-10 -181q-6 -11 -19 -11q-10 0 -19 5q-11 17 -11 43q0 10 2 29.5t2 29.5q0 26 -11 43q4 51 -16 145q-21 103 -21 147q0 54 20 97q16 20 44 20q21 0 49 -12zM211 25l-19 -33q-10 -18 -27 -23q-12 -3 -26 -3 q-33 0 -55 16q-23 22 -23 52q0 12 4 22q18 36 38 44q14 6 28 6q31 0 53.5 -24t26.5 -57z" />
<glyph unicode="&#x22;" horiz-adv-x="387" d="M312 638q-5 -21 -5 -51v-17v-16q0 -49 -31 -53q-24 -3 -27 41q-5 70 -11 88q-24 70 -24 102q0 59 59 59t59 -56q0 -21 -20 -97zM168 638q-6 -21 -6 -51q0 -6 1 -17v-16q0 -49 -32 -53q-23 -3 -26 41q-5 70 -11 88q-24 70 -24 102q0 59 59 59q58 0 58 -56q0 -21 -19 -97z " />
<glyph unicode="$" horiz-adv-x="544" d="M522 326q-13 -17 -10 -23q11 -2 11 -18q0 -11 -5 -27q-28 -83 -94 -123q-15 -9 -57 -21q-38 -10 -55 -25q5 -19 5 -42q0 -14 -4 -55q-3 -33 -1 -52q-12 -15 -43 -4q-13 18 -13 44q0 13 4 39t4 39q0 33 -22 54q-76 20 -108 35q-57 28 -84 77q0 6 -3.5 20t-3.5 21 q0 15 16 28.5t32 13.5q8 0 16 -4q28 -5 42 -39l22 -58q14 -15 29 -29q19 -17 36 -17q9 0 18 4l6 8q0 2 1 131q0 72 -7 127q-5 11 -24 11q-10 0 -13 3q-73 44 -105 73q-56 51 -62 108q11 96 65 150q14 20 77 34q52 12 52 46q0 9 -2 19l12 21q7 11 19 11q3 -3 21 -7 q14 -2 18 -12q3 -6 1 -34q-2 -22 12 -31q135 -20 182 -93q8 -26 8 -43q0 -22 -12 -40q-16 -18 -47 -18q-13 0 -28 3q-22 13 -49 67q-25 49 -63 58q-8 -18 -7 -58.5t-7 -57.5q-1 9 -1 -53q0 -22 11 -37q-2 -7 -2 -14q0 -16 16 -26q4 -3 32 -14q156 -62 164 -170zM246 748 q-9 11 -21 11q-9 0 -26 -7.5t-24 -7.5q-42 -20 -50 -86q32 -88 112 -108q12 28 12 67q0 16 -2.5 49t-2.5 50t2 32zM455 289q-12 40 -52 72q-39 29 -83 36q-16 -44 -15 -114q3 -97 1 -115q11 -16 37 -16q15 0 48 8q33 20 51 56t13 73z" />
<glyph unicode="%" horiz-adv-x="846" d="M869 193q-47 -150 -157 -201q-53 -12 -82 -12q-18 0 -35 3q-25 12 -49 39l-40 47q-3 23 -3 45q0 110 86 179q85 82 171 82q26 0 53 -7l25 -19q38 -45 38 -109q0 -24 -7 -47zM712 769q0 -30 -26 -68q-30 -46 -35 -63q-34 -39 -81 -116q-54 -87 -79 -119l-140 -267 q-77 -154 -117 -275q-3 -13 -17 -23q-10 -7 -20 -12.5t-21 -5.5q-23 0 -40 14q-8 14 -8 29q0 23 25 54q38 45 39 48q99 166 146 253q29 38 66 99l60 101q23 34 52 102q32 73 50 103q-7 4 -14 4q-10 0 -31 -10t-34 -10q-5 0 -10 2q-8 -5 -24 -5h-14q-11 1 -16 1 q-29 0 -40 -19q2 -7 2 -14q0 -11 -10.5 -34t-7.5 -39q-2 -3 -11 -31q-6 -18 -18 -26q-3 -29 -35 -62l-55 -50q-41 -18 -84 -18q-33 0 -59 12q-88 65 -85 150q8 7 7.5 26t2.5 26q29 65 97 125q76 67 140 67q38 0 97.5 -38t92.5 -38q28 0 57 19q45 28 56 37q32 25 40 52 q25 29 64 29q21 0 38 -10zM820 189q-3 8 -3 16q0 10 5 30t5 29q0 17 -12 29q-22 34 -66 34q-24 0 -42 -11q-114 -122 -114 -208q0 -23 7 -46.5t36 -28.5l53 -2q44 22 78 69q13 18 53 89zM348 590q-8 49 -85 62q-66 -38 -103.5 -105t-37.5 -144q14 -37 47 -50q12 -2 23 -2 q45 0 79 29q80 86 77 210z" />
<glyph unicode="&#x26;" horiz-adv-x="685" d="M689 18q-91 -38 -133 -38q-21 0 -39.5 4.5t-51.5 31.5q-30 24 -52 25q-20 -19 -55 -33l-57 -23q-19 -2 -37 -2q-141 0 -206 114q-20 35 -20 119q0 46 26 87t68 66q22 14 65 46q-4 29 -33 90q-26 56 -26 90q0 20 7 40l33 52q20 31 48 35q21 19 58 19q11 0 34 -2t35 -2 q73 -30 91 -69q12 -24 12 -50q0 -45 -39 -101q-39 -28 -54 -40q-30 -23 -48 -43q17 -36 110 -196l16 -36q10 -23 28 -30q31 5 46 37l22 56q1 10 8 31.5t7 32.5q0 14 -8 26q-6 27 -51 34q-40 6 -34 34q124 11 144 11q47 0 86 -9q4 -9 4 -15q0 -16 -32 -25q-38 -11 -47 -22 q-18 -19 -29 -54q-17 -54 -18 -58q-6 -17 -38 -64q-26 -39 -26 -67q0 -11 3 -23q23 -27 35 -38q22 -19 44 -22q7 -4 15 -4q14 0 41 11.5t35 11.5q15 0 15 -20q0 -8 -2 -18zM369 575q7 65 -35 106q-15 14 -38 14q-17 0 -51 -10q-22 -21 -22 -54q0 -20 8 -50l14 -46l20 -36 q13 -22 31 -22q6 0 13 2q48 39 60 96zM398 68q-7 48 -43 112q-54 98 -58 108q-15 12 -31.5 44.5t-31.5 44.5q-5 5 -9 5t-12 -5t-13 -5q-4 0 -7 1q-65 -31 -65 -145q38 -149 135 -187q40 -5 56 -5q50 0 79 32z" />
<glyph unicode="'" horiz-adv-x="277" d="M188 638q-6 -21 -6 -51q0 -6 1 -17v-16q0 -49 -32 -53q-23 -3 -26 41q-5 70 -11 88q-24 70 -24 102q0 59 59 59q58 0 58 -56q0 -21 -19 -97z" />
<glyph unicode="(" horiz-adv-x="345" d="M370 845q-6 -31 -7 -34q-6 -19 -22 -26q-25 -16 -60 -48q-96 -84 -121 -224q-20 -113 -10 -262q9 -32 37 -93q24 -80 65 -116q10 -20 51 -44.5t52 -49.5q0 -7 -7 -15q-10 -12 -11 -14q-43 -2 -82 38q-58 60 -68 66q-153 173 -141 393q4 13 9 59q3 38 16 57q6 45 40 102 l58 95q52 66 164 148q13 0 21.5 -10.5t15.5 -21.5z" />
<glyph unicode=")" horiz-adv-x="328" d="M343 414q-5 -64 -9 -129q-10 -76 -47 -116q-7 -29 -27 -61l-38 -55l-68 -76q-40 -43 -77 -59q-31 0 -31 18q4 17 28 32q29 19 36 29q81 85 116 206q26 91 34 238q-21 104 -40 157q-30 84 -83 138q-9 14 -54 41q-37 22 -37 44q0 12 8.5 27.5t36.5 3.5q9 -12 47 -35 q31 -19 36 -44l44 -43q26 -25 31 -50q41 -61 58 -127q11 -22 18 -68q9 -49 18 -71z" />
<glyph unicode="*" horiz-adv-x="446" d="M471 500q-27 -9 -50 -9q-39 0 -66 23q-1 1 -27 41q-17 24 -41 19q-14 -7 -14 -19q0 -7 6 -23t6 -24q17 -13 17 -32q0 -12 -11 -38.5t-11 -39.5l-22 -19q-19 11 -27 41q-10 39 -15 46q-1 15 13 42t14 38q0 14 -15 24q-27 4 -46 -27q-21 -35 -41 -39q-10 0 -32.5 -8 t-32.5 -8q-19 0 -28 20q18 54 83 81q22 1 45 1q28 4 40 22q-10 31 -51 33q-57 3 -67 8l-33 32q-16 20 -16 37q0 8 3 17q16 3 34 3q47 0 78 -22l26 -37q18 -21 38 -23q14 13 14 28q0 12 -14.5 36.5t-14.5 39.5q0 12 7 24q6 21 11 41q8 24 27 34q27 -2 36 -33q6 -27 11 -54 q1 -17 -12 -46.5t-13 -44.5q0 -13 7 -25q21 5 46 31q21 20 41 41q9 0 29 4t31 4q16 0 29 -8q4 -7 4 -15q0 -16 -22 -35q-27 -23 -30 -29q-2 0 -66 -9q-39 -6 -50 -32q16 -18 70 -26q50 -8 65 -34q35 -27 37 -52z" />
<glyph unicode="+" horiz-adv-x="348" d="M370 294q12 -43 -12 -71q-31 -16 -96 -9q3 -30 3 -44q0 -48 -33 -62q-20 -3 -38.5 5.5t-19.5 27.5l4 76q-42 -4 -53 -4q-48 0 -62 33q-4 21 5 39t28 19l73 -4q-1 45 15 115q44 12 71 -12q16 -31 9 -94q43 0 106 -15z" />
<glyph unicode="," horiz-adv-x="301" d="M213 82q6 -18 6 -35q0 -36 -30 -79l-53 -68q-37 -36 -70 -32q-7 12 -7 21q0 16 33.5 38t30.5 47l-38 46q-22 29 -22 54q0 11 4 24q34 29 71 29q13 0 26 -4l29 -19q15 -9 20 -22z" />
<glyph unicode="-" horiz-adv-x="348" d="M370 294q12 -43 -12 -71q-21 -11 -55 -11q-17 0 -50 3.5t-47 3.5q-11 0 -39 -3t-42 -3q-48 0 -62 33q-4 21 5 39t28 19l106 -6q24 11 62 11q43 0 106 -15z" />
<glyph unicode="." horiz-adv-x="356" d="M237 93q4 -17 4 -33q0 -37 -18 -57q-18 -15 -49 -15q-19 0 -68 11q-26 18 -26 58q0 13 3 25q16 39 75 48l45 -8q27 -5 34 -29z" />
<glyph unicode="/" horiz-adv-x="383" d="M401 837q9 -8 9 -22q0 -21 -34 -80q-25 -77 -83.5 -230.5t-83.5 -232.5q5 -3 5 -7q0 -5 -8 -15.5t-10 -14.5q-10 -42 -40.5 -124t-39.5 -119q-21 -30 -57 -47q-26 0 -26 41q0 65 69 205l27 50q16 33 16 54q0 10 -4 19q33 69 84 225q49 149 77 204q46 90 99 94z" />
<glyph unicode="0" horiz-adv-x="503" d="M519 408q2 -51 -29 -169q-12 -32 -33 -95q-43 -74 -60 -96q-40 -48 -89 -58q-25 -5 -47 -5q-67 0 -101 42q-106 132 -106 334q0 27 2 55q3 7 15 83q44 117 62 147q48 80 125 96q12 3 25 3q62 0 151 -82q26 -40 63 -158q-3 -22 6 -50zM389 285l-6 199q-10 111 -61 179 q-34 22 -79 19q-47 -37 -65 -109l-24 -128q0 -94 1 -189q5 -115 41 -181q23 -43 89 -43q41 15 56 47q1 18 18.5 47t18.5 47q8 20 8 56q-1 40 3 56z" />
<glyph unicode="1" horiz-adv-x="358" d="M355 17q2 -4 2 -6q0 -6 -22 -17l-248 -6q-19 13 -22 41q11 11 31 11q4 0 11 -1h12q23 0 35 15q20 19 20 55q0 5 -1 17v17q0 19 4 32q-1 -15 -1 93q0 58 9 93l-8 23q-2 13 -2 28q0 16 3 46.5t3 46.5q0 37 -13 66q-11 17 -46 17h-7q-37 0 -46 21h-15q-6 13 -6 23 q0 22 39 24q47 3 56 11q18 12 35 25q21 16 28 31q19 10 44 10q33 0 43 -21q-9 -73 -19 -224q1 -109 -4 -326q-8 -9 0 -37q0 -71 48 -94q19 0 37 -14z" />
<glyph unicode="2" horiz-adv-x="500" d="M524 582q-4 -12 -15 -78q-8 -45 -30 -72q-44 -52 -167 -153q-113 -94 -162 -161q6 -20 7 -22q5 -12 16 -15q24 5 61 5q13 0 41.5 -1t42.5 -1q121 0 165 76q1 -1 11 -7q7 -3 7 -10q3 -25 -16.5 -66.5t-16.5 -66.5l-29 -22q-46 -5 -104 -5q-34 0 -136 3q-85 3 -134 2 q-13 9 -13 25q0 7 9 37q36 40 121 146q74 92 122 143q21 34 56 66q40 63 40 116q0 21 -7 42q4 6 4 11q0 11 -17 24q-21 16 -24 21q-34 21 -72 21t-73 -21q-51 -29 -75 -75q-36 -27 -52 -27q-5 34 24 70l53 59q11 16 43.5 33t43.5 29q17 -3 43.5 12t45.5 11q122 -23 154 -97 q11 -6 18.5 -26t14.5 -26z" />
<glyph unicode="3" horiz-adv-x="455" d="M462 204q-23 -138 -101 -191q-51 -35 -124 -35q-56 0 -107 20q-83 57 -83 116q5 27 7 32q7 18 20 24q8 2 15 2q43 0 60 -39q14 -53 25 -73q22 -39 60 -43q10 -3 20 -3q24 0 47 18l39 37q34 76 34 137q0 55 -28 95q-18 33 -61 49q-64 22 -70 26q-3 17 14 27q24 14 28 19 q95 62 95 141q0 9 -2 19l-24 39q-15 22 -36 27q-10 2 -20 2q-33 0 -67 -32q-53 -51 -58 -55h-19q-10 1 -10 10q3 29 28 63l42 54q51 49 128 49q99 0 138 -78q0 -10 2.5 -32t2.5 -34q0 -25 -9 -42q-14 -28 -59.5 -68.5t-56.5 -66.5q39 -8 72.5 -38t49.5 -68q16 -64 8 -108z " />
<glyph unicode="4" horiz-adv-x="500" d="M493 187q-9 -9 -29 -9q-4 0 -13 1h-13q-31 0 -38 -23q1 -15 -1 -76q-2 -46 9 -74q-9 -24 -33 -33q-32 0 -38 1q-20 3 -31 18q-6 14 -6 31q0 16 7.5 46t7.5 44q0 21 -11 38v16q-1 9 -8 11q-20 2 -43 2q-24 0 -70 -2.5t-68 -2.5q-31 0 -58 3q-18 13 -18 35q0 5 10 49 q16 28 72 100q48 61 67 105q21 10 33 44q14 38 27 50q21 18 38 61q19 47 37 65l23 33q11 17 27 17q6 0 12 -2q46 0 46 -33q0 -32 -10 -87.5t-9 -89.5q2 -42 -5 -114q-8 -79 -8 -114q0 -17 1 -33q10 -13 60 -21q43 -6 43 -27q0 -12 -10 -29zM306 282q0 209 -2 233h-16 q-20 -23 -77 -103q-48 -66 -83 -103q-15 -10 -5 -37q18 -12 33 -12q7 0 13 4q17 6 74 1q47 -4 63 17z" />
<glyph unicode="5" horiz-adv-x="424" d="M448 769q-1 -28 -23 -72q-26 -52 -31 -72q-31 -10 -69 -10q-18 0 -59.5 3.5t-64.5 2.5q-7 3 -12 3q-27 0 -34 -40q-13 -71 -4 -114l17 -17q101 -4 142 -17q76 -22 103 -87q19 -47 19 -105q0 -113 -63 -190q-59 -71 -167 -71q-41 0 -80 11q-33 14 -75 60q-4 13 -4 27 q0 40 31 54q31 9 52 -6q8 -28 38 -56l55 -46q13 -5 25 -5q42 0 94 74q22 60 22 114q0 68 -37 110q-31 36 -95 42l-110 6q-11 13 -11 32q0 9 3 27.5t3 27.5q0 8 -2 15q-1 20 -1 44q0 25 2.5 77t2.5 78q0 25 -1 46l16 16h208l33 36q21 20 42 20q9 0 18 -4z" />
<glyph unicode="6" horiz-adv-x="505" d="M496 289q8 -29 8 -59q0 -104 -97 -207q-63 -33 -125 -33q-48 0 -81 23q-89 23 -145 187q0 20 -4.5 61.5t-4.5 62.5q0 44 15 77q39 86 55 116q35 62 80 105q90 59 99 64q58 33 111 39q17 21 41 13q2 0 15 -9q2 -6 2 -12q0 -16 -21 -25l-33 -14q-84 -20 -150 -87 q-64 -63 -91 -148q0 -13 8 -19q69 33 124 33q21 0 40 -4q94 -19 154 -164zM407 131q-1 25 0 64q2 47 2 61q0 98 -48 150q-24 25 -59 25q-17 0 -30 -7q-48 0 -108 -56q-17 -39 -17 -99q0 -19 1 -51q3 -38 3 -49q29 -126 98 -142q19 -4 39 -4q52 0 85 29q14 15 34 79z" />
<glyph unicode="7" horiz-adv-x="437" d="M468 690q-9 -49 -71 -125q-4 -24 -19 -55l-27 -53q-65 -151 -205 -453q-17 -26 -50 -26q-7 0 -13 2q-22 6 -27 30q-2 12 0 44q66 91 113 187q29 35 79 120q47 79 85 119q1 2 22 51q13 31 38 43q4 7 4 16q0 23 -19 29l-236 -4q-17 -5 -43 -32t-43 -32q-10 8 -10 20 q0 6 3.5 21t2.5 23q16 17 23 78q6 53 38 67q9 4 16 4q14 0 19 -26.5t21 -28.5q30 1 90 -2q70 -3 94 -3q41 0 69 5q13 -3 27.5 -6t18.5 -13z" />
<glyph unicode="8" horiz-adv-x="487" d="M494 173q0 -51 -25 -96t-68 -68q-54 -30 -120 -30q-91 0 -154 52q-72 59 -72 136q0 26 10 51q28 79 126 123l-61 72q-36 44 -40.5 81.5t-4.5 63.5q0 103 79 151q44 25 101 25q44 0 101 -15q45 -24 71.5 -68.5t26.5 -95.5q0 -69 -53 -112q-8 -16 -43 -31q-28 -12 -27 -34 q63 -34 104 -83q49 -59 49 -122zM364 470q15 32 15 73q0 72 -42 114q-17 16 -45 19q-10 1 -53 1q-61 -18 -71 -56q0 -11 -2 -34.5t-2 -34.5q0 -42 27 -64l48 -49q30 -31 59 -31q5 0 12 1l29 28q18 18 25 33zM411 181q-66 116 -195 145q-31 -20 -45 -64q-11 -36 -21 -73 q8 -117 74 -149q26 -13 56 -13q55 0 104 38q31 38 31 86q0 15 -4 30z" />
<glyph unicode="9" horiz-adv-x="463" d="M478 456q6 -132 -69 -245q-72 -108 -193 -169q-42 -21 -122 -41q-19 8 -8 33q87 24 159 78q77 58 119 138q0 21 -13 31q-14 -1 -60 -7q-39 -6 -62 -6q-55 0 -89 28q-91 72 -91 199q0 42 12 81q40 132 135 154q33 7 64 7q88 0 123 -57q50 -35 71 -100q7 -23 24 -124z M364 337q26 51 26 116q0 75 -34 171q-33 68 -105 68q-21 0 -41 -8q-75 -58 -75 -178q0 -29 5 -61q16 -114 93 -149q15 -6 29 -6q25 0 53 16z" />
<glyph unicode=":" horiz-adv-x="274" d="M210 377q-25 -38 -69 -38q-14 0 -28 4q-21 6 -27 31q-9 33 -15 40l21 30q14 17 29 22q6 -2 45 -4q24 -1 36 -19q16 -18 16 -41q0 -14 -8 -25zM206 28q-16 -25 -42 -40q7 -1 -37 -1q-22 0 -29 16q-15 16 -23 62q15 31 46 46q7 1 14 1q34 0 61 -24q14 -17 14 -40 q0 -11 -4 -20z" />
<glyph unicode=";" horiz-adv-x="284" d="M224 432q5 -10 5 -22q0 -23 -15 -40q-11 -18 -37 -23q-41 -8 -42 -8l-38 24q-21 16 -18 36q5 20 12.5 40.5t28.5 26.5q18 4 35 4q53 0 69 -38zM214 -16q-9 -35 -49 -78l-63 -68q-5 0 -15 -3.5t-14 -3.5q-9 0 -13 12q3 18 38.5 40t36.5 49t-30 63.5t-31 54.5q0 19 19 40 q20 17 49 17t49 -17q26 -18 26 -60q0 5 -3 -46z" />
<glyph unicode="=" horiz-adv-x="359" d="M370 338q12 -38 -12 -62q-21 -10 -55 -10q-17 0 -50 3t-47 3q-11 1 -39 -2t-42 -3q-48 0 -62 29q-4 18 5 34t28 17l106 -5q24 9 62 9q43 0 106 -13zM370 218q14 0 14 -20q0 -35 -26 -42q-31 -7 -76 -6q-38 1 -76 3q-11 0 -39 -3t-42 -3q-48 0 -62 29q-4 18 5 34t28 17 q184 -9 274 -9z" />
<glyph unicode="?" horiz-adv-x="456" d="M354 618q19 -38 19 -91q0 -71 -32 -115q-58 -55 -108 -55q-13 0 -27 3q-34 -17 -34 -59q0 -10 2.5 -32t2.5 -32q0 -29 -14 -45q-14 -3 -22.5 5t-8.5 20q11 20 11 54q0 16 -4 51t-4 50q0 69 63 69q9 0 21 -2q10 7 35 14t35 15q28 30 28 75q0 25 -9 48q-19 50 -66 50 q-19 0 -57.5 -8t-57.5 -8q-34 0 -58 20q-1 13 -1 22q0 44 35 67q25 4 51 4q158 0 200 -120zM225 84q0 -62 -39 -83q-13 -4 -27 -4q-35 0 -61 27q-21 23 -10 56q9 5 23 25q12 16 25 19q26 -4 52 -7q31 -6 37 -33z" />
<glyph unicode="@" horiz-adv-x="972" d="M971 -24q-4 -46 -33 -60q-31 -7 -93 -48q-58 -38 -98 -42q-84 -53 -201 -53q-154 0 -337 87l-102 89q-62 58 -66 112q-32 73 -32 157q0 75 28 128q-1 45 33 99l64 88q228 204 451 204q71 0 141 -22l29 -18q16 3 36.5 -15.5t34.5 -18.5q136 -96 136 -295q0 -82 -24 -164 q-21 -73 -81 -138q-63 -68 -135 -90q-16 -5 -32 -5q-41 0 -84 32q-6 6 -21 34q-11 22 -27 28q-48 -46 -70 -61q-42 -30 -83 -30q-19 0 -38 6q-46 15 -79 58t-37 92q-7 87 48 170q48 72 130 125q37 23 83 23q35 0 71 -13q27 -23 36 -23q5 0 10 2q15 36 65 36q14 0 32 -3 q7 -12 7 -28q0 -25 -15 -46q-5 -32 -42 -161q-29 -98 -24 -165q1 -20 37 -34q46 -5 91 30q23 19 69 74q70 121 70 244q0 103 -56 172q-121 150 -284 150q-41 0 -81 -11q-131 -36 -233 -122q-111 -92 -153 -215q-23 -65 -23 -133q0 -144 91 -241q119 -125 330 -125 q129 0 250 46q20 8 104 63q78 51 86 51q21 0 21 -20zM596 377q-15 39 -61 39q-7 0 -14 -2q-68 -26 -94 -73q-44 -78 -57 -108q-29 -65 -29 -117q0 -45 22 -84q38 -24 56 -23q48 3 92 54q23 26 62 92q34 107 34 154q0 36 -11 68z" />
<glyph unicode="A" horiz-adv-x="773" d="M805 27q-4 -20 -28 -20q-6 0 -17.5 1t-16.5 1t-9 -1l-187 -4q-14 3 -14 23q7 14 38 17q28 2 32 25q-1 23 -20.5 64t-20.5 66q-11 9 -16.5 38t-25.5 37q-67 3 -133 3t-130 -3q-26 -30 -47 -90q-24 -71 -36 -93q10 -41 74 -60l4 4q2 -3 8.5 -9t6.5 -9q-19 -11 -75 -13 q-27 -4 -82 -2.5t-82 -3.5q-18 5 -14 37q12 7 56 21q37 12 56 27l67 151q39 91 74 148q0 19 14 55.5t15 56.5q19 26 37 79q19 60 32 81q4 33 37 87q6 2 12 2q32 0 48 -24q8 -34 15 -68q9 -38 29 -63q8 -30 30.5 -89t29.5 -90q30 -52 75 -179q42 -118 79 -174q5 -8 20.5 -7.5 t20.5 -2.5zM487 307q12 7 12 17q0 7 -7.5 20t-8.5 19q-11 32 -23 63q-14 37 -29 60q-5 23 -37 79q-22 2 -33 -26q-13 -35 -23 -41q1 -30 -24.5 -79t-25.5 -76q0 -8 2 -17q27 -15 66 -15q13 0 39.5 2t39.5 2q29 0 52 -8z" />
<glyph unicode="B" horiz-adv-x="700" d="M706 169q2 -82 -131 -146q-21 -10 -58 -14q-47 -5 -60 -9q-44 4 -98 4q-46 0 -141 -4t-143 -4q-15 9 -15 26q0 8 5.5 17.5t23.5 9.5q37 0 33 -1q6 -5 12 -5q8 0 19 13t15 15q4 101 4 287t4 288q-12 15 -52 15h-13h-12q-45 0 -45 26q0 11 6 28q13 11 32 11q9 0 27 -3.5 t27 -3.5q8 0 14 2l382 -10q53 -14 94.5 -62t41.5 -102q0 -50 -34 -98q-16 -22 -46 -40l-48 -31q0 -24 28 -38q42 -21 47 -26q82 -67 82 -128q0 -9 -1 -17zM550 459q7 32 7 63q0 68 -34 110q-11 3 -32 17t-34 16q-11 -4 -25 -4t-44 5t-43 5q-48 0 -57 -48q-16 -93 -12 -224 l8 -6q38 -8 84 -8q62 0 126 14q23 21 30 28q18 17 26 32zM583 250q-9 11 -18.5 24t-8.5 25q-46 34 -124 39q-66 3 -133 5l-15 -6l-4 -225q-2 -5 -2 -11q0 -12 12 -27q9 -13 19 -26q20 1 55 0q47 -1 59 -1q64 0 100 16q64 27 64 117q0 14 -2 36q-1 27 -2 34z" />
<glyph unicode="C" horiz-adv-x="656" d="M680 584q-8 -9 -16 -9q-9 0 -24 14.5t-24 15.5l-84 52q-51 32 -93 27q-25 8 -55 8q-69 0 -127 -37q-107 -101 -107 -294q0 -34 3 -74q20 -83 22 -88q15 -49 40 -80q73 -94 206 -94q49 0 93 17q95 36 125 93q3 1 14 8q8 5 15 3q4 -8 4 -17q0 -16 -19 -50 q-107 -102 -259 -102q-29 0 -58 5q-14 7 -62 19q-40 10 -59 28q-20 7 -44 28q-21 18 -41 37l-56 92q-31 56 -27 101q-8 33 -8 68q0 122 95 262q18 1 32 24t28 28q100 78 208 78q55 0 106 -22q19 -11 42 -11q38 0 85 30q42 -12 42 -87q0 -6 -1 -17v-17q0 -26 4 -39z" />
<glyph unicode="D" horiz-adv-x="777" d="M787 324q-6 -134 -108 -234q-49 -49 -122 -69q-56 -16 -141 -18q-72 -2 -144 -3q-50 3 -100 3t-101 -3l-14 8q-6 4 -6 11q0 3 1 6q11 17 42 17q4 0 11 -1h10q32 0 41 20q14 41 14 92q0 32 -6 67q6 79 2 216.5t2 209.5q-18 19 -56 27q-5 0 -17.5 -3.5t-19.5 -3.5 q-11 0 -19 7q-12 11 -12 23q0 6 4 10l14 15q19 -2 50 1q38 3 48 3q19 0 33 -4q23 -2 51 -2q23 0 70 2t70 2q99 0 160 -31q21 2 50.5 -17.5t47.5 -19.5q79 -50 117 -145q33 -84 28 -186zM636 164q44 88 44 195t-44 188q-70 126 -262 126q-35 0 -73 -4q-13 -7 -33 -29l-4 -409 q-1 -74 1 -92q4 -53 26 -87q54 -4 93 -4q193 0 252 116z" />
<glyph unicode="E" horiz-adv-x="721" d="M746 120q-12 -20 -20 -52q-7 -27 -13 -53q-32 -20 -81 -20q-16 0 -49.5 2.5t-50.5 2.5l-336 -4l-11 8q-14 0 -43 -2.5t-43 -2.5q-34 0 -55 11q-2 4 -2 7q0 12 17 16h50q27 3 39 31q15 15 15 39q0 10 -4 37q-4 24 -3 37q0 49 4 154t4 158q0 88 -8 155q-9 29 -48 29 q-6 0 -16 -1h-16q-33 0 -33 28q0 6 1 14q20 8 65.5 2.5t67.5 4.5l68 -7l205 6q127 3 207 1q26 -19 36 -68q12 -63 20 -78q-8 -24 -22 -24q-3 0 -5 1q-87 104 -239 121q-115 0 -150 4q-11 -2 -21 -16l-20 -25q2 -42 -2 -122t-2 -121l16 -15q109 0 130 3q70 12 97 63q2 4 5 31 q3 18 18 26q13 0 16.5 -11.5t5.5 -22.5l-8 -239q-14 -9 -19 -8q-15 64 -70 116q-64 19 -179 11q-23 -40 -23 -93q0 -24 6 -73t6 -74q0 -15 -1 -28q13 -37 58 -46l81 -6q114 -2 185 20q98 31 143 111q2 0 9 2q6 1 10 0q11 -14 11 -28q0 -6 -3 -12z" />
<glyph unicode="F" horiz-adv-x="656" d="M685 559q-24 -1 -58.5 36t-58.5 39q-27 23 -78 33q-43 7 -86 15q-13 -4 -37 -4q-6 0 -19 1h-19q-65 0 -85 -34q-8 -103 -8 -246l23 -22l124 2q68 9 100 58q5 21 25 58l13 -6l4 -262q-3 -6 -13 -14q-16 6 -22 30q-6 20 -11 40q-17 36 -61 52q-40 9 -80 19q-27 -3 -53 -5 q-34 -3 -45 -22q-7 -34 -7 -82q0 -29 3.5 -87t3.5 -85q8 -35 49 -35q6 0 18 1t18 1q27 0 38 -14q1 -4 1 -7q0 -8 -8 -11t-16 -5q-22 1 -45 1q-28 0 -80.5 -2.5t-77.5 -2.5q-53 0 -96 8q-2 1 -2 21q10 9 26 9q7 0 21 -2t20 -2q23 0 32 22l13 29q1 110 -3 286q-5 239 -5 287 q-9 18 -38 18q-6 0 -18.5 -1t-17.5 -1q-33 0 -28 36q19 11 48 11q13 0 37 -2.5t35 -2.5q17 0 29 4q6 4 13 4q4 0 14 -3t15 -3h407q25 -17 31 -65q9 -65 15 -78v-15z" />
<glyph unicode="G" horiz-adv-x="733" d="M741 291q-8 -9 -23 -9q-4 0 -12.5 1t-12.5 1q-22 0 -27 -26q0 -26 -3 -83.5t-3 -86.5q0 -39 4 -69q-7 -10 -15 -10q-7 0 -20.5 10t-21.5 11.5t-17 1.5q-18 0 -41 -12q-38 -20 -39 -20q-65 -17 -126 -17q-134 0 -229 84q-117 103 -117 278q0 91 34 178q32 83 108 143 t162 69q18 6 37 6q30 0 84 -20t79 -20q36 0 66 28q5 2 9 2q11 0 17 -12t11 -23q-2 -11 -2 -23q0 -19 7 -48q9 -34 10 -45q-4 -5 -27 -5q-74 63 -82 69q-48 36 -90 48q-58 4 -83 4q-108 0 -156 -56q-54 -63 -71 -161q-12 -67 -10 -188q7 -26 20 -79q17 -122 106 -170 q66 -36 99 -36q20 0 36 9q10 -3 20 -3q18 0 43 10l41 20q19 16 36 46q14 25 29 49q-2 13 1 41q4 32 4 44q0 47 -41 58q-10 -4 -21 -4q-14 0 -60 19q-5 13 15 23q89 1 266 -4q0 -1 5 -11q3 -6 1 -12z" />
<glyph unicode="H" horiz-adv-x="877" d="M881 681q-12 -11 -31 -11q-5 0 -15 1h-15q-20 0 -32 -9l-25 -44q-3 -111 0 -280l6 -278q10 -22 43 -22q5 0 14 1h14q34 0 37 -27l-15 -10h-303q-15 11 -2 33q9 4 24 4q7 0 22 -1.5t22 -1.5q35 0 44 28q-1 32 4 92q4 64 4 93q0 47 -8 85q-12 19 -42 19q-14 0 -31 -5 q-18 -1 -40 -1q-27 0 -83 2.5t-83 2.5q-58 0 -99 -8q-15 -36 -15 -96v-31q1 -21 1 -32q0 -31 -5 -53q-4 -7 -4 -17t5 -28.5t6 -26.5q16 -23 50 -23q6 0 20 1t20 1q16 0 26 -4q4 -4 4 -27q-18 -12 -41 -12q-13 0 -40.5 5t-41.5 5q-17 0 -31 -4l-90 -3q-54 -1 -88 3 q-12 11 -12 22q0 6 4 11q12 7 34 7h18q11 -1 17 -1q44 0 51 37q4 107 4 284v285q-15 23 -73 23q-50 1 -50 27q0 7 3 17q15 8 38 8q11 0 33.5 -2.5t33.5 -2.5q10 0 17 1q28 -7 104 -1q69 5 102 -9q12 -8 12 -18q0 -5 -4 -9q-8 -4 -64 -8q-39 -3 -52 -30q-15 -30 -15 -70 q0 -20 5.5 -63.5t5.5 -66.5q0 -18 -2 -34l18 -19h366l14 41q-1 23 0 62q2 53 2 65q0 62 -12 98q-12 18 -52 18h-15q-9 -1 -13 -1q-34 0 -34 17q0 12 12 32q40 -11 100 -11q22 0 66.5 2t66.5 2q48 0 81 -7q4 -3 4 -27z" />
<glyph unicode="I" horiz-adv-x="396" d="M401 698q-11 -25 -55 -25h-12q-47 0 -55 -31l-8 -48l4 -513q4 -38 44 -38h17q12 1 19 1q28 0 40 -15q-8 -31 -41 -31q-11 0 -35 5t-34 5q-6 0 -10 -2q-61 -3 -187 -10q-14 5 -17 8q-10 5 -12 15q8 24 55.5 29t58.5 29q-1 54 1 189q1 126 0 196q-2 109 -11 192 q-10 22 -42 22h-16q-11 -1 -16 -1q-36 0 -34 36q11 14 30 14q8 0 27 -4t28 -4q24 0 78 4q51 3 79 3q47 0 86 -7z" />
<glyph unicode="J" horiz-adv-x="472" d="M483 690q-12 -8 -31 -8q-6 0 -16.5 1t-15.5 1q-32 0 -45 -27q-6 -43 -9.5 -129.5t-9.5 -128.5l11 -35q-2 -183 -3 -197q-7 -112 -40 -183q-40 -89 -128 -135q-42 -22 -80 -22q-29 0 -51 14q-12 10 -18 29q-4 15 -9 31q3 13 16.5 23t25.5 18q22 2 59 -22t54 -24 q21 0 41 24q35 52 36 158v56q0 55 7 89q-4 109 0 415q-4 41 -43 41q-8 0 -24.5 -2t-23.5 -2q-34 0 -35 34l14 10q64 3 157 -1q75 -2 150 -5q16 -3 11 -23z" />
<glyph unicode="K" horiz-adv-x="830" d="M834 5q-20 -12 -54 -12q-13 0 -62 6l-197 4q-8 2 -8 10t-1 15q8 8 20 8q4 0 12.5 -1.5t12.5 -1.5q14 0 22 14q-14 41 -64 85q-62 57 -77 79q-16 9 -62 67q-35 46 -70 46q-6 0 -14 -1q-36 -19 -48 -55q-8 -24 -8 -72q0 -54 -4 -75q4 -9 4 -26v-27q2 -33 33 -32 q25 -1 50 -1q28 -3 40 -18q-12 -20 -39 -20q-5 0 -27 2q-17 1 -28 0q-14 -2 -31 -2q-15 0 -46 2t-47 2q-44 0 -73 -15q-3 4 -20 10q-13 5 -13 14q0 3 2 7q3 20 28 20q5 0 14 -1h14q15 0 23 4q25 10 26 40q1 42 5 50q-2 12 1 69q1 44 -9 68l8 31q-2 113 -8 340q-3 23 -31 28 q-24 2 -49.5 3t-25.5 16q0 11 12 30h299q15 -2 15 -19q0 -8 -4 -14q-14 -8 -65 -11q-40 -2 -54 -33q3 -22 3 -47q0 -34 -7.5 -100.5t-7.5 -98.5q0 -28 4 -53q5 -12 19 -12q10 0 14 8q60 49 144 130l145 136q1 6 6.5 18.5t5.5 19.5q0 11 -12 20q-8 11 -48 12q-34 2 -34 22 q0 7 3 16q9 11 24 11q6 0 17 -2t17 -2q12 0 21 8q24 -9 57 -9q17 0 50.5 3t50.5 3q47 0 77 -20q3 -19 -11 -29q-14 3 -29 3q-51 0 -111 -48l-95 -80q-25 -31 -76 -74q-55 -46 -77 -71q11 -25 49.5 -59.5t49.5 -57.5l73 -72q44 -45 62 -79q93 -100 177 -100q12 0 25 2 q12 -6 12 -31z" />
<glyph unicode="L" horiz-adv-x="685" d="M693 178q2 -25 -17.5 -68.5t-17.5 -70.5q-3 -3 -8 -23q-4 -16 -17 -15q-63 3 -137 3q-54 0 -162.5 -2t-165.5 -2q-55 0 -104 1q-12 3 -19 19q8 11 35 11q32 0 40 3q16 0 26 17q2 4 11 29q4 35 4 82q0 40 -3 106l-5 97q5 34 5 77q0 24 -4 98q-3 62 -1 101q-5 26 -32 32 q-24 1 -47.5 3t-23.5 17q0 10 8 27q48 -5 119 -5h56q84 0 134 -8q4 -3 4 -10v-13q-13 -14 -38 -14q-6 0 -17 1t-17 1q-34 0 -44 -31q-4 -94 -4 -282.5t-4 -282.5q1 -11 11 -24q13 -17 16 -22q42 -3 79 -3q237 0 317 151q7 4 11 4t12 -4z" />
<glyph unicode="M" horiz-adv-x="940" d="M947 21q1 -13 -15 -18q-24 -7 -27 -9q-45 4 -145 3q-95 0 -145 5q-10 19 -9 23q12 7 60 8q34 1 48 21q9 42 9 109q-1 94 0 109q-4 36 -4 80q0 24 3 105q2 67 1 110q-8 12 -19 5q-20 -24 -32.5 -84.5t-36.5 -84.5q-6 -33 -56 -158q-20 -89 -56 -159q-7 -30 -15 -60 q-10 -36 -43 -32q-31 52 -66.5 164t-64.5 162q-1 4 -31 92q-19 56 -37 91q-11 41 -14 49q-11 26 -30 34q0 -398 2 -461q1 -27 24 -51q1 -1 45 -38q16 -2 33.5 -5t22.5 -18l-13 -11q-113 3 -253 -10q-12 3 -14.5 13t-4.5 20q6 3 71 15q58 38 58 130q0 19 -4 73q-4 47 -2 73 q11 13 11 30q0 10 -5 30t-5 30q0 9 3 16v201q-17 18 -35 35q-21 20 -40 20q-9 0 -21 -5t-18 -5q-20 0 -32 22q5 28 23 33q39 -13 108 -9q77 5 108 -1q13 -14 21 -42q6 -24 13 -48q16 -52 57.5 -160.5t58.5 -165.5q9 -17 24 -64q12 -42 28 -62q-4 -28 18 -38q17 3 24 27 q7 30 18 38q4 35 27 94q24 64 29 93q46 117 59 153q31 88 47 160q27 25 84 23q74 -4 91 0q4 -1 30 0q18 1 26 -12q3 -5 3 -11q0 -10 -10 -23q-35 1 -71 1q-41 -3 -45 -42q-7 -74 -7 -216q-1 -151 -5 -220q5 -18 5 -57.5t4 -56.5q8 -30 32 -44q7 -2 53 -2q32 -1 49 -17z" />
<glyph unicode="N" horiz-adv-x="802" d="M812 700q-8 -20 -44 -28q-40 -9 -53 -22q-22 -23 -27 -65l-6 -72l6 -23q-1 -94 2 -243q6 -204 6 -239q-5 -11 -11 -22t-18 -9q-32 5 -53 31q-10 14 -30 55q-17 37 -33 53q-56 72 -163 221q-103 143 -163 219q-19 0 -23 -20q6 -69 2 -190t2 -188q-3 -65 46 -94 q35 -21 70 -27q14 -10 11 -29q-25 -11 -62 -11q-15 0 -44.5 2t-43.5 2t-25 -1q-7 2 -17 2q-9 0 -27.5 -3t-27.5 -3q-25 0 -40 16q-2 20 25 29q53 -3 87 42q16 40 16 114q0 13 -1 68q-1 41 0 65q-6 45 -2 151q4 97 -7 150q-11 34 -56 40q-50 6 -62 20q0 30 25 34q17 -9 47 -9 q12 0 37.5 2t37.5 2q65 0 73 -52q21 -23 63 -95q36 -61 72 -91q6 -14 26.5 -41.5t25.5 -44.5q25 -25 93 -125q55 -79 104 -113l9 6l-4 438q-4 30 -35 48l-55 27q-3 -2 -7 -2q-14 0 -22 20l6 19q3 9 13 11h239q7 -2 18 -25z" />
<glyph unicode="O" horiz-adv-x="767" d="M769 263q-23 -115 -135 -220q-96 -71 -228 -71q-110 0 -194 52q-107 86 -139 187q-2 15 -13 56q-10 35 -10 56q0 15 4 29q17 240 158 326q103 63 226 63q66 0 121 -21q88 -23 168 -150q52 -82 52 -202q0 -52 -10 -105zM653 477q-21 41 -21 70q-25 67 -89 103 q-57 33 -130 33q-150 0 -215 -136q-32 -141 -32 -231q0 -163 94 -246q58 -52 151 -52q67 0 123 29q124 77 124 286q0 29 -2 73q-3 59 -3 71z" />
<glyph unicode="P" horiz-adv-x="658" d="M669 605q12 -33 12 -70q0 -66 -35 -117q-63 -95 -220 -95q-36 0 -124 8q-12 -3 -24.5 -7t-19.5 -16l-8 -208q-3 -16 9 -29l24 -27q6 -1 15 -1q7 0 24 1t25 1q38 0 42 -28q-15 -23 -50 -19q-50 6 -150.5 2t-148.5 3q-19 14 -6 29t36 15q8 0 22.5 -2t21.5 -2q31 0 38 39 q-2 25 -2 54q0 45 6 133.5t6 133.5q0 29 -2 54q-3 14 -3 34q0 14 2.5 46t2.5 48q0 84 -68 95q-7 0 -19.5 -5.5t-22.5 -3.5q-11 7 -11 18q0 7 11 30q291 -8 426 -2q137 -35 191 -112zM553 597q-23 45 -78 61q-34 9 -101 9q-8 0 -27.5 3t-29.5 3q-35 0 -49 -31 q-15 -164 -6 -259l11 -15h136q82 3 129 33q26 42 26 108q0 44 -11 88z" />
<glyph unicode="Q" horiz-adv-x="761" d="M765 323q-2 -96 -50 -177.5t-133 -128.5q-21 -14 -74 -30q-49 -14 -72 -34q-1 -3 -1 -6q0 -18 22 -19q19 -1 66 -9q42 -7 66 -7q20 0 36 3q26 2 59 21q50 30 54 31q7 -5 7 -14l-10 -29q-93 -103 -180 -103q-21 0 -42 5.5t-78 41.5q-49 31 -79 31q-21 0 -40 -13 q-54 -72 -103 -72q-12 0 -24 4q-30 19 -30 50q0 13 7 25q28 24 107 30q75 6 103 38q-21 29 -89 33q-129 48 -177 150q-60 70 -60 187q0 57 15 120q23 102 101 180t179 103q16 0 56 5q36 4 56 4q53 0 117 -36l105 -69q30 -26 48 -86q20 -67 38 -90q0 -15 3.5 -47.5t3.5 -48.5 q0 -26 -7 -43zM657 350l-12 117q-10 70 -34 111q-30 50 -81.5 80.5t-109.5 31.5l-53 -6q-29 -3 -51 -13q-128 -53 -141 -270q-3 -36 -3 -66q0 -206 121 -293q53 -25 114 -25q24 0 48 4q10 -2 19 -2q28 0 58 28q43 39 54 45q36 46 50 122z" />
<glyph unicode="R" horiz-adv-x="762" d="M765 35q8 -25 -9 -32q-18 1 -54 -2q-40 -3 -58 -3q-65 0 -97 28q-25 67 -83 154l-96 145q-27 14 -61 14q-36 0 -55 -18q5 -13 5 -29q0 -13 -5 -39.5t-5 -38.5q0 -20 9 -34q5 -13 1 -78q-3 -47 28 -63l50 -1q32 0 43 -16q-2 -6 -14 -21q-48 2 -118 0q-86 -3 -109 -3 q-45 0 -81 3q-13 10 -10 25q12 9 67 12q41 2 49 38v281l7 10q-8 55 -7 131v131q-5 31 -39 37q-29 2 -57.5 5.5t-23.5 36.5q20 11 46 11q13 0 40.5 -5t41.5 -5q16 0 30 5q31 -2 261 -2q64 -10 115 -42q58 -36 83 -89q7 -25 7 -51q0 -61 -36 -97q-63 -61 -146 -76 q-12 -6 -12 -19q0 -8 4 -19q24 -40 78 -115q57 -81 80 -117q17 -29 60 -37q66 -13 71 -15zM559 539q-9 12 -21 50q-10 33 -29 48l-48 29q-12 -4 -30 -4q-16 0 -52 5t-53 5q-59 0 -70 -54v-243l81 -4l108 6q62 8 79 54q19 15 19.5 54t15.5 54z" />
<glyph unicode="S" horiz-adv-x="561" d="M564 128q-44 -105 -116 -121q-50 -29 -110 -29q-61 0 -110 29q-5 1 -35 10q-22 6 -36 6q-20 0 -35 -11q-21 -30 -35 -30q-7 0 -13 5q-23 27 -25 85q-3 76 -8 93q17 21 41 4q26 -44 78 -78q8 -6 92 -52q14 -1 39 -9.5t37 -8.5t22 5q98 0 139 69q15 25 15 56q0 40 -23 79 q-26 35 -76 58l-88 35q-175 31 -243 146q-11 46 -11 86q0 96 67 142q11 -1 25 13.5t23 15.5q35 18 81 18q53 0 133 -26q21 3 41 7q25 6 38 20q4 1 9 1q29 0 32 -24q-3 -24 5 -62q9 -43 9 -59q0 -13 -4 -24q-23 10 -106 73q-63 48 -114 49q-116 2 -162 -66q-10 -50 -10 -63 q0 -23 10 -39q43 -47 112 -78q28 -12 128 -44q80 -26 124 -53q67 -50 67 -156q0 -34 -7 -72z" />
<glyph unicode="T" horiz-adv-x="677" d="M723 541q-5 -3 -9 -3q-12 0 -27 19l-24 31l-63 44q-36 23 -68 27q-36 24 -85 12l-27 -27l4 -149q-10 -11 -10 -20t10 -17q-4 -50 -4 -109q0 -49 3 -136q4 -99 5 -140q8 -30 53 -30h17q12 1 17 1q44 0 44 -35q-40 -11 -97 -11q-21 0 -63 2t-62 2q-45 0 -77 -8h-34 q-18 1 -22 19q-5 18 14 33q11 1 32.5 -1.5t30.5 -2.5q32 0 49 23q0 70 4 201.5t4 194.5q0 107 -8 196q-14 14 -37 14q-10 0 -33.5 -4.5t-35.5 -3.5q-51 -5 -98 -54q-15 -15 -72 -91q-9 -3 -17 1.5t-10 12.5l12 80q9 45 25 74q-3 21 11 29q73 7 252 2q162 -5 252 11 q13 -6 50 -8t50 -10q21 -13 17 -47q1 -25 11 -62q14 -51 16 -60z" />
<glyph unicode="U" horiz-adv-x="843" d="M853 709q5 -31 -29 -43q-46 -16 -54 -26q-29 -37 -33 -99q-2 -29 3 -115q5 -72 -3 -110q6 -34 6 -68q0 -59 -21 -127q-22 -73 -145 -135q-73 -19 -139 -19q-149 0 -231 94q-53 61 -53 197v36v34q0 41 -3 69q0 23 3 73.5t3 76.5q0 64 -14 106q-11 14 -61 14q-43 1 -43 27 q0 6 2 15q16 14 52.5 9t49.5 1q27 -6 87.5 -2t88.5 -2q21 9 56 -6q0 -42 -18 -42q-25 4 -41 4q-44 0 -61 -22q-7 -61 -7 -140q0 -47 3.5 -144t3.5 -146q7 -60 37 -108q33 -53 85 -75q44 -12 89 -12q137 0 204 97q35 73 35 180q0 34 -4.5 102t-4.5 101q0 36 3 66q-8 8 -9 24 q0 23 -1 26q-15 26 -49 36q-28 8 -57 15q-12 4 -12 18q0 8 6 24q10 12 32 12q11 0 38 -6q10 1 53 3q35 2 58 2q62 0 95 -15z" />
<glyph unicode="V" horiz-adv-x="788" d="M807 674q-13 -14 -44.5 -16.5t-44.5 -21.5q-59 -45 -75 -151q-14 -7 -15.5 -29t-7.5 -27q-39 -99 -126 -293q-6 -19 -25 -62q-16 -37 -21 -61q-2 -2 -11 -26q-6 -16 -18 -20q-14 -2 -23.5 9t-18.5 23q-7 8 -18 56q-4 13 -25 55q-18 34 -17 59q-28 54 -89 224 q-32 47 -60 148l-48 89q-34 48 -87 42q-11 5 -11 33q27 8 53 8t51 -8q108 12 181 4l6 -17q-1 -26 -47 -26t-46 -27q0 -9 4 -21q15 -19 30 -68t34 -70q-3 -14 9 -32q14 -21 14 -32q15 -43 57 -139q38 -89 55 -141q18 -18 29 -15q20 24 23 48q27 52 63 148q40 107 60 149 q0 24 22 61.5t23 61.5q5 10 5 21q0 42 -42 53q-4 0 -24 -1q-13 -1 -21 1q-11 2 -20 11q0 31 15 35q19 -1 41 -1q25 0 72.5 2t69.5 2q33 0 58 -3q14 -11 14 -24q0 -6 -4 -11z" />
<glyph unicode="W" horiz-adv-x="1096" d="M1129 663q-45 -12 -60 -19q-32 -16 -46 -45q-27 -62 -73 -204q-44 -135 -76 -203l-33 -112q-20 -66 -42 -108q-8 -5 -16 -5q-14 0 -25 11.5t-11 26.5l-45 170q-28 96 -63 162q-4 21 -25 71q-18 44 -21 72q-10 11 -14 11q-33 -56 -61 -152q-40 -139 -47 -158l-56 -168 q0 -32 -23 -41q-6 -3 -12 -3q-20 0 -40 40q0 2 -22 90q-13 54 -34 87q-25 62 -64 193q-16 43 -52.5 128.5t-51.5 128.5q-9 14 -52 22q-37 7 -37 28q0 9 6 23l16 10l239 -4q18 -5 18 -25q0 -6 -3 -12q-8 -10 -39 -13q-26 -2 -32 -20q10 -53 36 -128l43 -126 q18 -15 22.5 -56.5t21.5 -55.5q0 -17 13 -42.5t14 -40.5q6 -19 24 -52h17q33 74 44 131q9 10 14.5 37t16.5 38q3 30 30 103q25 68 25 104q0 59 -53 98q-2 1 -34 6q-20 3 -28 17q-2 4 -2 9q0 18 20 28l247 -4q19 -7 7 -37q-7 -5 -40 -8q-25 -2 -35 -21q-2 -6 -2 -12 q0 -10 11.5 -24t13.5 -20q17 -65 102 -308q14 -84 52 -137q25 32 45 90q27 78 36 97q3 39 31 104.5t33 101.5q1 8 9.5 32t8.5 36q0 18 -14 31q-9 13 -36 19t-32 23q3 12 16 33h208q19 -4 19 -27q0 -13 -7 -21z" />
<glyph unicode="X" horiz-adv-x="807" d="M810 11q-21 -16 -52 -16q-11 0 -33.5 3t-34.5 3t-23 -3q-9 1 -159 6q-6 4 -4 12q3 15 3 13q9 6 23 6q6 0 18.5 -1.5t17.5 -1.5q20 0 26 18q-58 85 -183 252q-28 -3 -52 -39q-31 -46 -45 -55q-6 -18 -44 -63q-33 -39 -33 -64q0 -21 19 -41q6 -5 20 -5q5 0 16.5 1t16.5 1 q27 0 23 -26l-20 -13h-266q-12 15 -12 25q0 8 8 13q74 4 135 58q38 33 99.5 118.5t97.5 118.5q-22 57 -80 127l-99 114q-45 56 -46 57q-29 29 -60 36q-23 -10 -56 6q-18 15 -2 42l11 10q68 3 157 -1q145 -5 152 -5l8 -8q2 -5 2 -10q0 -26 -29 -32q-26 5 -35 5q-25 0 -31 -19 l4 -19q5 -6 76 -98q47 -60 70 -104q5 -5 29 -10l124 168l11 44q-9 33 -45 33q-8 0 -23.5 -1.5t-21.5 -1.5q-33 0 -29 40q21 16 55 16q13 0 38.5 -2.5t36.5 -2.5q13 0 22 2l16 6l146 -2q18 -7 18 -27q0 -8 -4 -14q-15 -17 -44 -17q-4 0 -14 1h-14q-15 0 -25 -3 q-38 -24 -75 -65l-62 -74q0 -14 -19 -28t-23 -24q-3 -6 -30 -38q-20 -23 -20 -41q0 -9 4 -19l252 -318q9 -1 34 -11q21 -9 34 -9q6 0 13 2q15 -12 12 -25z" />
<glyph unicode="Y" horiz-adv-x="752" d="M785 684q-6 -24 -33 -34l-46 -16q-55 -61 -111 -164l-94 -173q-1 -13 -14.5 -33t-14.5 -29l4 -172q16 -35 61 -35q5 0 30 1q19 2 31 0q18 -13 4 -27l-12 -10q-218 0 -318 -12q-6 4 -21 4q-14 10 -14 24q0 5 2 9q11 15 35 15q8 0 24.5 -2t24.5 -2q33 0 43 31q0 22 6.5 67 t6.5 66q0 53 -28 91q-38 53 -109 171q-69 113 -111 169q-12 16 -65 20q-45 4 -45 30q0 6 2 13q13 18 54 17q56 -2 62 -1l187 -4q11 -5 11 -17t-9 -24q-2 -1 -39 -5q-24 -3 -31 -18q6 -33 34 -79q37 -57 45 -75q10 -12 23 -36q14 -27 24 -39q38 -84 83 -95q100 144 154 295 q-5 26 -51 39q-42 12 -42 31q0 10 6 23q75 13 241 4q-3 -6 1.5 -10t8.5 -8z" />
<glyph unicode="Z" horiz-adv-x="624" d="M639 689q-64 -81 -183 -247q-10 -26 -41.5 -65t-41.5 -62q-21 -32 -72 -93q-47 -56 -69 -94q-4 -12 -31.5 -37.5t-27.5 -44.5q0 -8 3 -15h159q97 1 154 22q77 30 117 104q14 3 27 -10l-18 -52q-11 -32 -9 -56q-13 -4 -15.5 -23t-17.5 -19h-520q-11 3 -11 16q0 11 7 22 q52 57 55 61q29 36 43 70l243 328l57 78q31 47 32 86q-55 6 -99 6q-192 0 -287 -114q-9 2 -19 14l23 83q15 48 50 61q30 -5 108 -4q69 0 108 -9q123 16 247 13q4 -5 15.5 -8.5t13.5 -10.5z" />
<glyph unicode="[" horiz-adv-x="299" d="M319 -17q3 -26 -29 -38q-16 -1 -47 3q-34 5 -47 5q-22 0 -37 -8q-7 0 -23.5 -2t-24.5 -2q-26 0 -35 19q-1 16 -1 36q0 24 2.5 71.5t2.5 70.5q0 34 -4 61q-1 58 2 161q4 110 4 157q0 165 -29 280q1 20 1 40q3 25 22 28q104 -4 164 -14q8 7 20 7q8 0 22 -3.5t18 -3.5 l10 -10q6 -6 6 -11q0 -3 -1 -6q-14 -18 -40.5 -19.5t-50.5 -2.5q-39 -1 -51 -26q2 -8 2 -16q0 -18 -7.5 -52t-7.5 -50q0 -22 9 -40q-6 -36 -1 -126q4 -80 -9 -125q7 -56 6 -176q0 -115 8 -175q15 -19 40 -19q11 0 39 6q24 4 38 3q22 -3 29 -23z" />
<glyph unicode="\" horiz-adv-x="395" d="M401 -55q-53 4 -99 94q-28 54 -77 204q-51 156 -84 225q4 9 4 19q0 21 -16 54l-27 50q-69 139 -69 204q0 42 26 42q36 -17 57 -47q9 -37 39.5 -119t40.5 -124q2 -4 10 -14.5t8 -15.5q0 -4 -5 -7q25 -79 83.5 -232.5t83.5 -231.5q34 -58 34 -79q0 -14 -9 -22z" />
<glyph unicode="]" horiz-adv-x="362" d="M292 8q-1 -3 -1 -8q0 -4 1.5 -13t1.5 -14q0 -14 -13.5 -20.5t-30.5 -6.5t-49.5 8t-49.5 8q-18 0 -34 -6q-31 -12 -45 8q-5 29 14 33q29 -4 90 -4q32 33 32 97q0 14 -1.5 42.5t-1.5 43.5q0 17 2 31q0 1 6 35q5 23 5 39q0 30 -15 49q6 55 6 120q0 49 -6 166q-6 105 -5 167 q-12 25 -46 25q-8 0 -26.5 -2t-27.5 -2q-27 0 -41 16q-1 4 -1 8q0 8 8 14t16 11q24 -7 52 -7q19 0 57 4.5t59 4.5q15 0 29 -2q20 -15 20 -45q0 -16 -9 -57q1 -39 1 -85q0 -49 -2.5 -145.5t-2.5 -146.5q0 -46 2 -86q7 -4 7 -11q0 -4 -3.5 -13t-3.5 -13q4 -40 2.5 -121 t3.5 -122z" />
<glyph unicode="_" horiz-adv-x="647" d="M677 -31q1 -37 -165 -37q-45 0 -59 4q-105 -4 -192 -4q-228 0 -232 27q-5 34 168 34q54 0 178.5 -4t179.5 -4q59 0 97 3q9 -4 25 -19z" />
<glyph unicode="`" horiz-adv-x="277" d="M388 514q-12 -13 -25 -13q-15 0 -48 22q-39 27 -63 35q-64 22 -77 28q-42 21 -42 51q0 17 13 37q19 30 45 30q40 0 109 -88q15 -19 59 -51q34 -25 34 -38q0 -6 -5 -13z" />
<glyph unicode="a" d="M507 86q4 -8 4 -15q0 -14 -17 -35q-21 -26 -24 -33q-34 -14 -79 -11q-10 5 -30 32q-16 22 -30 22q-9 0 -19 -6q-54 -49 -131 -49q-45 0 -81 20q-51 28 -51 98q0 10 1 20q43 80 143 98q8 2 75 17q45 10 71 24q-1 43 -3 85q-5 47 -35 69q-29 15 -74 2l-48 -59 q-30 -35 -61 -35q-6 0 -12 1q-23 10 -41 31q-2 7 -2 14q0 32 30 56q9 6 59 34q85 12 122 12q26 0 50 -4l52 -23q42 -50 42 -133q0 -27 -5.5 -83.5t-5.5 -83.5q0 -37 6 -65q33 -33 44 -33q8 0 17 6zM335 204l-9 13q-97 -12 -145 -50q-26 -35 -23 -90q10 -16 31 -29 q17 -6 34 -6q54 0 107 62z" />
<glyph unicode="b" horiz-adv-x="493" d="M525 204q-11 -71 -55 -128q-47 -61 -113 -77q-28 -7 -55 -7q-71 0 -111 44q-6 2 -12 2q-13 0 -31 -19.5t-34 -15.5q-1 7 -8.5 23t-7.5 24q0 10 8 19q3 44 3 114q0 96 1 115q5 7 5 16q0 7 -3 20.5t-3 20.5q0 13 7 22l-6 18l4 212q-7 12 -41 28q-29 13 -29 30q0 9 6 21 q18 4 66 40q45 33 66 33q28 0 44 -40q-2 -23 -16 -73.5t-14 -77.5q0 -14 3 -27q-4 -25 -4 -38q0 -36 23 -48q49 25 108 25q62 0 106 -29q93 -80 93 -247zM405 372q-19 40 -67 52q-29 7 -87 4q-32 -1 -43 -30q-6 -27 -13 -55q4 -16 4 -39q0 -25 -8 -81t-8 -82q0 -93 87 -105 q14 -5 28 -5q36 0 88 38q47 83 47 174q0 69 -28 129z" />
<glyph unicode="c" horiz-adv-x="408" d="M423 92q8 -24 -8 -41q-64 -68 -156 -68q-36 0 -71 12q-60 13 -102 70q-37 52 -47 117q2 109 10 142q18 76 83 111q41 38 112 38q60 0 115 -26q47 -28 54 -56q3 -13 -12 -28l-24 -22q-10 -2 -18 -2q-30 0 -63 46.5t-62 46.5q-14 0 -31 -7q-90 -53 -90 -196q0 -23 3 -47 q53 -143 153 -146q13 -3 25 -3q30 0 67 24q49 30 62 35z" />
<glyph unicode="d" horiz-adv-x="534" d="M536 19q-21 -18 -65 -23q-58 -6 -70 -11l-52 29q-44 -25 -95 -25q-50 0 -92 25q-53 32 -84.5 86.5t-31.5 115.5q-2 13 -2 26q0 113 105 196q48 28 108 28q59 0 117 -26l8 9q-5 10 -5 26q0 14 5 45t5 45q0 50 -55 48q-10 5 -19 11q-12 9 -12 20q0 5 2 10q-2 13 8.5 20 t20.5 13q24 3 63 29q36 25 59 25q7 0 13 -2l19 -25q-19 -240 -29 -546q4 -11 4 -28q0 -7 -1 -22t-1 -22q0 -36 23 -48l34 -6q18 -6 20 -23zM382 160l-4 222q-45 45 -101 45q-33 0 -57 -20q-18 -16 -37 -31q-21 -21 -21 -44q-23 -49 -23 -109q0 -99 56 -163q48 -34 103 -34 q16 0 32 3q3 3 28 17q17 10 20 25q6 12 2 44t2 45z" />
<glyph unicode="e" horiz-adv-x="438" d="M449 66q-52 -84 -171 -84q-22 0 -43 3q-74 21 -126 85t-57 140q-4 63 22 122q30 64 86 94q41 46 113 46q46 0 84.5 -21t55.5 -58l24 -49q14 -29 14 -52q0 -10 -2 -20l-23 -10q-2 0 -135 5q-80 3 -131 1q-15 -14 -15 -39q0 -10 4 -37q4 -23 3 -36q55 -116 128 -119 q16 -2 31 -2q74 0 119 54q7 2 14.5 -3t7.5 -11q0 -5 -3 -9zM355 343q-5 7 -10 32q-4 20 -17 28q-38 22 -72 22q-20 0 -36 -8l-36 -35q-22 -22 -22 -44q0 -8 2 -16q21 -16 58 -19h60q63 0 73 40z" />
<glyph unicode="f" horiz-adv-x="368" d="M392 695q3 -30 -16.5 -52.5t-48.5 -22.5q-15 0 -43.5 8.5t-38.5 8.5q-28 0 -35 -37q0 -36 7 -79q6 -35 11 -71q7 -13 21 -17l27 -6q16 14 60 4q12 -9 5 -31q-11 -11 -28 -11q-8 0 -22.5 2.5t-20.5 2.5q-23 0 -31 -23l-4 -295q1 -10 11 -19.5t19 -16t23 -6.5q4 0 13 1h12 q26 0 32 -23q-11 -11 -37 -14q-41 -5 -42 -5q-27 4 -70 3h-70q-33 2 -55 8q-2 4 -2 7q0 10 24 20q8 -2 15 -2q31 0 46 24q1 44 -1 116q-2 92 -2 120q0 47 3 86q-10 19 -34 19q-7 0 -22 -2.5t-21 -2.5q-26 0 -29 30q12 11 38 11h12h12q33 0 44 20q0 47 1 94q2 55 16 89 q17 45 57 70q50 32 95 32q48 0 69 -40z" />
<glyph unicode="g" horiz-adv-x="567" d="M572 440q0 -26 -1 -31q-4 -16 -20 -21q-5 -1 -11 -1q-12 0 -34 8.5t-31 8.5q-15 0 -25 -16q20 -51 20 -86q0 -33 -16 -59q-57 -91 -227 -91q-23 0 -66 2q-1 -2 -10.5 -12t-9.5 -17q0 -3 1 -7q33 -18 89 -28q48 -7 96 -15q130 0 174 -83q12 -21 12 -50q0 -41 -22 -67 q-70 -67 -199 -67q-107 0 -198 42q-38 29 -45 48q-4 11 -4 21q0 30 27 54q5 7 39 24q24 13 25 32q-5 4 -56 27q-6 12 -6 24q0 43 49 70q10 0 18.5 8t8.5 16l-37 44q-19 22 -29 44l2 93l50 67q62 47 145 47q86 0 139 -54q20 1 51.5 22.5t48.5 25.5l31 -7q16 -3 21 -16z M352 231q12 35 12 69q0 60 -37 103q-37 20 -73 20q-9 0 -18 -1q-33 -20 -52 -63q-7 -23 -7 -50q0 -47 19 -81q37 -50 94 -45q18 1 35 18zM454 -56l-42 25q-26 2 -91 21q-61 18 -94 18q-50 0 -85 -35q-19 -31 -19 -43q0 -9 5 -17q35 -63 133 -63q34 0 147 19q46 18 46 75z " />
<glyph unicode="h" horiz-adv-x="550" d="M548 8q-37 -13 -88 -13q-18 0 -49 2q-38 3 -50 3q-4 12 -4 19q4 3 30 9q19 4 22 20q8 44 8 97q0 32 -4 96.5t-4 99.5q-13 41 -44 51q-17 6 -33 6q-34 0 -77 -26q-68 -43 -71 -44q3 -21 3 -46q0 -28 -5 -82t-5 -81q0 -39 7 -71q8 -18 34 -21t35 -17l-17 -14h-174 q-6 5 -11 10t-4 13q17 8 34 18.5t22 28.5q18 266 2 509q-4 5 -8 22q-3 14 -12 20q-25 -3 -42 27v18l127 63q22 3 29 -19q-15 -108 -15 -328l9 -8l91 49q57 32 98 32q35 0 68 -21q42 -55 42 -135q0 -26 -5.5 -80.5t-5.5 -83.5q0 -39 7 -71q26 -35 45 -35q5 0 11 2 q11 -8 4 -19z" />
<glyph unicode="i" horiz-adv-x="269" d="M226 630q-10 -16 -31 -23l-34 -10q-42 21 -56 43q-1 7 -1 14q0 35 24 61q16 12 39 12q41 0 59 -30q17 -38 0 -67zM263 -1q-56 -9 -102 -9q-55 0 -97 13q-1 20 27.5 24.5t32.5 23.5q4 44 4 124t4 123q-16 45 -45 60q-27 -4 -29 15q0 25 30 38l51 22q3 1 28 14q17 8 28 8 q6 0 12 -2q9 -85 -8 -164q8 -23 8 -58q0 -17 -2.5 -52t-2.5 -52q0 -66 34 -99q14 2 27 -11v-18z" />
<glyph unicode="j" horiz-adv-x="334" d="M279 701q-2 -24 -3 -48q-6 -26 -33 -38q-10 -4 -20 -4q-26 0 -50 27q-12 11 -12 27q0 3 5 33q12 39 50 39q43 0 63 -36zM266 437q-3 -50 -3 -121v-71q1 -48 1 -72q0 -148 -17 -239l-42 -64q-27 -38 -61 -44q-17 -3 -30 -3q-50 0 -60 36q0 49 34 61q2 0 18 3q12 2 19 2 q21 0 29 -16q28 -3 28 23q0 4 -1 14t-1 15q0 13 5 19q0 22 3.5 64.5t3.5 64.5q0 31 -5 58q12 108 -2 178q-8 12 -38 23q-24 10 -24 26q0 5 2 12l68 35q40 19 69 21z" />
<glyph unicode="k" horiz-adv-x="550" d="M567 412q-6 -2 -24.5 -12.5t-29.5 -10.5q-6 0 -12 2q-27 -12 -87 -58q-53 -40 -90 -52q-5 -8 -5 -17q0 -15 16 -35l26 -33q24 -17 60 -62q39 -50 60 -67q37 -32 80 -35q8 -3 8 -13q0 -8 -4 -14q-35 -11 -83 -11q-21 0 -60 2.5t-56 2.5q-14 13 -11 21q1 0 17 17 q10 11 10 19q0 7 -8 13q-16 13 -60 76q-36 51 -75 61q-45 -16 -45 -64q0 -12 5 -45q4 -29 3 -42q1 -19 32 -24.5t31 -11.5q0 -7 -16 -20q-20 0 -60.5 -4.5t-61.5 -4.5q-34 0 -60 9q-18 13 -7 25q6 9 25.5 14.5t26.5 16.5q4 22 3 82q0 52 8 82q-4 120 -11 355q-15 24 -17 27 q-11 14 -24 17q-17 -3 -34 18q13 34 55 54l72 34q14 9 24 9q19 0 19 -40q0 -11 -1 -25q-23 -207 -13 -443q7 -4 14 -4q11 0 27.5 19t27.5 20q72 28 135 119q-5 10 -21 15l-25 8q4 31 32 31q5 0 17.5 -1.5t18.5 -1.5q13 0 21 5l117 4q14 -4 10 -27z" />
<glyph unicode="l" horiz-adv-x="288" d="M288 29q3 -15 -9 -21.5t-24 -11.5q-25 6 -91 1q-58 -4 -87 9q-4 22 27 34t31 35q5 48 5 110q0 50 -5 153.5t-5 156.5q0 43 3 80q-4 25 -41.5 35t-37.5 30q0 8 4 18q6 3 77 52q46 30 83 34l10 -15q-11 -122 -11 -288q0 -28 1 -175q1 -107 0 -177q5 -13 11 -27t18 -20 q29 0 41 -13z" />
<glyph unicode="m" horiz-adv-x="826" d="M824 25q3 -23 -15 -29l-168 4q-8 3 -8 14q0 9 4.5 15t22.5 8t22 15q12 56 12 138q0 33 -5 151q-8 40 -38 56q-86 -6 -98 -9q-56 -13 -80 -60q0 -25 -1 -86q0 -58 1 -88q1 -49 8 -83q5 -13 34 -30q25 -14 24 -31q-34 -13 -76 -13q-18 0 -57 3.5t-60 3.5q-8 3 -8 21 q65 15 65 94q0 17 -3.5 52t-3.5 51q0 12 2.5 34.5t2.5 33.5q0 66 -32 103q-21 8 -42 8q-34 0 -116 -40q-30 -30 -26 -96q5 -85 -1 -105q-4 -8 -4 -18t6.5 -34t5.5 -37q7 -31 38 -38q19 0 22 -8q-10 -30 -56 -25q-58 6 -70 0q-7 4 -19 4q-6 0 -17 -1t-15 -1q-25 0 -24 23 q3 3 28 18q18 10 24 23q0 10 4 29t4 28q0 11 -4 18q7 34 7 73q0 60 -15 122q-6 15 -35 25q-25 10 -25 23q0 6 4 15q2 1 69 43q41 25 72 25q3 -29 17 -83q95 74 183 74q23 0 43 -5l23 -32q13 -17 27 -24q29 -5 67 20q52 34 64 38q22 8 47 8q49 0 83 -29q32 -34 32 -95 q0 -18 -5 -66q-3 -42 -2 -63q6 -17 6 -42q0 -10 -1 -29.5t-1 -28.5q0 -71 57 -85z" />
<glyph unicode="n" horiz-adv-x="553" d="M552 7l-11 -8q-20 0 -66 -1q-43 0 -67 1q-36 1 -66 8q-4 5 -4 10q0 12 23 27q45 0 45 33q2 14 2 29q0 19 -5 58t-5 58q0 29 8 53q-3 35 -7 71q-8 38 -43 55q-17 7 -35 7q-29 0 -66 -16l-63 -30l-10 -17q4 -25 4 -56q0 -22 -2.5 -66t-2.5 -65q0 -61 16 -103q4 -13 34 -17 q26 -3 26 -15q0 -6 -4 -16l-9 -8l-187 4q-4 9 -4 16q0 8 4 17q38 7 49 41q8 21 5 69q-3 52 0 69q-4 15 -4 62q0 43 -8 63q-13 31 -48 41q-12 14 -12 26q0 6 4 11q23 4 68 31q41 25 67 25l8 -12q1 -4 1 -8q0 -8 -6.5 -25t-6.5 -24q0 -15 18 -22l91 60q53 32 96 32 q32 0 65 -17q47 -59 47 -176q0 -22 -2 -67t-2 -66q0 -54 9 -90q18 -8 36 -15q21 -10 21 -28q0 -4 -1 -9z" />
<glyph unicode="o" horiz-adv-x="492" d="M522 211q-10 -69 -47 -123q-40 -59 -102 -82q-20 -16 -55 -19h-58q-69 7 -126 62q-54 51 -75 121q-5 22 -5 45q0 68 42 152q87 101 192 101q28 0 56 -8q25 -4 54 -20l49 -32l42 -65q23 -39 23 -70q0 -14 -4 -29q-1 -5 6.5 -16t7.5 -17zM422 174q6 28 6 59q0 80 -32 137 t-109 57q-30 0 -56 -10q-80 -50 -80 -175q0 -54 16 -137q17 -58 93 -79q6 -3 13 -3q5 0 14 2t14 2q9 0 16 -7q53 14 89 75z" />
<glyph unicode="p" horiz-adv-x="516" d="M522 291q3 -44 3 -64q0 -68 -26 -112q4 -31 -27 -58q-44 -39 -48 -46q-35 -23 -80 -23q-56 0 -121 33l-13 -10q-3 -44 -3 -59q0 -65 34 -99q-10 1 34 1q20 0 29 -11q4 -18 -10 -24q-2 -2 -28 -7q-30 7 -96.5 2t-100.5 6q-3 9 -3 15q0 14 33 19.5t35 27.5q-1 32 -1 225 q0 136 -8 224q-5 19 -39.5 26t-34.5 24q0 8 4 18q64 46 135 79q10 -1 17 -14q9 -17 16 -21q41 23 94 23q35 0 78 -11q86 -54 127 -164zM424 106q9 117 9 128q0 70 -23 120q-10 20 -34 38l-41 26q-11 1 -22 1q-69 0 -98 -38l-6 -107q-3 -64 -1 -107q-1 -7 -10.5 -12t-9.5 -11 q0 -3 2 -6q14 -10 17 -31q0 -19 1 -38q10 -30 53 -40q2 -1 74 -8q26 9 49 37z" />
<glyph unicode="q" horiz-adv-x="492" d="M527 -161q-3 -8 -15 -18q-18 2 -39 2q-19 0 -57.5 -2.5t-57.5 -2.5q-39 0 -68 7q-3 19 17 27q6 -2 12 -2q31 0 46 31q9 24 9 64q0 78 -1 67q-10 11 -23 11q-12 0 -37 -16.5t-37 -17.5q-102 3 -169 64q-60 67 -60 171q0 36 8 72q0 41 32 81q9 12 66 69q46 28 100 28 q65 0 116 -39q4 -1 8 -1q15 0 39.5 25t31.5 25q12 0 19 -34q-19 -102 -14 -275q5 -204 -1 -275q2 -12 5 -25t14 -17l33 -4q17 -3 23 -15zM373 128q-1 30 0 77q2 63 2 76q0 81 -16 127q-17 19 -51 23l-57 4q-8 -10 -27.5 -13.5t-26.5 -8.5q-34 -31 -45 -85q0 -1 -11 -98 q-2 -13 -2 -25q0 -53 24 -98t65 -68q48 -5 60 -5q47 0 71 23q6 12 9 35q3 28 5 36z" />
<glyph unicode="r" horiz-adv-x="397" d="M415 383q-20 -32 -62 -32q-8 0 -17 1q-36 16 -73 16q-24 0 -43 -8q-31 -30 -31 -87q0 -16 4 -56q3 -36 2 -54q1 -7 1 -16t-1.5 -29t-1.5 -30q0 -41 27 -54q-7 1 29 2q17 0 23 -12q6 -33 -38 -33q-25 5 -57 5q-15 0 -42.5 -1.5t-41.5 -1.5q-18 0 -33 2q-10 1 -14 12 q-3 11 2 21l39 15q20 8 17 33q-3 19 -3 41q0 21 3.5 63.5t3.5 62.5q0 62 -23 107q-25 17 -27 18q-14 12 -14 27q0 5 1 11q15 19 53 36q45 18 60 30q4 2 7 2q22 0 26 -29q-1 6 -1 -36q0 -21 15 -22q64 78 159 78q12 0 24 -1q34 -23 34 -57q0 -13 -7 -24z" />
<glyph unicode="s" horiz-adv-x="363" d="M373 131q2 -9 2 -17q0 -22 -13 -47q-1 -2 -26 -42q-52 -41 -128 -41q-41 0 -86 12q-5 -1 -15.5 -8t-16.5 -7t-12 7q-23 51 -23 89q0 23 9 39q14 1 29 -17q16 -21 27 -24q46 -57 112 -60q21 4 43.5 10t34.5 28.5t3 77.5q-28 31 -95 52q-82 25 -102 37q-48 30 -50 94 q-4 103 68 139q25 12 59 12q37 0 60 -16l60 6q14 -6 17 -30q3 -28 14 -37q-2 -4 -2 -10q0 -5 2.5 -14t2.5 -13q0 -9 -7 -15l-68 58q-39 32 -75 32q-14 0 -29 -4q-26 0 -48 -44q-6 -11 -6 -21q0 -29 43 -58q98 -28 136 -51q73 -44 80 -117z" />
<glyph unicode="t" horiz-adv-x="342" d="M362 56q0 -22 -19 -38l-37 -22q-30 -13 -68 -13q-43 0 -71 17q-39 29 -39 90q0 15 4 58q4 37 2 58q-7 25 -2 89q5 59 -9 89q-8 12 -26 12q-5 0 -14 -1t-13 -1q-20 0 -21 23q7 25 48 57.5t47 59.5q9 8 19 52q7 34 35 35q30 -6 33 -42q-11 -19 -11 -55q-1 -40 -7 -57 q13 -26 45 -26q7 0 22.5 1.5t22.5 1.5q30 0 45 -22q-10 -32 -50 -32q-7 0 -22.5 1t-23.5 1q-26 0 -39 -12q1 -19 1 -42q0 -26 -3 -77.5t-3 -76.5q0 -64 15 -109q10 -15 14 -20q10 -11 19 -11q15 -2 43 8.5t40 10.5q13 0 23 -7z" />
<glyph unicode="u" horiz-adv-x="566" d="M564 9q-40 -7 -123 -19q-13 5 -16 42q-2 30 -29 27q-57 -40 -74 -49q-44 -23 -86 -20q-41 3 -71 27q-36 52 -36 156q0 15 1 45v46q0 62 -11 100q-7 9 -37 19q-26 8 -26 23q0 6 3 14q19 21 61 35q56 19 68 25q28 5 33 -14q-15 -183 -12 -359l26 -37q18 -21 38 -24 q50 2 93.5 26t64.5 66q3 24 3 51q0 25 -3.5 74.5t-3.5 75.5q-7 25 -51 34q-40 8 -40 32q0 6 1 13q31 19 80 35l84 27q19 -5 19 -22q0 -7 -4 -24t-4 -24q1 -26 1 -56q0 -35 -4 -143q-3 -89 -1 -142q6 -12 34 -24q24 -10 24 -24q0 -6 -2 -12z" />
<glyph unicode="v" horiz-adv-x="524" d="M542 447q4 -28 -33 -48q-43 -24 -48 -45q-38 -102 -121 -304q-3 -50 -41 -70q-16 0 -29 16q-9 15 -19 29q-29 86 -131 347q-7 20 -46 31q-35 11 -35 30q0 6 2 14q26 4 92 4q58 -1 91 9q39 -10 37 -27q-1 -13 -27.5 -23.5t-26.5 -25.5q0 -5 3 -12q14 -24 47 -117 q27 -74 61 -111h18q40 85 51 110q27 62 41 114q-8 34 -38 42q-19 -5 -35 14q-2 5 -2 9q0 10 10 15.5t19 11.5q1 -1 81 0q51 0 79 -13z" />
<glyph unicode="w" horiz-adv-x="749" d="M766 453q-2 -18 -24 -32q-18 -11 -34.5 -22.5t-28 -47t-29.5 -46.5q-8 10 -8 21q0 8 6 23.5t6 23.5t-4 15q-3 20 -34 34t-31 24t15 25q18 -4 44 -4q8 0 25 1h25q47 0 72 -15zM642 285q4 -38 -12 -86l-30 -81q-9 -10 -20 -69q-8 -47 -38 -47q-10 0 -23 4q-26 32 -45 93 q-30 90 -34 98q-1 16 -15 40.5t-14 38.5q-8 9 -18 9q-13 -20 -27.5 -62.5t-26.5 -62.5q2 -13 -9 -34t-10 -33l-18 -65q-13 -39 -53 -32l-25 27q-9 45 -43 129.5t-44 132.5l-35 85q-25 49 -69 52q-14 24 -14 31l20 14q92 3 173 -12q4 -8 4 -13q0 -8 -18 -15t-19 -20 q-2 -9 -2 -17q0 -24 11 -54l20 -49q27 -77 29 -82q20 -46 50 -74q15 1 23 20l14 32q2 30 26 90q24 56 24 93q-12 23 -39 42l-48 28q-4 24 18 31q62 1 173 -4q9 -19 8 -27q-21 -13 -25 -16q-14 -11 -17 -23q12 -27 43 -124q24 -78 51 -119q-3 -5 -3 -10q0 -14 26 -21 q27 39 56 124q0 16 14 38h11z" />
<glyph unicode="x" horiz-adv-x="539" d="M573 25l-5 -14q-56 -9 -107 -9q-62 0 -106 13q-3 13 15.5 21t18.5 16q0 5 -3 11l-102 116q-18 0 -35 -21q-22 -27 -29 -31q-4 -9 -21.5 -30.5t-17.5 -33.5q0 -8 4.5 -14.5t24.5 -16.5q15 -7 14 -21l-15 -13q-150 5 -187 0q-15 15 -15 21q0 5 5 10q27 14 58 11 q64 36 177 158q1 5 1 10q0 26 -30 53q-43 40 -46 45l-60 57q-39 33 -75 36q-12 3 -12 13q0 7 7 15.5t27 9.5h31q9 1 15 4q15 -6 72 -1q46 4 65 -18q0 -7 -14 -17.5t-14 -18.5q0 -6 6 -14l41 -57q26 -34 56 -36q6 10 43 45q27 26 26 52q-7 14 -32.5 23t-25.5 24q0 4 2 9 l18 13q14 -3 30 -3q18 0 54 5t53 5q32 0 56 -11q7 -10 7 -18q0 -26 -44 -32q-50 -7 -96 -51l-78 -80q40 -95 205 -220q10 -2 21.5 -3.5t16.5 -11.5z" />
<glyph unicode="y" horiz-adv-x="545" d="M554 451q5 -10 5 -18q0 -20 -49 -38q-33 -12 -53 -45q-12 -20 -26.5 -67t-26.5 -67l-100 -255q-9 -56 -64 -100q-37 -47 -111 -47q-12 0 -24 1l-33 12q-19 9 -25 26q-5 8 -5 17q0 15 15 39q18 15 41 15q18 0 52 -11t49 -11q34 0 53 40q28 27 28 60q0 29 -26 76 q-32 59 -37 73l-40 103q-24 63 -45 99q-28 49 -89 52q-12 15 -12 25q0 5 3 11l23 14q18 -6 41 -6q17 0 51 4.5t51 4.5q36 0 63 -15q6 -12 6 -19q0 -10 -22 -16.5t-26 -20.5q3 -48 35 -115q41 -86 48 -110q1 0 13 -13q8 -8 16 -5q26 39 46 106l33 112q-7 30 -37 41 q-6 3 -12.5 5.5t-7 8.5t-0.5 10q0 26 28 32h164z" />
<glyph unicode="z" horiz-adv-x="449" d="M462 434q3 -26 -23 -45l-43 -30q-49 -56 -115 -146q-105 -144 -107 -147q-2 -7 12 -21q77 2 124 16q64 19 105 65q13 9 39 9q9 -14 9 -29q0 -16 -13.5 -46t-14.5 -46q-15 -21 -52 -21q-9 0 -25 1.5t-22 1.5q-67 9 -132 9q-64 0 -134 -9q-20 6 -20 27q0 12 5 24 q56 65 128 167l119 170q2 6 -3 11l-9 8q-124 10 -193 -77q-23 4 -23 21q0 7 6 25.5t6 28.5q0 5 -2 10q9 13 32 37q70 -1 332 9z" />
<glyph unicode="{" horiz-adv-x="238" d="M163 -51q-25 0 -50 24q-31 29 -31 77q0 38 12 96l20 97q6 31 6 46q0 20 -17 34.5t-31.5 14.5t-13.5 10q-1 10 13.5 10t31.5 14.5t17 33.5q0 21 -19 112t-19 128q0 48 31 77q25 24 50 24t25 -10q0 -11 -25 -11q-46 0 -46 -54q0 -25 17.5 -117t17.5 -120q0 -56 -49 -87 q49 -31 49 -87q0 -37 -11 -93l-18 -94q-6 -33 -6 -50q0 -54 46 -54q25 0 25 -11q0 -10 -25 -10z" />
<glyph unicode="|" horiz-adv-x="200" d="M153 926q-23 -66 -25 -185q-3 -154 -8 -191q4 -67 4 -155q0 -43 -1.5 -128.5t-1.5 -127.5q0 -108 7 -185q-4 -9 -19 -25q-31 -1 -31 27q0 5 1.5 18t1.5 19q0 13 -5 22q11 13 11 31q0 10 -7 40q-6 26 -2 41q-1 41 -1 90q0 56 3 169t3 169q0 142 -15 245q6 11 6 27 q0 13 -5.5 40t-5.5 39q0 44 48 44q25 0 42 -24z" />
<glyph unicode="}" horiz-adv-x="238" d="M237 348q1 -10 -13 -10t-31.5 -14.5t-17.5 -34.5t19 -111t19 -128q0 -48 -31 -77q-24 -24 -50 -24q-25 0 -25 10q0 11 25 11q46 0 46 54q0 25 -17.5 117t-17.5 120q0 56 49 87q-49 31 -49 87q0 37 11 93q9 47 19 93q5 34 5 51q0 54 -46 54q-25 0 -25 11q0 10 25 10 q26 0 50 -24q31 -29 31 -77q0 -38 -12 -96l-20 -97q-6 -32 -6 -47q0 -19 17.5 -33.5t31.5 -14.5t13 -10z" />
<glyph unicode="&#xa3;" horiz-adv-x="523" d="M489 645q-16 -22 -52 -27q-31 -3 -61 -7q-32 -9 -40 -41q-20 -115 -15 -191q20 -18 51 -18q9 0 30 2.5t32 2.5q10 0 18 -1q18 -13 8 -46l-8 -8q-9 -2 -21 -2q-11 0 -34 2t-33 2q-45 0 -62 -27q3 -12 3 -23q0 -26 -23.5 -67t-24.5 -64q-25 -20 -19 -42l23 -22l176 4 q29 20 38 20q5 0 10 -2q5 -6 5 -13q0 -10 -13 -29t-15 -28q-63 -51 -117 -51q-17 0 -34 5q-91 28 -117 65q-20 -4 -58 -35.5t-59 -31.5q-19 0 -36 19q1 23 27 38q37 21 43 28l45 54q28 34 30 63q23 53 24 58q12 35 9 64q-13 19 -49 19q-8 0 -23 -1t-21 -1q-39 0 -39 31 q0 7 1 16q15 8 36 8q10 0 30.5 -2.5t30.5 -2.5q32 0 51 22q3 34 18 94.5t19 90.5q21 38 29 75q56 68 104 81q6 -1 42 -3q25 -2 37 -12q12 -37 12 -42q0 -13 -8 -24z" />
<glyph unicode="&#xa7;" horiz-adv-x="478" d="M434 358q-14 -39 -62 -69q-27 4 -38 -10q5 -26 41.5 -60t39.5 -63q2 -15 2 -28q0 -43 -25 -100q-40 -52 -132 -52q-26 0 -57 4q-52 18 -89 52q-44 40 -46 89q0 18 11 46q14 22 44 22q18 0 35 -8q30 -14 30 -55q0 -7 -1 -19.5t-1 -18.5q0 -46 42 -56q18 -5 35 -5 q58 0 73 40q8 19 4 48q-51 85 -209 210q-38 45 -53 69q-24 42 -24 81q0 12 2 24q25 72 106 98q2 5 2 10q0 9 -16 16.5t-13 20.5q-55 49 -55 117q0 43 26.5 85t65 59.5t77.5 17.5q35 0 67 -13q58 -24 95 -93q12 -55 12 -59q0 -21 -12 -35l-24 -20q-15 -11 -28 -11q-7 0 -14 2 q-31 11 -38 50l-6 69q-8 38 -42 50q-68 3 -97 -50q-2 -11 -2 -22q0 -49 50 -99l87 -77q91 -91 93 -94q52 -61 52 -117q0 -23 -8 -46zM382 391l-55 71q-33 40 -61 60q-55 31 -90 31q-13 0 -27 -4q-33 -20 -33 -53q0 -10 4 -20l87 -101q56 -55 111 -55q17 0 35 5q31 14 31 51 q0 8 -2 15z" />
<glyph unicode="&#xaa;" d="M507 86q4 -8 4 -15q0 -14 -17 -35q-21 -26 -24 -33q-34 -14 -79 -11q-10 5 -30 32q-16 22 -30 22q-9 0 -19 -6q-54 -49 -131 -49q-45 0 -81 20q-51 28 -51 98q0 10 1 20q43 80 143 98q8 2 75 17q45 10 71 24q-1 43 -3 85q-5 47 -35 69q-29 15 -74 2l-48 -59 q-30 -35 -61 -35q-6 0 -12 1q-23 10 -41 31q-2 7 -2 14q0 32 30 56q9 6 59 34q85 12 122 12q26 0 50 -4l52 -23q42 -50 42 -133q0 -27 -5.5 -83.5t-5.5 -83.5q0 -37 6 -65q33 -33 44 -33q8 0 17 6zM335 204l-9 13q-97 -12 -145 -50q-26 -35 -23 -90q10 -16 31 -29 q17 -6 34 -6q54 0 107 62z" />
<glyph unicode="&#xad;" horiz-adv-x="348" d="M370 294q12 -43 -12 -71q-21 -11 -55 -11q-17 0 -50 3.5t-47 3.5q-11 0 -39 -3t-42 -3q-48 0 -62 33q-4 21 5 39t28 19l106 -6q24 11 62 11q43 0 106 -15z" />
<glyph unicode="&#xb0;" horiz-adv-x="244" d="M218 656q0 -34 -24 -58t-58 -24t-58 24t-24 58t24 58t58 24t58 -24t24 -58zM188 655q0 20 -14.5 34.5t-34.5 14.5t-34.5 -14.5t-14.5 -34.5q0 -21 14.5 -35.5t34.5 -14.5t34.5 14.5t14.5 35.5z" />
<glyph unicode="&#xb2;" horiz-adv-x="500" d="M524 582q-4 -12 -15 -78q-8 -45 -30 -72q-44 -52 -167 -153q-113 -94 -162 -161q6 -20 7 -22q5 -12 16 -15q24 5 61 5q13 0 41.5 -1t42.5 -1q121 0 165 76q1 -1 11 -7q7 -3 7 -10q3 -25 -16.5 -66.5t-16.5 -66.5l-29 -22q-46 -5 -104 -5q-34 0 -136 3q-85 3 -134 2 q-13 9 -13 25q0 7 9 37q36 40 121 146q74 92 122 143q21 34 56 66q40 63 40 116q0 21 -7 42q4 6 4 11q0 11 -17 24q-21 16 -24 21q-34 21 -72 21t-73 -21q-51 -29 -75 -75q-36 -27 -52 -27q-5 34 24 70l53 59q11 16 43.5 33t43.5 29q17 -3 43.5 12t45.5 11q122 -23 154 -97 q11 -6 18.5 -26t14.5 -26z" />
<glyph unicode="&#xb3;" horiz-adv-x="455" d="M462 204q-23 -138 -101 -191q-51 -35 -124 -35q-56 0 -107 20q-83 57 -83 116q5 27 7 32q7 18 20 24q8 2 15 2q43 0 60 -39q14 -53 25 -73q22 -39 60 -43q10 -3 20 -3q24 0 47 18l39 37q34 76 34 137q0 55 -28 95q-18 33 -61 49q-64 22 -70 26q-3 17 14 27q24 14 28 19 q95 62 95 141q0 9 -2 19l-24 39q-15 22 -36 27q-10 2 -20 2q-33 0 -67 -32q-53 -51 -58 -55h-19q-10 1 -10 10q3 29 28 63l42 54q51 49 128 49q99 0 138 -78q0 -10 2.5 -32t2.5 -34q0 -25 -9 -42q-14 -28 -59.5 -68.5t-56.5 -66.5q39 -8 72.5 -38t49.5 -68q16 -64 8 -108z " />
<glyph unicode="&#xb4;" horiz-adv-x="277" d="M380 674q13 -20 13 -37q0 -30 -42 -51q-13 -6 -77 -28q-24 -8 -63 -35q-33 -22 -48 -22q-13 0 -25 13q-5 7 -5 13q0 13 34 38q44 32 59 51q69 88 109 88q26 0 45 -30z" />
<glyph unicode="&#xb6;" horiz-adv-x="481" d="M511 854q-10 -9 -58 -12q-39 -3 -46 -33q4 -134 4 -273q0 -138 -4 -274q11 -31 11 -80v-31q-1 -21 -1 -31q0 -30 4 -51q19 -38 4 -87q-5 -11 -17 -15q-8 -2 -22 -1l-21 2q-18 14 -18 37q0 12 7.5 39t6.5 40q5 86 5 186q0 103 -6 277q-8 204 -9 276q-6 17 -42 27 q-21 0 -44 -2t-31 -25l-6 -66q4 -65 4 -145q0 -54 -2.5 -162.5t-2.5 -163.5q0 -165 20 -285q-2 -20 -38 -33q-37 15 -37 65q0 13 4 46q3 29 2 42q13 122 4 366q-11 18 -69 58q-48 33 -51 73q-18 31 -18 80q0 19 3 36q-1 9 -1 17q0 82 109 147q65 24 164 27h173q23 -4 23 -34 q0 -10 -4 -37z" />
<glyph unicode="&#xb9;" horiz-adv-x="358" d="M355 17q2 -4 2 -6q0 -6 -22 -17l-248 -6q-19 13 -22 41q11 11 31 11q4 0 11 -1h12q23 0 35 15q20 19 20 55q0 5 -1 17v17q0 19 4 32q-1 -15 -1 93q0 58 9 93l-8 23q-2 13 -2 28q0 16 3 46.5t3 46.5q0 37 -13 66q-11 17 -46 17h-7q-37 0 -46 21h-15q-6 13 -6 23 q0 22 39 24q47 3 56 11q18 12 35 25q21 16 28 31q19 10 44 10q33 0 43 -21q-9 -73 -19 -224q1 -109 -4 -326q-8 -9 0 -37q0 -71 48 -94q19 0 37 -14z" />
<glyph unicode="&#xba;" horiz-adv-x="492" d="M522 211q-10 -69 -47 -123q-40 -59 -102 -82q-20 -16 -55 -19h-58q-69 7 -126 62q-54 51 -75 121q-5 22 -5 45q0 68 42 152q87 101 192 101q28 0 56 -8q25 -4 54 -20l49 -32l42 -65q23 -39 23 -70q0 -14 -4 -29q-1 -5 6.5 -16t7.5 -17zM422 174q6 28 6 59q0 80 -32 137 t-109 57q-30 0 -56 -10q-80 -50 -80 -175q0 -54 16 -137q17 -58 93 -79q6 -3 13 -3q5 0 14 2t14 2q9 0 16 -7q53 14 89 75z" />
<glyph unicode="&#xc0;" horiz-adv-x="773" d="M439 816q-12 -13 -25 -13q-15 0 -48 22q-39 27 -63 35q-64 22 -77 28q-42 21 -42 51q0 17 13 37q19 30 45 30q40 0 109 -88q15 -19 59 -51q34 -25 34 -38q0 -6 -5 -13zM805 27q-4 -20 -28 -20q-6 0 -17.5 1t-16.5 1t-9 -1l-187 -4q-14 3 -14 23q7 14 38 17q28 2 32 25 q-1 23 -20.5 64t-20.5 66q-11 9 -16.5 38t-25.5 37q-67 3 -133 3t-130 -3q-26 -30 -47 -90q-24 -71 -36 -93q10 -41 74 -60l4 4q2 -3 8.5 -9t6.5 -9q-19 -11 -75 -13q-27 -4 -82 -2.5t-82 -3.5q-18 5 -14 37q12 7 56 21q37 12 56 27l67 151q39 91 74 148q0 19 14 55.5 t15 56.5q19 26 37 79q19 60 32 81q4 33 37 87q6 2 12 2q32 0 48 -24q8 -34 15 -68q9 -38 29 -63q8 -30 30.5 -89t29.5 -90q30 -52 75 -179q42 -118 79 -174q5 -8 20.5 -7.5t20.5 -2.5zM487 307q12 7 12 17q0 7 -7.5 20t-8.5 19q-11 32 -23 63q-14 37 -29 60q-5 23 -37 79 q-22 2 -33 -26q-13 -35 -23 -41q1 -30 -24.5 -79t-25.5 -76q0 -8 2 -17q27 -15 66 -15q13 0 39.5 2t39.5 2q29 0 52 -8z" />
<glyph unicode="&#xc1;" horiz-adv-x="773" d="M631 976q13 -20 13 -37q0 -30 -42 -51q-13 -6 -77 -28q-24 -8 -63 -35q-33 -22 -48 -22q-13 0 -25 13q-5 7 -5 13q0 13 34 38q44 32 59 51q69 88 109 88q26 0 45 -30zM805 27q-4 -20 -28 -20q-6 0 -17.5 1t-16.5 1t-9 -1l-187 -4q-14 3 -14 23q7 14 38 17q28 2 32 25 q-1 23 -20.5 64t-20.5 66q-11 9 -16.5 38t-25.5 37q-67 3 -133 3t-130 -3q-26 -30 -47 -90q-24 -71 -36 -93q10 -41 74 -60l4 4q2 -3 8.5 -9t6.5 -9q-19 -11 -75 -13q-27 -4 -82 -2.5t-82 -3.5q-18 5 -14 37q12 7 56 21q37 12 56 27l67 151q39 91 74 148q0 19 14 55.5 t15 56.5q19 26 37 79q19 60 32 81q4 33 37 87q6 2 12 2q32 0 48 -24q8 -34 15 -68q9 -38 29 -63q8 -30 30.5 -89t29.5 -90q30 -52 75 -179q42 -118 79 -174q5 -8 20.5 -7.5t20.5 -2.5zM487 307q12 7 12 17q0 7 -7.5 20t-8.5 19q-11 32 -23 63q-14 37 -29 60q-5 23 -37 79 q-22 2 -33 -26q-13 -35 -23 -41q1 -30 -24.5 -79t-25.5 -76q0 -8 2 -17q27 -15 66 -15q13 0 39.5 2t39.5 2q29 0 52 -8z" />
<glyph unicode="&#xc5;" horiz-adv-x="773" d="M496 820q0 -34 -24 -58t-58 -24t-58 24t-24 58t24 58t58 24t58 -24t24 -58zM466 819q0 20 -14.5 34.5t-34.5 14.5t-34.5 -14.5t-14.5 -34.5q0 -21 14.5 -35.5t34.5 -14.5t34.5 14.5t14.5 35.5zM805 27q-4 -20 -28 -20q-6 0 -17.5 1t-16.5 1t-9 -1l-187 -4q-14 3 -14 23 q7 14 38 17q28 2 32 25q-1 23 -20.5 64t-20.5 66q-11 9 -16.5 38t-25.5 37q-67 3 -133 3t-130 -3q-26 -30 -47 -90q-24 -71 -36 -93q10 -41 74 -60l4 4q2 -3 8.5 -9t6.5 -9q-19 -11 -75 -13q-27 -4 -82 -2.5t-82 -3.5q-18 5 -14 37q12 7 56 21q37 12 56 27l67 151 q39 91 74 148q0 19 14 55.5t15 56.5q19 26 37 79q19 60 32 81q4 33 37 87q6 2 12 2q32 0 48 -24q8 -34 15 -68q9 -38 29 -63q8 -30 30.5 -89t29.5 -90q30 -52 75 -179q42 -118 79 -174q5 -8 20.5 -7.5t20.5 -2.5zM487 307q12 7 12 17q0 7 -7.5 20t-8.5 19q-11 32 -23 63 q-14 37 -29 60q-5 23 -37 79q-22 2 -33 -26q-13 -35 -23 -41q1 -30 -24.5 -79t-25.5 -76q0 -8 2 -17q27 -15 66 -15q13 0 39.5 2t39.5 2q29 0 52 -8z" />
<glyph unicode="&#xc6;" horiz-adv-x="1078" d="M1105 102l-43 -118q-50 -4 -128 -2q-129 2 -128 2h-374l-10 14q0 4 4 9q11 8 62 11q41 2 50 33q0 122 11 164q0 11 -5.5 31t-5.5 29q0 8 2 14l-10 13l-195 -4q-21 -10 -38.5 -43t-32.5 -42q-5 -22 -44 -73q-37 -47 -37 -72q0 -26 29 -47q6 -7 18 -7h9q7 1 9 1 q14 0 16 -16l-19 -19q-32 7 -109 2q-72 -5 -107 6q0 3 -2.5 11t-1.5 14q42 19 62 30q34 18 59 39l174 268l84 119q47 72 47 132q-45 53 -141 53q-14 0 -31 -1q-22 12 -22 30q0 9 7 16l23 10q107 -4 322 -10l10 6q58 -6 206 -1q131 5 206 -10q11 -16 18.5 -61t18.5 -63 q4 -37 -15 -44l-81 75q-49 41 -95 48q-41 12 -100 12q-20 0 -61.5 -2t-62.5 -2q-9 -13 -17 -26q-10 -16 -10 -28q0 -11 8 -21q4 -17 4 -36q0 -21 -7 -60.5t-7 -57.5q0 -37 18 -66q104 0 125 4q67 11 95 63q2 13 8 30q10 27 11 30q13 0 19 -9q-2 -28 0 -74q1 -61 1 -75 q0 -81 -16 -131q-12 9 -23 60q-8 42 -85 71q-10 0 -41 3q-27 3 -43 3q-46 0 -70 -21q9 -163 -4 -247q19 -40 46 -52q57 -8 109 -8q202 0 288 116q14 28 37 23q8 -6 7 -23zM545 387q-7 32 -7 101q0 66 -8 100h-8q-47 -71 -150 -211q-6 -8 -6 -18q0 -16 14 -20q93 9 142 -4 q19 17 23 52z" />
<glyph unicode="&#xc8;" horiz-adv-x="721" d="M610 814q-12 -13 -25 -13q-15 0 -48 22q-39 27 -63 35q-64 22 -77 28q-42 21 -42 51q0 17 13 37q19 30 45 30q40 0 109 -88q15 -19 59 -51q34 -25 34 -38q0 -6 -5 -13zM746 120q-12 -20 -20 -52q-7 -27 -13 -53q-32 -20 -81 -20q-16 0 -49.5 2.5t-50.5 2.5l-336 -4l-11 8 q-14 0 -43 -2.5t-43 -2.5q-34 0 -55 11q-2 4 -2 7q0 12 17 16h50q27 3 39 31q15 15 15 39q0 10 -4 37q-4 24 -3 37q0 49 4 154t4 158q0 88 -8 155q-9 29 -48 29q-6 0 -16 -1h-16q-33 0 -33 28q0 6 1 14q20 8 65.5 2.5t67.5 4.5l68 -7l205 6q127 3 207 1q26 -19 36 -68 q12 -63 20 -78q-8 -24 -22 -24q-3 0 -5 1q-87 104 -239 121q-115 0 -150 4q-11 -2 -21 -15l-20 -26q2 -42 -2 -122t-2 -121l16 -15q109 0 130 3q70 12 97 63q2 4 5 31q3 18 18 26q13 0 16.5 -11.5t5.5 -22.5l-8 -239q-14 -9 -19 -8q-15 64 -70 116q-64 19 -179 11 q-23 -40 -23 -93q0 -24 6 -73t6 -74q0 -15 -1 -28q13 -37 58 -46l81 -6q114 -2 185 20q98 31 143 111q2 0 9 2q6 1 10 0q11 -14 11 -28q0 -6 -3 -12z" />
<glyph unicode="&#xc9;" horiz-adv-x="721" d="M802 974q13 -20 13 -37q0 -30 -42 -51q-13 -6 -77 -28q-24 -8 -63 -35q-33 -22 -48 -22q-13 0 -25 13q-5 7 -5 13q0 13 34 38q44 32 59 51q69 88 109 88q26 0 45 -30zM746 120q-12 -20 -20 -52q-7 -27 -13 -53q-32 -20 -81 -20q-16 0 -49.5 2.5t-50.5 2.5l-336 -4l-11 8 q-14 0 -43 -2.5t-43 -2.5q-34 0 -55 11q-2 4 -2 7q0 12 17 16h50q27 3 39 31q15 15 15 39q0 10 -4 37q-4 24 -3 37q0 49 4 154t4 158q0 88 -8 155q-9 29 -48 29q-6 0 -16 -1h-16q-33 0 -33 28q0 6 1 14q20 8 65.5 2.5t67.5 4.5l68 -7l205 6q127 3 207 1q26 -19 36 -68 q12 -63 20 -78q-8 -24 -22 -24q-3 0 -5 1q-87 104 -239 121q-115 0 -150 4q-11 -2 -21 -15l-20 -26q2 -42 -2 -122t-2 -121l16 -15q109 0 130 3q70 12 97 63q2 4 5 31q3 18 18 26q13 0 16.5 -11.5t5.5 -22.5l-8 -239q-14 -9 -19 -8q-15 64 -70 116q-64 19 -179 11 q-23 -40 -23 -93q0 -24 6 -73t6 -74q0 -15 -1 -28q13 -37 58 -46l81 -6q114 -2 185 20q98 31 143 111q2 0 9 2q6 1 10 0q11 -14 11 -28q0 -6 -3 -12z" />
<glyph unicode="&#xcc;" horiz-adv-x="396" d="M110 814q-12 -13 -25 -13q-15 0 -48 22q-39 27 -63 35q-64 22 -77 28q-42 21 -42 51q0 17 13 37q19 30 45 30q40 0 109 -88q15 -19 59 -51q34 -25 34 -38q0 -6 -5 -13zM401 698q-11 -25 -55 -25h-12q-47 0 -55 -31l-8 -48l4 -513q4 -38 44 -38h17q12 1 19 1q28 0 40 -15 q-8 -31 -41 -31q-11 0 -35 5t-34 5q-6 0 -10 -2q-61 -3 -187 -10q-14 5 -17 8q-10 5 -12 15q8 24 55.5 29t58.5 29q-1 54 1 189q1 126 0 196q-2 109 -11 192q-10 22 -42 22h-16q-11 -1 -16 -1q-36 0 -34 36q11 14 30 14q8 0 27 -4t28 -4q24 0 78 4q51 3 79 3q47 0 86 -7z " />
<glyph unicode="&#xcd;" horiz-adv-x="396" d="M302 974q13 -20 13 -37q0 -30 -42 -51q-13 -6 -77 -28q-24 -8 -63 -35q-33 -22 -48 -22q-13 0 -25 13q-5 7 -5 13q0 13 34 38q44 32 59 51q69 88 109 88q26 0 45 -30zM401 698q-11 -25 -55 -25h-12q-47 0 -55 -31l-8 -48l4 -513q4 -38 44 -38h17q12 1 19 1q28 0 40 -15 q-8 -31 -41 -31q-11 0 -35 5t-34 5q-6 0 -10 -2q-61 -3 -187 -10q-14 5 -17 8q-10 5 -12 15q8 24 55.5 29t58.5 29q-1 54 1 189q1 126 0 196q-2 109 -11 192q-10 22 -42 22h-16q-11 -1 -16 -1q-36 0 -34 36q11 14 30 14q8 0 27 -4t28 -4q24 0 78 4q51 3 79 3q47 0 86 -7z " />
<glyph unicode="&#xd2;" horiz-adv-x="767" d="M463 814q-12 -13 -25 -13q-15 0 -48 22q-39 27 -63 35q-64 22 -77 28q-42 21 -42 51q0 17 13 37q19 30 45 30q40 0 109 -88q15 -19 59 -51q34 -25 34 -38q0 -6 -5 -13zM769 263q-23 -115 -135 -220q-96 -71 -228 -71q-110 0 -194 52q-107 86 -139 187q-2 15 -13 56 q-10 35 -10 56q0 15 4 29q17 240 158 326q103 63 226 63q66 0 121 -21q88 -23 168 -150q52 -82 52 -202q0 -52 -10 -105zM653 477q-21 41 -21 70q-25 67 -89 103q-57 33 -130 33q-150 0 -215 -136q-32 -141 -32 -231q0 -163 94 -246q58 -52 151 -52q67 0 123 29 q124 77 124 286q0 29 -2 73q-3 59 -3 71z" />
<glyph unicode="&#xd3;" horiz-adv-x="767" d="M655 974q13 -20 13 -37q0 -30 -42 -51q-13 -6 -77 -28q-24 -8 -63 -35q-33 -22 -48 -22q-13 0 -25 13q-5 7 -5 13q0 13 34 38q44 32 59 51q69 88 109 88q26 0 45 -30zM769 263q-23 -115 -135 -220q-96 -71 -228 -71q-110 0 -194 52q-107 86 -139 187q-2 15 -13 56 q-10 35 -10 56q0 15 4 29q17 240 158 326q103 63 226 63q66 0 121 -21q88 -23 168 -150q52 -82 52 -202q0 -52 -10 -105zM653 477q-21 41 -21 70q-25 67 -89 103q-57 33 -130 33q-150 0 -215 -136q-32 -141 -32 -231q0 -163 94 -246q58 -52 151 -52q67 0 123 29 q124 77 124 286q0 29 -2 73q-3 59 -3 71z" />
<glyph unicode="&#xd9;" horiz-adv-x="843" d="M634 814q-12 -13 -25 -13q-15 0 -48 22q-39 27 -63 35q-64 22 -77 28q-42 21 -42 51q0 17 13 37q19 30 45 30q40 0 109 -88q15 -19 59 -51q34 -25 34 -38q0 -6 -5 -13zM853 709q5 -31 -29 -43q-46 -16 -54 -26q-29 -37 -33 -99q-2 -29 3 -115q5 -72 -3 -110q6 -34 6 -68 q0 -59 -21 -127q-22 -73 -145 -135q-73 -19 -139 -19q-149 0 -231 94q-53 61 -53 197v36v34q0 41 -3 69q0 23 3 73.5t3 76.5q0 64 -14 106q-11 14 -61 14q-43 1 -43 27q0 6 2 15q16 14 52.5 9t49.5 1q27 -6 87.5 -2t88.5 -2q21 9 56 -6q0 -42 -18 -42q-25 4 -41 4 q-44 0 -61 -22q-7 -61 -7 -140q0 -47 3.5 -144t3.5 -146q7 -60 37 -108q33 -53 85 -75q44 -12 89 -12q137 0 204 97q35 73 35 180q0 34 -4.5 102t-4.5 101q0 36 3 66q-8 8 -9 24q0 23 -1 26q-15 26 -49 36q-28 8 -57 15q-12 4 -12 18q0 8 6 24q10 12 32 12q11 0 38 -6 q10 1 53 3q35 2 58 2q62 0 95 -15z" />
<glyph unicode="&#xda;" horiz-adv-x="843" d="M826 974q13 -20 13 -37q0 -30 -42 -51q-13 -6 -77 -28q-24 -8 -63 -35q-33 -22 -48 -22q-13 0 -25 13q-5 7 -5 13q0 13 34 38q44 32 59 51q69 88 109 88q26 0 45 -30zM853 709q5 -31 -29 -43q-46 -16 -54 -26q-29 -37 -33 -99q-2 -29 3 -115q5 -72 -3 -110q6 -34 6 -68 q0 -59 -21 -127q-22 -73 -145 -135q-73 -19 -139 -19q-149 0 -231 94q-53 61 -53 197v36v34q0 41 -3 69q0 23 3 73.5t3 76.5q0 64 -14 106q-11 14 -61 14q-43 1 -43 27q0 6 2 15q16 14 52.5 9t49.5 1q27 -6 87.5 -2t88.5 -2q21 9 56 -6q0 -42 -18 -42q-25 4 -41 4 q-44 0 -61 -22q-7 -61 -7 -140q0 -47 3.5 -144t3.5 -146q7 -60 37 -108q33 -53 85 -75q44 -12 89 -12q137 0 204 97q35 73 35 180q0 34 -4.5 102t-4.5 101q0 36 3 66q-8 8 -9 24q0 23 -1 26q-15 26 -49 36q-28 8 -57 15q-12 4 -12 18q0 8 6 24q10 12 32 12q11 0 38 -6 q10 1 53 3q35 2 58 2q62 0 95 -15z" />
<glyph unicode="&#xdd;" horiz-adv-x="752" d="M871 974q13 -20 13 -37q0 -30 -42 -51q-13 -6 -77 -28q-24 -8 -63 -35q-33 -22 -48 -22q-13 0 -25 13q-5 7 -5 13q0 13 34 38q44 32 59 51q69 88 109 88q26 0 45 -30zM785 684q-6 -24 -33 -34l-46 -16q-55 -61 -111 -164l-94 -173q-1 -13 -14.5 -33t-14.5 -29l4 -172 q16 -35 61 -35q5 0 30 1q19 2 31 0q18 -13 4 -27l-12 -10q-218 0 -318 -12q-6 4 -21 4q-14 10 -14 24q0 5 2 9q11 15 35 15q8 0 24.5 -2t24.5 -2q33 0 43 31q0 22 6.5 67t6.5 66q0 53 -28 91q-38 53 -109 171q-69 113 -111 169q-12 16 -65 20q-45 4 -45 30q0 6 2 13 q13 18 54 17q56 -2 62 -1l187 -4q11 -5 11 -17t-9 -24q-2 -1 -39 -5q-24 -3 -31 -18q6 -33 34 -79q37 -57 45 -75q10 -12 23 -36q14 -27 24 -39q38 -84 83 -95q100 144 154 295q-5 26 -51 39q-42 12 -42 31q0 10 6 23q75 13 241 4q-3 -6 1.5 -10t8.5 -8z" />
<glyph unicode="&#xe0;" d="M507 86q4 -8 4 -15q0 -14 -17 -35q-21 -26 -24 -33q-34 -14 -79 -11q-10 5 -30 32q-16 22 -30 22q-9 0 -19 -6q-54 -49 -131 -49q-45 0 -81 20q-51 28 -51 98q0 10 1 20q43 80 143 98q8 2 75 17q45 10 71 24q-1 43 -3 85q-5 47 -35 69q-29 15 -74 2l-48 -59 q-30 -35 -61 -35q-6 0 -12 1q-23 10 -41 31q-2 7 -2 14q0 32 30 56q9 6 59 34q85 12 122 12q26 0 50 -4l52 -23q42 -50 42 -133q0 -27 -5.5 -83.5t-5.5 -83.5q0 -37 6 -65q33 -33 44 -33q8 0 17 6zM335 204l-9 13q-97 -12 -145 -50q-26 -35 -23 -90q10 -16 31 -29 q17 -6 34 -6q54 0 107 62zM388 514q-12 -13 -25 -13q-15 0 -48 22q-39 27 -63 35q-64 22 -77 28q-42 21 -42 51q0 17 13 37q19 30 45 30q40 0 109 -88q15 -19 59 -51q34 -25 34 -38q0 -6 -5 -13z" />
<glyph unicode="&#xe1;" d="M507 86q4 -8 4 -15q0 -14 -17 -35q-21 -26 -24 -33q-34 -14 -79 -11q-10 5 -30 32q-16 22 -30 22q-9 0 -19 -6q-54 -49 -131 -49q-45 0 -81 20q-51 28 -51 98q0 10 1 20q43 80 143 98q8 2 75 17q45 10 71 24q-1 43 -3 85q-5 47 -35 69q-29 15 -74 2l-48 -59 q-30 -35 -61 -35q-6 0 -12 1q-23 10 -41 31q-2 7 -2 14q0 32 30 56q9 6 59 34q85 12 122 12q26 0 50 -4l52 -23q42 -50 42 -133q0 -27 -5.5 -83.5t-5.5 -83.5q0 -37 6 -65q33 -33 44 -33q8 0 17 6zM335 204l-9 13q-97 -12 -145 -50q-26 -35 -23 -90q10 -16 31 -29 q17 -6 34 -6q54 0 107 62zM380 674q13 -20 13 -37q0 -30 -42 -51q-13 -6 -77 -28q-24 -8 -63 -35q-33 -22 -48 -22q-13 0 -25 13q-5 7 -5 13q0 13 34 38q44 32 59 51q69 88 109 88q26 0 45 -30z" />
<glyph unicode="&#xe2;" d="M507 86q4 -8 4 -15q0 -14 -17 -35q-21 -26 -24 -33q-34 -14 -79 -11q-10 5 -30 32q-16 22 -30 22q-9 0 -19 -6q-54 -49 -131 -49q-45 0 -81 20q-51 28 -51 98q0 10 1 20q43 80 143 98q8 2 75 17q45 10 71 24q-1 43 -3 85q-5 47 -35 69q-29 15 -74 2l-48 -59 q-30 -35 -61 -35q-6 0 -12 1q-23 10 -41 31q-2 7 -2 14q0 32 30 56q9 6 59 34q85 12 122 12q26 0 50 -4l52 -23q42 -50 42 -133q0 -27 -5.5 -83.5t-5.5 -83.5q0 -37 6 -65q33 -33 44 -33q8 0 17 6zM335 204l-9 13q-97 -12 -145 -50q-26 -35 -23 -90q10 -16 31 -29 q17 -6 34 -6q54 0 107 62z" />
<glyph unicode="&#xe3;" d="M507 86q4 -8 4 -15q0 -14 -17 -35q-21 -26 -24 -33q-34 -14 -79 -11q-10 5 -30 32q-16 22 -30 22q-9 0 -19 -6q-54 -49 -131 -49q-45 0 -81 20q-51 28 -51 98q0 10 1 20q43 80 143 98q8 2 75 17q45 10 71 24q-1 43 -3 85q-5 47 -35 69q-29 15 -74 2l-48 -59 q-30 -35 -61 -35q-6 0 -12 1q-23 10 -41 31q-2 7 -2 14q0 32 30 56q9 6 59 34q85 12 122 12q26 0 50 -4l52 -23q42 -50 42 -133q0 -27 -5.5 -83.5t-5.5 -83.5q0 -37 6 -65q33 -33 44 -33q8 0 17 6zM335 204l-9 13q-97 -12 -145 -50q-26 -35 -23 -90q10 -16 31 -29 q17 -6 34 -6q54 0 107 62z" />
<glyph unicode="&#xe4;" d="M507 86q4 -8 4 -15q0 -14 -17 -35q-21 -26 -24 -33q-34 -14 -79 -11q-10 5 -30 32q-16 22 -30 22q-9 0 -19 -6q-54 -49 -131 -49q-45 0 -81 20q-51 28 -51 98q0 10 1 20q43 80 143 98q8 2 75 17q45 10 71 24q-1 43 -3 85q-5 47 -35 69q-29 15 -74 2l-48 -59 q-30 -35 -61 -35q-6 0 -12 1q-23 10 -41 31q-2 7 -2 14q0 32 30 56q9 6 59 34q85 12 122 12q26 0 50 -4l52 -23q42 -50 42 -133q0 -27 -5.5 -83.5t-5.5 -83.5q0 -37 6 -65q33 -33 44 -33q8 0 17 6zM335 204l-9 13q-97 -12 -145 -50q-26 -35 -23 -90q10 -16 31 -29 q17 -6 34 -6q54 0 107 62z" />
<glyph unicode="&#xe5;" d="M356 620q0 -34 -24 -58t-58 -24t-58 24t-24 58t24 58t58 24t58 -24t24 -58zM326 619q0 20 -14.5 34.5t-34.5 14.5t-34.5 -14.5t-14.5 -34.5q0 -21 14.5 -35.5t34.5 -14.5t34.5 14.5t14.5 35.5zM507 86q4 -8 4 -15q0 -14 -17 -35q-21 -26 -24 -33q-34 -14 -79 -11 q-10 5 -30 32q-16 22 -30 22q-9 0 -19 -6q-54 -49 -131 -49q-45 0 -81 20q-51 28 -51 98q0 10 1 20q43 80 143 98q8 2 75 17q45 10 71 24q-1 43 -3 85q-5 47 -35 69q-29 15 -74 2l-48 -59q-30 -35 -61 -35q-6 0 -12 1q-23 10 -41 31q-2 7 -2 14q0 32 30 56q9 6 59 34 q85 12 122 12q26 0 50 -4l52 -23q42 -50 42 -133q0 -27 -5.5 -83.5t-5.5 -83.5q0 -37 6 -65q33 -33 44 -33q8 0 17 6zM335 204l-9 13q-97 -12 -145 -50q-26 -35 -23 -90q10 -16 31 -29q17 -6 34 -6q54 0 107 62z" />
<glyph unicode="&#xe6;" horiz-adv-x="696" d="M725 89q-6 -43 -74 -85q-67 -19 -101 -19q-28 0 -53 8q-46 15 -102 75q-19 2 -40 -18q-25 -25 -35 -28q-19 -27 -61 -32q-37 -2 -74 -5q-7 -1 -13 -1q-31 0 -63 24l-54 48q-6 13 -6 26q0 36 42 74.5t117 58.5l127 32q9 22 9 46q0 57 -46 114q-10 7 -23 7q-9 0 -24 -3.5 t-20 -3.5l-46 -67q-32 -37 -70 -33q-11 1 -21 15l-17 22q-5 50 61 90q62 29 123 29q85 0 128 -58q19 -3 41 16q28 24 36 27q37 15 76 15q83 0 146 -63q33 -72 33 -96q0 -23 -12 -43q-25 -4 -56 -4q-29 0 -88 5.5t-87 5.5q-22 0 -41 -3q-23 -12 -23 -29q0 -10 12 -33t12 -36 q0 -5 -1 -10q25 -85 139 -116q9 -3 18 -3q24 0 66 29q39 27 65 22zM609 367l-23 23q-14 14 -27 17q-38 11 -65 -2t-44 -39.5t-17 -54.5q25 -9 71 -9q39 0 78 1q22 -1 26 24q1 20 1 40zM343 182q0 33 -47 27l-77 -41q-41 -29 -44 -71q13 -42 33 -56q39 -4 48 -4q41 0 64 27 q27 20 27 70q0 15 -4 48z" />
<glyph unicode="&#xe8;" horiz-adv-x="438" d="M449 66q-52 -84 -171 -84q-22 0 -43 3q-74 21 -126 85t-57 140q-4 63 22 122q30 64 86 94q41 46 113 46q46 0 84.5 -21t55.5 -58l24 -49q14 -29 14 -52q0 -10 -2 -20l-23 -10q-2 0 -135 5q-80 3 -131 1q-15 -14 -15 -39q0 -10 4 -37q4 -23 3 -36q55 -116 128 -119 q16 -2 31 -2q74 0 119 54q7 2 14.5 -3t7.5 -11q0 -5 -3 -9zM355 343q-5 7 -10 32q-4 20 -17 28q-38 22 -72 22q-20 0 -36 -8l-36 -35q-22 -22 -22 -44q0 -8 2 -16q21 -16 58 -19h60q63 0 73 40zM388 514q-12 -13 -25 -13q-15 0 -48 22q-39 27 -63 35q-64 22 -77 28 q-42 21 -42 51q0 17 13 37q19 30 45 30q40 0 109 -88q15 -19 59 -51q34 -25 34 -38q0 -6 -5 -13z" />
<glyph unicode="&#xe9;" horiz-adv-x="438" d="M449 66q-52 -84 -171 -84q-22 0 -43 3q-74 21 -126 85t-57 140q-4 63 22 122q30 64 86 94q41 46 113 46q46 0 84.5 -21t55.5 -58l24 -49q14 -29 14 -52q0 -10 -2 -20l-23 -10q-2 0 -135 5q-80 3 -131 1q-15 -14 -15 -39q0 -10 4 -37q4 -23 3 -36q55 -116 128 -119 q16 -2 31 -2q74 0 119 54q7 2 14.5 -3t7.5 -11q0 -5 -3 -9zM355 343q-5 7 -10 32q-4 20 -17 28q-38 22 -72 22q-20 0 -36 -8l-36 -35q-22 -22 -22 -44q0 -8 2 -16q21 -16 58 -19h60q63 0 73 40zM380 674q13 -20 13 -37q0 -30 -42 -51q-13 -6 -77 -28q-24 -8 -63 -35 q-33 -22 -48 -22q-13 0 -25 13q-5 7 -5 13q0 13 34 38q44 32 59 51q69 88 109 88q26 0 45 -30z" />
<glyph unicode="&#xea;" horiz-adv-x="438" d="M449 66q-52 -84 -171 -84q-22 0 -43 3q-74 21 -126 85t-57 140q-4 63 22 122q30 64 86 94q41 46 113 46q46 0 84.5 -21t55.5 -58l24 -49q14 -29 14 -52q0 -10 -2 -20l-23 -10q-2 0 -135 5q-80 3 -131 1q-15 -14 -15 -39q0 -10 4 -37q4 -23 3 -36q55 -116 128 -119 q16 -2 31 -2q74 0 119 54q7 2 14.5 -3t7.5 -11q0 -5 -3 -9zM355 343q-5 7 -10 32q-4 20 -17 28q-38 22 -72 22q-20 0 -36 -8l-36 -35q-22 -22 -22 -44q0 -8 2 -16q21 -16 58 -19h60q63 0 73 40z" />
<glyph unicode="&#xeb;" horiz-adv-x="438" d="M449 66q-52 -84 -171 -84q-22 0 -43 3q-74 21 -126 85t-57 140q-4 63 22 122q30 64 86 94q41 46 113 46q46 0 84.5 -21t55.5 -58l24 -49q14 -29 14 -52q0 -10 -2 -20l-23 -10q-2 0 -135 5q-80 3 -131 1q-15 -14 -15 -39q0 -10 4 -37q4 -23 3 -36q55 -116 128 -119 q16 -2 31 -2q74 0 119 54q7 2 14.5 -3t7.5 -11q0 -5 -3 -9zM355 343q-5 7 -10 32q-4 20 -17 28q-38 22 -72 22q-20 0 -36 -8l-36 -35q-22 -22 -22 -44q0 -8 2 -16q21 -16 58 -19h60q63 0 73 40z" />
<glyph unicode="&#xec;" horiz-adv-x="269" d="M192 800q-12 -13 -25 -13q-15 0 -48 22q-39 27 -63 35q-64 22 -77 28q-42 21 -42 51q0 17 13 37q19 30 45 30q40 0 109 -88q15 -19 59 -51q34 -25 34 -38q0 -6 -5 -13zM226 630q-10 -16 -31 -23l-34 -10q-42 21 -56 43q-1 7 -1 14q0 35 24 61q16 12 39 12q41 0 59 -30 q17 -38 0 -67zM263 -1q-56 -9 -102 -9q-55 0 -97 13q-1 20 27.5 24.5t32.5 23.5q4 44 4 124t4 123q-16 45 -45 60q-27 -4 -29 15q0 25 30 38l51 22q3 1 28 14q17 8 28 8q6 0 12 -2q9 -85 -8 -164q8 -23 8 -58q0 -17 -2.5 -52t-2.5 -52q0 -66 34 -99q14 2 27 -11v-18z" />
<glyph unicode="&#xed;" horiz-adv-x="269" d="M384 960q13 -20 13 -37q0 -30 -42 -51q-13 -6 -77 -28q-24 -8 -63 -35q-33 -22 -48 -22q-13 0 -25 13q-5 7 -5 13q0 13 34 38q44 32 59 51q69 88 109 88q26 0 45 -30zM226 630q-10 -16 -31 -23l-34 -10q-42 21 -56 43q-1 7 -1 14q0 35 24 61q16 12 39 12q41 0 59 -30 q17 -38 0 -67zM263 -1q-56 -9 -102 -9q-55 0 -97 13q-1 20 27.5 24.5t32.5 23.5q4 44 4 124t4 123q-16 45 -45 60q-27 -4 -29 15q0 25 30 38l51 22q3 1 28 14q17 8 28 8q6 0 12 -2q9 -85 -8 -164q8 -23 8 -58q0 -17 -2.5 -52t-2.5 -52q0 -66 34 -99q14 2 27 -11v-18z" />
<glyph unicode="&#xf2;" horiz-adv-x="492" d="M313 541q-12 -13 -25 -13q-15 0 -48 22q-39 27 -63 35q-64 22 -77 28q-42 21 -42 51q0 17 13 37q19 30 45 30q40 0 109 -88q15 -19 59 -51q34 -25 34 -38q0 -6 -5 -13zM522 211q-10 -69 -47 -123q-40 -59 -102 -82q-20 -16 -55 -19h-58q-69 7 -126 62q-54 51 -75 121 q-5 22 -5 45q0 68 42 152q87 101 192 101q28 0 56 -8q25 -4 54 -20l49 -32l42 -65q23 -39 23 -70q0 -14 -4 -29q-1 -5 6.5 -16t7.5 -17zM422 174q6 28 6 59q0 80 -32 137t-109 57q-30 0 -56 -10q-80 -50 -80 -175q0 -54 16 -137q17 -58 93 -79q6 -3 13 -3q5 0 14 2t14 2 q9 0 16 -7q53 14 89 75z" />
<glyph unicode="&#xf3;" horiz-adv-x="492" d="M505 701q13 -20 13 -37q0 -30 -42 -51q-13 -6 -77 -28q-24 -8 -63 -35q-33 -22 -48 -22q-13 0 -25 13q-5 7 -5 13q0 13 34 38q44 32 59 51q69 88 109 88q26 0 45 -30zM522 211q-10 -69 -47 -123q-40 -59 -102 -82q-20 -16 -55 -19h-58q-69 7 -126 62q-54 51 -75 121 q-5 22 -5 45q0 68 42 152q87 101 192 101q28 0 56 -8q25 -4 54 -20l49 -32l42 -65q23 -39 23 -70q0 -14 -4 -29q-1 -5 6.5 -16t7.5 -17zM422 174q6 28 6 59q0 80 -32 137t-109 57q-30 0 -56 -10q-80 -50 -80 -175q0 -54 16 -137q17 -58 93 -79q6 -3 13 -3q5 0 14 2t14 2 q9 0 16 -7q53 14 89 75z" />
<glyph unicode="&#xf9;" horiz-adv-x="566" d="M224 554q-12 -13 -25 -13q-15 0 -48 22q-39 27 -63 35q-64 22 -77 28q-42 21 -42 51q0 17 13 37q19 30 45 30q40 0 109 -88q15 -19 59 -51q34 -25 34 -38q0 -6 -5 -13zM564 9q-40 -7 -123 -19q-13 5 -16 42q-2 30 -29 27q-57 -40 -74 -49q-44 -23 -86 -20q-41 3 -71 27 q-36 52 -36 156q0 15 1 45v46q0 62 -11 100q-7 9 -37 19q-26 8 -26 23q0 6 3 14q19 21 61 35q56 19 68 25q28 5 33 -14q-15 -183 -12 -359l26 -37q18 -21 38 -24q50 2 93.5 26t64.5 66q3 24 3 51q0 25 -3.5 74.5t-3.5 75.5q-7 25 -51 34q-40 8 -40 32q0 6 1 13q31 19 80 35 l84 27q19 -5 19 -22q0 -7 -4 -24t-4 -24q1 -26 1 -56q0 -35 -4 -143q-3 -89 -1 -142q6 -12 34 -24q24 -10 24 -24q0 -6 -2 -12z" />
<glyph unicode="&#xfa;" horiz-adv-x="566" d="M416 714q13 -20 13 -37q0 -30 -42 -51q-13 -6 -77 -28q-24 -8 -63 -35q-33 -22 -48 -22q-13 0 -25 13q-5 7 -5 13q0 13 34 38q44 32 59 51q69 88 109 88q26 0 45 -30zM564 9q-40 -7 -123 -19q-13 5 -16 42q-2 30 -29 27q-57 -40 -74 -49q-44 -23 -86 -20q-41 3 -71 27 q-36 52 -36 156q0 15 1 45v46q0 62 -11 100q-7 9 -37 19q-26 8 -26 23q0 6 3 14q19 21 61 35q56 19 68 25q28 5 33 -14q-15 -183 -12 -359l26 -37q18 -21 38 -24q50 2 93.5 26t64.5 66q3 24 3 51q0 25 -3.5 74.5t-3.5 75.5q-7 25 -51 34q-40 8 -40 32q0 6 1 13q31 19 80 35 l84 27q19 -5 19 -22q0 -7 -4 -24t-4 -24q1 -26 1 -56q0 -35 -4 -143q-3 -89 -1 -142q6 -12 34 -24q24 -10 24 -24q0 -6 -2 -12z" />
<glyph unicode="&#xfd;" horiz-adv-x="545" d="M682 701q13 -20 13 -37q0 -30 -42 -51q-13 -6 -77 -28q-24 -8 -63 -35q-33 -22 -48 -22q-13 0 -25 13q-5 7 -5 13q0 13 34 38q44 32 59 51q69 88 109 88q26 0 45 -30zM554 451q5 -10 5 -18q0 -20 -49 -38q-33 -12 -53 -45q-12 -20 -26.5 -67t-26.5 -67l-100 -255 q-9 -56 -64 -100q-37 -47 -111 -47q-12 0 -24 1l-33 12q-19 9 -25 26q-5 8 -5 17q0 15 15 39q18 15 41 15q18 0 52 -11t49 -11q34 0 53 40q28 27 28 60q0 29 -26 76q-32 59 -38 73l-39 103q-24 63 -45 99q-28 49 -89 52q-12 15 -12 25q0 5 3 11l23 14q18 -6 41 -6 q17 0 51 4.5t51 4.5q36 0 63 -15q6 -12 6 -19q0 -10 -22 -16.5t-26 -20.5q3 -48 35 -115q41 -86 48 -110q1 0 13 -13q8 -8 16 -5q26 39 46 106l33 112q-7 30 -37 41q-6 3 -12.5 5.5t-7 8.5t-0.5 10q0 26 28 32h164z" />
<glyph unicode="&#x152;" horiz-adv-x="1075" d="M1100 84q1 -15 -12.5 -37t-13.5 -36q0 -8 3 -17q-9 -24 -42 -24q-6 0 -25 1q-15 2 -22 1l-233 4q-7 7 -17 7q-6 0 -19.5 -4t-19.5 -3q-120 0 -239 -1q-151 2 -235 38q-112 50 -149 177q-31 71 -31 151q0 152 97 256q103 109 314 109q44 0 133 -5.5t131 -5.5q51 0 91 6 q10 8 37 0l177 -2q36 -94 33 -173q-4 -8 -11 -8q-4 0 -12 4t-10 4q-72 124 -251 124q-45 0 -98 -8q-27 -15 -29 -56v-68v-150q13 -11 33 -11q9 0 28.5 3.5t28.5 3.5q8 0 14 -2q83 11 106 85q2 13 4.5 26.5t18.5 11.5q14 5 20 -15l-2 -120q12 -17 3 -58t8 -61q-4 -3 -9 -23 q-4 -15 -18 -14q-19 1 -23 22t-6 40q-15 55 -78 64q-55 4 -109 7l-19 -19q7 -36 1 -138q-5 -88 13 -134l34 -23l140 8q82 7 131 28q65 28 100 89q6 10 30 10q14 -24 4 -64zM553 466q-9 14 -11.5 51t-15.5 51l-33 47q-48 26 -109 26q-63 0 -107 -30q-47 -23 -97 -126 q-11 -21 -12.5 -66.5t-10.5 -64.5q0 -264 153 -326q46 -7 78 -7q102 0 143 71q24 70 24 173q0 24 -1.5 71.5t-1.5 71.5q0 32 1 58z" />
<glyph unicode="&#x153;" horiz-adv-x="769" d="M795 64q-6 -21 -35 -29.5t-32 -26.5q-38 -32 -98 -32q-56 0 -124 28q-6 3 -28 29q-17 19 -31 19q-6 0 -12 -3q-63 -72 -152 -72q-29 0 -58 8q-60 7 -110 64q-43 49 -64 115q-4 154 67 224q81 66 173 66q57 0 103 -29l45 -43q24 0 54.5 30t53.5 30q43 7 73 7q91 0 133 -61 q26 -39 26 -96q0 -19 -3 -37q-34 -4 -77 -4q-25 0 -103 3q-63 3 -101 1q-7 -11 -7 -26q0 -11 6.5 -38t5.5 -42q33 -81 108 -108q15 -6 30 -6q28 0 73 32t75 30q9 -7 9 -33zM664 303q9 43 -4 64q-20 37 -68 37q-46 0 -67 -35q0 -11 -10 -31t-10 -30q0 -8 5 -16q14 1 51 -1 q35 -1 54 0q29 2 49 12zM392 70q23 51 23 113q0 59 -23 147q-18 36 -52 57.5t-73 17.5q-76 -16 -98 -79q0 -24 -11 -65.5t-11 -63.5t8 -44q9 -12 13 -46.5t20 -46.5q55 -44 110 -44q12 0 25 2q27 14 38 21q20 13 31 31z" />
<glyph unicode="&#x2013;" horiz-adv-x="635" d="M594 224q-13 -17 -40 -18q35 2 -43 2q-64 7 -140 7q-45 0 -138 -3.5t-144 -3.5q-23 26 -23 43q0 9 4 17q15 19 44 19q13 0 41 -5t41 -5q14 0 24 3h365q14 -28 9 -56z" />
<glyph unicode="&#x2014;" horiz-adv-x="1120" d="M1090 265q0 -35 -35 -56q-17 -6 -37 -6q-15 0 -47 5t-47 5q-93 0 -435 4q-273 3 -427 0q-13 7 -13 25q0 10 4 23l23 19h473q275 1 466 8q20 -4 41 -7q23 -6 34 -20z" />
<glyph unicode="&#x2018;" horiz-adv-x="246" d="M216 781q1 -6 1 -11q0 -24 -33 -49q-38 -28 -45 -48q0 -21 31.5 -64.5t31.5 -64.5q0 -27 -38 -48q-8 0 -23 -3.5t-22 -3.5q-12 0 -22 7q-29 11 -32 47q-3 31 -5 61q7 50 48 99q22 28 83 82z" />
<glyph unicode="&#x2019;" horiz-adv-x="259" d="M218 739q2 -13 2 -26q0 -79 -81 -175q-11 -3 -28.5 -21.5t-28.5 -18.5q-10 0 -22 13q5 16 39 54q30 33 30 59q0 9 -3 18l-30 24q-19 15 -26 32q-3 46 23 79q23 18 50 18q56 0 75 -56z" />
<glyph unicode="&#x201c;" d="M441 781q-5 -16 -39 -54q-30 -33 -30 -59q0 -8 3 -17l30 -25q20 -15 26 -31q4 -47 -23 -79q-22 -18 -49 -18q-56 0 -75 55q-2 13 -2 26q0 80 81 175q11 3 29 23q17 17 27 17t22 -13zM230 796q7 -14 7 -25q0 -18 -36.5 -43.5t-34.5 -54.5l42 -53q25 -33 25 -62 q0 -14 -5 -28q-37 -34 -78 -34q-15 0 -29 5l-32 21q-16 11 -22 26q-7 21 -7 41q0 41 34 90l59 79q40 42 77 38z" />
<glyph unicode="&#x201d;" horiz-adv-x="478" d="M434 744q7 -20 7 -40q0 -42 -33 -91l-59 -79q-40 -42 -77 -37q-8 13 -8 24q0 18 37 44t34 54l-42 53q-24 34 -24 63q0 13 5 28q37 33 78 33q14 0 29 -4l31 -22q17 -11 22 -26zM218 739q2 -13 2 -26q0 -79 -81 -175q-11 -3 -28.5 -21.5t-28.5 -18.5q-10 0 -22 13 q5 16 39 54q30 33 30 59q0 9 -3 18l-30 24q-19 15 -26 32q-3 46 23 79q23 18 50 18q56 0 75 -56z" />
<glyph unicode="&#x2022;" horiz-adv-x="2310" d="M2347 880q-16 -56 -28 -157q13 -12 13 -25q0 -11 -10 -21l-44 -74l-102 69q0 10 -5 28q-20 -12 -41 -37l-37 -41q-42 38 -109 80q15 29 18 76q3 40 5 80q0 3 -5 13t-5 15q0 7 7 13l63 91q20 -12 51 -40q35 -32 50 -42q-10 -25 -16 -66q-5 -35 -9 -70q8 -8 18 -17t18 -6 q0 15 5 49t5 51q0 28 -11 48l96 68l6 -3zM1975 913q-28 -127 -30 -233l-42 -57q-28 -31 -60 -33q-70 -19 -161 -37q-4 5 -4 11l51 24q29 15 43 38q17 40 17 52q0 9 -3 18q-28 -19 -83 -76q-23 13 -52 38l-49 44q12 74 17 189q3 97 7 194l5 6q29 -4 77 -3q59 1 78 0 q0 -29 -7 -86.5t-6 -84.5l3 -5l68 88q42 -31 131 -87zM1588 767l-51 -136q-39 25 -121 73q8 76 10 196l2 196q71 -3 156 6l3 -3l-19 -311zM1990 460q-5 2 -7 -2q-7 -16 -6 -24q0 1 0 -74q0 -30 -8 -40q2 8 -1 10q-10 -15 -18 -61q0 -15 -7 -44q-6 -14 -11.5 -46.5 t-14.5 -48.5q-7 -4 -14 -20q-5 4 -10 14.5t-10.5 13.5t-19.5 9q1 3 2 5q0 2 -16 14q-11 9 -7 20q32 72 45 120q3 1 6 5q13 33 20 81l8 83q19 9 24 40q6 39 13 49t20 0q8 -5 9 -16t1 -20l6 -34q2 -20 -4 -34zM1670 441l-3 1q2 -3 3 -3q0 3 -2 3zM1672 427q-1 0 -3 -1 q1 0 2 -3q-3 1 -2 3q0 2 2 4q2 -2 1 -3zM1667 413q-6 1 -5 3q1 5 4 -2zM1668 406q-1 0 -1 3h1q3 -2 0 -3zM1365 943q-11 -59 -14 -160q15 -11 15 -25q0 -11 -8 -20l-36 -78l-108 59q-1 10 -8 28q-18 -14 -37 -41l-33 -44q-45 34 -116 70q8 22 10 50q2 19 0 53q-2 38 -1 53 q-1 3 -8 15q-6 9 -6 14q0 7 6 12l54 96q21 -10 55 -35q38 -28 53 -37q-7 -25 -9 -67q-1 -35 -3 -70q8 -7 17 -14t16 -7q3 0 5 1q-1 14 0 40q2 34 2 42q0 42 -16 65l89 77l6 -2zM1811 506q-13 -21 -55 -32l-70 -17q-6 -2 -32 -29q-1 -2 -1 -4t2.5 -7t2.5 -8t-3 -7 q-2 -1 10 -5q-2 0 -4 -2q0 -5 7 -6q-4 0 -4 -2q0 -1 1.5 -3t1.5 -3t-2 -1q-4 1 -12 2q-15 -1 -1 -8q3 1 7 0q1 0 5 -1q-1 -2 -1 -3l-4 4q-5 1 -8 -2q4 -31 39 -67q12 -13 18 -13q-1 -9 2 -11q60 -33 60 -61q0 -21 -17.5 -39t-60.5 -86q-7 -11 -29 -13q-15 -2 -56 -11 q-35 -7 -56 -7q-30 0 -60 19q-34 21 -34 49q0 29 28 29q15 0 39 -5q28 -5 33 -12q4 6 12 6l16 -2q3 1 6 6q3 -6 8 -5q13 2 18 2l-4 -2q1 -3 7 -6q4 1 7 9q24 -9 29 -3q5 5 -7 5l11 5q1 -5 -3.5 -10.5t-4.5 -7.5q0 -3 7 -4.5t21 -2.5q4 5 16 9q-3 4 -3 9q0 4 3.5 11.5 t3.5 10.5q0 5 -9 7q-13 3 -25 -13q-4 3 -9 3q-4 0 -11 -4t-11 -4q-5 0 -10 4q10 1 24 9q1 2 -4.5 4t-5.5 5q-7 -2 -6 -6q-10 11 -10 13q0 1 2.5 3.5t23.5 12.5q15 7 20 16q3 6 3 13q0 16 -16 31q-9 14 -35 36q-8 -1 -20 3q-24 26 -65 83q-4 6 -6 21q-9 64 93 89q11 3 61 1 q39 -2 53 12q28 25 54 22q10 -1 16.5 -13t3.5 -16zM1911 29q-4 -3 -8 -3q-3 0 -12 5t-15 4t-7 -4q0 -9 13 -11q-1 -1 1 -7q-1 -2 -4 -4l-9 4q-5 3 -10 0q2 -1 0 -13l-6 2q3 4 -1 6q-11 7 -17 -2q1 -4 -1 -13q-5 -6 -9 0q-2 3 -1 9v9q-1 3 -7 3q-4 -1 -6.5 -8.5t-5.5 -7.5 q-7 0 -7 6q0 2 4 5t4 5q1 9 -15 12q-5 1 -11.5 -9.5t-14.5 -10.5l-5 4q2 6 12 11t11 9q4 8 -12 19q-2 1 4 5.5t6 9.5q-1 5 -6 4q-1 0 -10 -3q-6 -3 -10 0l1 5q10 -4 20 2l-4 7q17 9 16 22q12 -5 16 3q-1 2 -5 4l2 6q4 1 9 -3t7 -4q3 0 5 2q3 3 -1.5 12.5t-1.5 9.5q5 0 6 -7 v-10q1 -5 4 -7q4 -1 8 1q0 8 1 9q6 3 9 3q14 0 12 -24q4 2 4 5q3 -1 9 -3.5t2 -5.5q-5 -4 -5 -6q2 -7 5 -7q1 0 8 4q5 3 9 0q6 -3 2 -6q-17 -12 -17 -13q0 -3 2 -6q11 10 16 1q2 -5 -3 -6t-11 0q-2 -1 -4 -5q2 -9 13 -9q16 -1 20 -3.5t1 -6.5zM1369 520q-1 0 -1 3zM1354 522 q-2 -1 -3 0q0 1 2 1zM1343 523q2 -1 -0.5 -1.5t0.5 1.5zM1316 527q-2 0 -1 3q2 0 1 -3zM1457 504q-10 -7 -20 -21q-8 -10 -15 -21q-22 -27 -64 -27q-31 0 -74 15l-23 7q-12 3 -15 14q-1 2 4 6t-1 8q-5 0 -13 4q-17 15 -17 30q0 21 28 21q19 0 32 -13q1 -1 1 -2l1 1q-1 4 2 9 q-1 -3 1.5 -7t3.5 -5q5 2 5 6q3 -6 5 -8q3 -3 8 1q-2 -10 1 -11q2 1 5 6q1 -4 5 -8q3 1 5 5q2 -5 6 -5q3 1 4 3q1 -3 3 -4q4 -2 15 3l-2 4l2 -2q2 -2 4 -3q3 1 4 4q0 -3 3 -6q5 0 14 7q-2 -4 5 -4q6 3 5 11q-3 2 -1 6q-1 -3 2 -7q6 -1 10 4t8 9l2 -4q4 0 5 4t2 4 q20 5 34.5 -5.5t14.5 -18.5q0 -5 -5 -10zM1752 39q-1 -3 -5 -5q-2 1 -2 3q3 7 7 2zM1732 5q0 -3 -9 -1q0 2 1 4.5t7 2.5q3 0 1 -6zM1597 180q-9 -3 -23 -2q-45 -3 -62 -17q-2 3 -2 6q0 4 5.5 10.5t6.5 10t6 1.5q0 -3 3 -4.5t43 -6.5q8 1 23 2zM993 941q-18 -129 -11 -235 l-37 -60q-25 -33 -57 -38q-68 -25 -157 -50q-5 4 -5 10l49 28q28 18 40 42q13 39 13 49q0 12 -5 22q-27 -21 -76 -83q-24 11 -56 34l-52 39q3 42 3 92q0 54 -5 146q-6 111 -7 146l5 7q30 -2 78 3q59 6 77 7q3 -29 0 -87q-2 -58 1 -85l3 -4l61 93q44 -28 138 -76zM1457 271 q3 -8 -19 -32q2 -10 -2 -23q-4 1 -9 -2q-1 -7 5 -8l8 4q-18 -11 -3 -28q-4 0 -7 -2q0 -2 5 -6t4 -7q-7 -15 -25 -19q-2 0 -32 -3q-34 -3 -102 -7q-14 0 -41.5 -7t-40.5 -7t-22.5 4.5t-14.5 27.5q-6 27 -14 38t-9 31q0 16 1 33q-1 66 13 105q0 9 1 25l12 56q8 32 20 53 q7 11 17 11q7 0 10 -7q8 -18 5 -50q-3 -36 0 -50q3 0 70 -14q42 -9 71 -9q15 0 30 2q2 -2 1 -7q-5 -4 -5 -6q3 -6 2 -7q-11 -14 -18 -13q-42 3 -53 2t-17 -19.5t-13 -17.5q-62 1 -71 35q-1 2 -4 1q-2 -1 -3 -3q-10 -37 3 -53q5 -6 17 -11q18 -7 21 -8q13 -7 38 -12 q35 -6 41 -8q-4 -5 1 -7q3 1 5 6q3 -2 2 -8t2 -7q1 0 7 12q1 -1 -2 -9q0 -1 2 -1q6 1 10.5 -3.5t6.5 -4.5q10 0 31 6q-4 4 -2 8q3 -7 6 -5q6 4 11.5 17t9.5 15q17 9 26 9q10 0 14 -10zM603 743l-50 -118l-11 -1q-72 39 -122 56q-7 6 -5 16q3 16 3 17q-5 28 -6 78 q-1 56 -3 77q-7 8 -25 7q-6 58 -6 49q0 17 7 28q20 1 20 10q0 -1 -2 39q-2 23 6 33q50 13 147 48l8 -8q-2 -54 7 -109q3 -5 13 -4.5t13 -3.5l3 -72q-3 -5 -15.5 -5t-13.5 -11q3 -12 3 -31v-15v-15q0 -51 29 -65zM1098 519q0 -18 -7 -42q-11 -34 -12 -41q-3 -11 -1 -42 q1 -27 -4 -40q-9 -23 -23 -78q-13 -50 -26 -76q-23 -48 -34 -46q-32 7 -60 52q-34 55 -53 67q6 11 6 23q0 14 -11 38q-14 28 -16 39q-16 70 -16 75q0 20 10 36q1 2 8 2t10 -2q20 -18 39 -61q21 -46 36 -62q16 25 58 71q4 10 15 26q13 13 22.5 44.5t23.5 42.5q6 5 18 5 q13 -1 15 -11t2 -20zM813 116q4 0 -37 1q-5 0 -7.5 8.5t-3.5 9.5q-31 42 -33 45q-17 27 -20 52q-4 6 -10 17q-21 42 -21 107q0 13 -4.5 43.5t-4.5 45.5q0 43 28 60q4 2 8 2q12 0 23 -16t15 -32l23 -114q15 -66 40 -108l27 -40q15 -24 15 -42q0 -13 -8.5 -25.5t-29.5 -13.5z M373 726q-56 -116 -218 -110q-57 3 -108 33q-55 33 -78 84l-18 100l26 64q18 37 50 45q11 8 34 20q-2 -103 37 -150l20 -17l4 3q-10 58 -45 169l2 7l141 92q24 -16 61 -20q11 -1 65 -2q2 -14 -1 -37q-3 -29 -3 -38q0 -14 3 -26q-2 -4 -10 -4h-10q-5 -2 -4 -10q2 -55 15 -168 q2 -4 6 -4q3 0 9 4.5t8 5.5q4 8 12 9q2 -16 2 -50zM675 80q-7 0 -22 6.5t-22 6.5q-14 0 -18 -9q-1 -3 0 -18q1 -13 -5 -14q-54 -8 -50 -8q-12 0 -27.5 6t-26.5 6q-24 0 -48.5 -23t-40.5 -23q-9 0 -17 6q-26 22 -34 71q-3 44 -7 87q0 4 4 10.5t11 4.5q4 23 3 63q-2 46 0 63 l6 79q3 46 13 76q6 20 25 20q9 0 12 -6l28 -49q15 -29 20 -55q2 -16 2 -35q0 -15 -2 -43.5t-2 -42.5q0 -19 3 -35q34 6 61 6q85 0 129 -57q0 -5 2 -13q25 -30 25 -56q0 -24 -22 -24zM1792 754q-2 13 2 35q4 26 4 35q0 15 -7 27q-3 1 -9.5 5.5t-9.5 4.5q-2 0 -5 -2 q-7 -77 -1 -96q3 -1 10 -6t11 -5q2 0 5 2zM823 767q-2 10 1 50q1 31 -9 47q-3 0 -9.5 4t-9.5 4t-6 -2q0 -77 8 -96q3 -1 9.5 -5.5t10.5 -4.5q3 0 5 3zM296 747l-21 176q4 17 -14 17q-6 0 -10 -3l11 -139q-10 -12 -34 -23q-29 -15 -38 -21l1 -4q25 -13 58 -13q20 0 43 5z" />
<glyph unicode="&#x2026;" horiz-adv-x="1068" d="M949 93q4 -17 4 -33q0 -37 -18 -57q-18 -15 -49 -15q-19 0 -68 11q-26 18 -26 58q0 13 3 25q16 39 75 48l45 -8q27 -5 34 -29zM593 93q4 -17 4 -33q0 -37 -18 -57q-18 -15 -49 -15q-19 0 -68 11q-26 18 -26 58q0 13 3 25q16 39 75 48l45 -8q27 -5 34 -29zM237 93 q4 -17 4 -33q0 -37 -18 -57q-18 -15 -49 -15q-19 0 -68 11q-26 18 -26 58q0 13 3 25q16 39 75 48l45 -8q27 -5 34 -29z" />
<glyph unicode="&#x2122;" horiz-adv-x="1617" d="M1624 21q1 -13 -15 -18q-24 -7 -27 -9q-45 4 -145 3q-95 0 -145 5q-10 19 -9 23q12 7 60 8q34 1 48 21q9 42 9 109q-1 94 0 109q-4 36 -4 80q0 24 3 105q2 67 1 110q-8 12 -19 5q-20 -24 -32.5 -84.5t-36.5 -84.5q-6 -33 -56 -158q-20 -89 -56 -159q-7 -30 -15 -60 q-10 -36 -43 -32q-31 52 -66.5 164t-64.5 162q-1 4 -31 92q-19 56 -37 91q-11 41 -14 49q-11 26 -30 34q0 -398 2 -461q1 -27 24 -51q1 -1 45 -38q16 -2 33.5 -5t22.5 -18l-13 -11q-113 3 -253 -10q-12 3 -14.5 13t-4.5 20q6 3 71 15q58 38 58 130q0 19 -4 73q-4 47 -2 73 q11 13 11 30q0 10 -5 30t-5 30q0 9 3 16v201q-17 18 -35 35q-21 20 -40 20q-9 0 -21 -5t-18 -5q-20 0 -32 22q5 28 23 33q39 -13 108 -9q77 5 108 -1q13 -14 21 -42q6 -24 13 -48q16 -52 57.5 -160.5t58.5 -165.5q9 -17 24 -64q12 -42 28 -62q-4 -28 18 -38q17 3 24 27 q7 30 18 38q4 35 27 94q24 64 29 93q46 117 59 153q31 88 47 160q27 25 84 23q74 -4 91 0q4 -1 30 0q18 1 26 -12q3 -5 3 -11q0 -10 -10 -23q-35 1 -71 1q-41 -3 -45 -42q-7 -74 -7 -216q-1 -151 -5 -220q5 -18 5 -57.5t4 -56.5q8 -30 32 -44q7 -2 53 -2q32 -1 49 -17z M723 541q-5 -3 -9 -3q-12 0 -27 19l-24 31l-63 44q-36 23 -68 27q-36 24 -85 12l-27 -27l4 -149q-10 -11 -10 -20t10 -17q-4 -50 -4 -109q0 -49 3 -136q4 -99 5 -140q8 -30 53 -30h17q12 1 17 1q44 0 44 -35q-40 -11 -97 -11q-21 0 -63 2t-62 2q-45 0 -77 -8h-34 q-18 1 -22 19q-5 18 14 33q11 1 32.5 -1.5t30.5 -2.5q32 0 49 23q0 70 4 201.5t4 194.5q0 107 -8 196q-14 14 -37 14q-10 0 -33.5 -4.5t-35.5 -3.5q-51 -5 -98 -54q-15 -15 -72 -91q-9 -3 -17 1.5t-10 12.5l12 80q9 45 25 74q-3 21 11 29q73 7 252 2q162 -5 252 11 q13 -6 50 -8t50 -10q21 -13 17 -47q1 -25 11 -62q14 -51 16 -60z" />
<glyph unicode="&#xe000;" horiz-adv-x="450" d="M0 450h450v-450h-450v450z" />
<glyph unicode="&#xfb01;" horiz-adv-x="637" d="M594 630q-10 -16 -31 -23l-34 -10q-42 21 -56 43q-1 7 -1 14q0 35 24 61q16 12 39 12q41 0 59 -30q17 -38 0 -67zM631 -1q-56 -9 -102 -9q-55 0 -97 13q-1 20 27.5 24.5t32.5 23.5q4 44 4 124t4 123q-16 45 -45 60q-27 -4 -29 15q0 25 30 38l51 22q3 1 28 14q17 8 28 8 q6 0 12 -2q9 -85 -8 -164q8 -23 8 -58q0 -17 -2.5 -52t-2.5 -52q0 -66 34 -99q14 2 27 -11v-18zM392 695q3 -30 -16.5 -52.5t-48.5 -22.5q-15 0 -43.5 8.5t-38.5 8.5q-28 0 -35 -37q0 -36 7 -79q6 -35 11 -71q7 -13 21 -16l27 -7q16 14 60 4q12 -9 5 -31q-11 -11 -28 -11 q-8 0 -22.5 2.5t-20.5 2.5q-23 0 -31 -23l-4 -295q1 -10 11 -19.5t19 -16t23 -6.5q4 0 13 1h12q26 0 32 -23q-11 -11 -37 -14q-41 -5 -42 -5q-27 4 -70 3h-70q-33 2 -55 8q-2 4 -2 7q0 10 24 20q8 -2 15 -2q31 0 46 24q1 44 -1 116q-2 92 -2 120q0 47 3 86q-10 19 -34 19 q-7 0 -22 -2.5t-21 -2.5q-26 0 -29 30q12 11 38 11h12h12q33 0 44 20q0 47 1 94q2 55 16 89q17 45 57 70q50 32 95 32q48 0 69 -40z" />
<glyph unicode="&#xfb02;" horiz-adv-x="656" d="M656 29q3 -15 -9 -21.5t-24 -11.5q-25 6 -91 1q-58 -4 -87 9q-4 22 27 34t31 35q5 48 5 110q0 50 -5 153.5t-5 156.5q0 43 3 80q-4 25 -41.5 35t-37.5 30q0 8 4 18q6 3 77 52q46 30 83 34l10 -15q-11 -122 -11 -288q0 -28 1 -175q1 -107 0 -177q5 -13 11 -27t18 -20 q29 0 41 -13zM392 695q3 -30 -16.5 -52.5t-48.5 -22.5q-15 0 -43.5 8.5t-38.5 8.5q-28 0 -35 -37q0 -36 7 -79q6 -35 11 -71q7 -13 21 -16l27 -7q16 14 60 4q12 -9 5 -31q-11 -11 -28 -11q-8 0 -22.5 2.5t-20.5 2.5q-23 0 -31 -23l-4 -295q1 -10 11 -19.5t19 -16t23 -6.5 q4 0 13 1h12q26 0 32 -23q-11 -11 -37 -14q-41 -5 -42 -5q-27 4 -70 3h-70q-33 2 -55 8q-2 4 -2 7q0 10 24 20q8 -2 15 -2q31 0 46 24q1 44 -1 116q-2 92 -2 120q0 47 3 86q-10 19 -34 19q-7 0 -22 -2.5t-21 -2.5q-26 0 -29 30q12 11 38 11h12h12q33 0 44 20q0 47 1 94 q2 55 16 89q17 45 57 70q50 32 95 32q48 0 69 -40z" />
<glyph unicode="&#xfb03;" horiz-adv-x="1005" d="M962 630q-10 -16 -31 -23l-34 -10q-42 21 -56 43q-1 7 -1 14q0 35 24 61q16 12 39 12q41 0 59 -30q17 -38 0 -67zM999 -1q-56 -9 -102 -9q-55 0 -97 13q-1 20 27.5 24.5t32.5 23.5q4 44 4 124t4 123q-16 45 -45 60q-27 -4 -29 15q0 25 30 38l51 22q3 1 28 14q17 8 28 8 q6 0 12 -2q9 -85 -8 -164q8 -23 8 -58q0 -17 -2.5 -52t-2.5 -52q0 -66 34 -99q14 2 27 -11v-18zM760 695q3 -30 -16.5 -52.5t-48.5 -22.5q-15 0 -43.5 8.5t-38.5 8.5q-28 0 -35 -37q0 -36 7 -79q6 -35 11 -71q7 -13 21 -16l27 -7q16 14 60 4q12 -9 5 -31q-11 -11 -28 -11 q-8 0 -22.5 2.5t-20.5 2.5q-23 0 -31 -23l-4 -295q1 -10 11 -19.5t19 -16t23 -6.5q4 0 13 1h12q26 0 32 -23q-11 -11 -37 -14q-41 -5 -42 -5q-27 4 -70 3h-70q-33 2 -55 8q-2 4 -2 7q0 10 24 20q8 -2 15 -2q31 0 46 24q1 44 -1 116q-2 92 -2 120q0 47 3 86q-10 19 -34 19 q-7 0 -22 -2.5t-21 -2.5q-26 0 -29 30q12 11 38 11h12h12q33 0 44 20q0 47 1 94q2 55 16 89q17 45 57 70q50 32 95 32q48 0 69 -40zM392 695q3 -30 -16.5 -52.5t-48.5 -22.5q-15 0 -43.5 8.5t-38.5 8.5q-28 0 -35 -37q0 -36 7 -79q6 -35 11 -71q7 -13 21 -16l27 -7 q16 14 60 4q12 -9 5 -31q-11 -11 -28 -11q-8 0 -22.5 2.5t-20.5 2.5q-23 0 -31 -23l-4 -295q1 -10 11 -19.5t19 -16t23 -6.5q4 0 13 1h12q26 0 32 -23q-11 -11 -37 -14q-41 -5 -42 -5q-27 4 -70 3h-70q-33 2 -55 8q-2 4 -2 7q0 10 24 20q8 -2 15 -2q31 0 46 24q1 44 -1 116 q-2 92 -2 120q0 47 3 86q-10 19 -34 19q-7 0 -22 -2.5t-21 -2.5q-26 0 -29 30q12 11 38 11h12h12q33 0 44 20q0 47 1 94q2 55 16 89q17 45 57 70q50 32 95 32q48 0 69 -40z" />
<glyph unicode="&#xfb04;" horiz-adv-x="1024" d="M1024 29q3 -15 -9 -21.5t-24 -11.5q-25 6 -91 1q-58 -4 -87 9q-4 22 27 34t31 35q5 48 5 110q0 50 -5 153.5t-5 156.5q0 43 3 80q-4 25 -41.5 35t-37.5 30q0 8 4 18q6 3 77 52q46 30 83 34l10 -15q-11 -122 -11 -288q0 -28 1 -175q1 -107 0 -177q5 -13 11 -27t18 -20 q29 0 41 -13zM760 695q3 -30 -16.5 -52.5t-48.5 -22.5q-15 0 -43.5 8.5t-38.5 8.5q-28 0 -35 -37q0 -36 7 -79q6 -35 11 -71q7 -13 21 -16l27 -7q16 14 60 4q12 -9 5 -31q-11 -11 -28 -11q-8 0 -22.5 2.5t-20.5 2.5q-23 0 -31 -23l-4 -295q1 -10 11 -19.5t19 -16t23 -6.5 q4 0 13 1h12q26 0 32 -23q-11 -11 -37 -14q-41 -5 -42 -5q-27 4 -70 3h-70q-33 2 -55 8q-2 4 -2 7q0 10 24 20q8 -2 15 -2q31 0 46 24q1 44 -1 116q-2 92 -2 120q0 47 3 86q-10 19 -34 19q-7 0 -22 -2.5t-21 -2.5q-26 0 -29 30q12 11 38 11h12h12q33 0 44 20q0 47 1 94 q2 55 16 89q17 45 57 70q50 32 95 32q48 0 69 -40zM392 695q3 -30 -16.5 -52.5t-48.5 -22.5q-15 0 -43.5 8.5t-38.5 8.5q-28 0 -35 -37q0 -36 7 -79q6 -35 11 -71q7 -13 21 -16l27 -7q16 14 60 4q12 -9 5 -31q-11 -11 -28 -11q-8 0 -22.5 2.5t-20.5 2.5q-23 0 -31 -23 l-4 -295q1 -10 11 -19.5t19 -16t23 -6.5q4 0 13 1h12q26 0 32 -23q-11 -11 -37 -14q-41 -5 -42 -5q-27 4 -70 3h-70q-33 2 -55 8q-2 4 -2 7q0 10 24 20q8 -2 15 -2q31 0 46 24q1 44 -1 116q-2 92 -2 120q0 47 3 86q-10 19 -34 19q-7 0 -22 -2.5t-21 -2.5q-26 0 -29 30 q12 11 38 11h12h12q33 0 44 20q0 47 1 94q2 55 16 89q17 45 57 70q50 32 95 32q48 0 69 -40z" />
</font>
</defs>
</svg>
